STARTFONT 2.1
COMMENT
COMMENT Converted from OpenType font "MFXinRan_Noncommercial-Regular.ttf" by "otf2bdf 3.0".
COMMENT
FONT -FreeType-MF XinRan(Noncommercial)-Medium-R-Normal--22-160-100-100-P-200-ISO10646-1
SIZE 16 100 100
FONTBOUNDINGBOX 23 27 0 -7
STARTPROPERTIES 19
FOUNDRY "FreeType"
FAMILY_NAME "MF XinRan(Noncommercial)"
WEIGHT_NAME "Medium"
SLANT "R"
SETWIDTH_NAME "Normal"
ADD_STYLE_NAME ""
PIXEL_SIZE 22
POINT_SIZE 160
RESOLUTION_X 100
RESOLUTION_Y 100
SPACING "P"
AVERAGE_WIDTH 200
CHARSET_REGISTRY "ISO10646"
CHARSET_ENCODING "1"
FONT_ASCENT 19
FONT_DESCENT 2
COPYRIGHT "© 2018 SN. All rights reserved."
_OTF_FONTFILE "MFXinRan_Noncommercial-Regular.ttf"
_OTF_PSNAME "MF XinRan(Noncommercial)-Regular"
ENDPROPERTIES
CHARS 7226
STARTCHAR 0020
ENCODING 32
SWIDTH 225 0
DWIDTH 5 0
BBX 0 0 0 0
BITMAP
ENDCHAR
STARTCHAR 0021
ENCODING 33
SWIDTH 270 0
DWIDTH 6 0
BBX 4 18 1 -1
BITMAP
E0
E0
E0
E0
E0
E0
E0
E0
E0
E0
E0
E0
E0
00
60
F0
F0
60
ENDCHAR
STARTCHAR 0022
ENCODING 34
SWIDTH 450 0
DWIDTH 10 0
BBX 8 4 1 13
BITMAP
77
77
77
EE
ENDCHAR
STARTCHAR 0023
ENCODING 35
SWIDTH 810 0
DWIDTH 18 0
BBX 17 16 1 1
BITMAP
078E00
071E00
071E00
7FFF80
7FFF80
0E3C00
1E3C00
1E3800
1E7800
FFFF00
FFFF00
3C7000
38F000
78F000
78E000
71E000
ENDCHAR
STARTCHAR 0024
ENCODING 36
SWIDTH 720 0
DWIDTH 16 0
BBX 15 18 1 0
BITMAP
0380
FFFC
FFFE
E39E
E39E
E380
E380
E380
FFFC
7FFE
039E
039E
E39E
E39E
FFFE
FFFC
0380
0300
ENDCHAR
STARTCHAR 0025
ENCODING 37
SWIDTH 945 0
DWIDTH 21 0
BBX 19 18 1 -2
BITMAP
0001C0
FE0380
FE0780
EE0F00
EE1E00
EE3C00
FE3800
7E7000
00F000
01E000
03C7C0
078FE0
070EE0
0F0EE0
1E0EE0
3C0EE0
780FE0
300FE0
ENDCHAR
STARTCHAR 0026
ENCODING 38
SWIDTH 900 0
DWIDTH 20 0
BBX 18 17 1 -1
BITMAP
7FF000
7FF800
703800
703800
703800
703800
703800
7FF800
7FF9C0
E03F80
E03F00
E01E00
E01E00
E01F00
E01F80
FFF780
FFE7C0
ENDCHAR
STARTCHAR 0027
ENCODING 39
SWIDTH 270 0
DWIDTH 6 0
BBX 4 5 1 13
BITMAP
70
70
70
70
C0
ENDCHAR
STARTCHAR 0028
ENCODING 40
SWIDTH 315 0
DWIDTH 7 0
BBX 5 18 1 -1
BITMAP
38
78
70
70
F0
F0
E0
E0
E0
E0
E0
E0
F0
F0
70
70
78
38
ENDCHAR
STARTCHAR 0029
ENCODING 41
SWIDTH 315 0
DWIDTH 7 0
BBX 5 18 1 -1
BITMAP
F0
F0
70
78
78
38
38
38
38
38
38
38
38
78
78
70
F0
F0
ENDCHAR
STARTCHAR 002A
ENCODING 42
SWIDTH 450 0
DWIDTH 10 0
BBX 8 8 1 11
BITMAP
18
18
FF
FF
3C
7C
66
04
ENDCHAR
STARTCHAR 002B
ENCODING 43
SWIDTH 720 0
DWIDTH 16 0
BBX 16 15 0 0
BITMAP
01C0
01C0
01C0
01C0
01C0
01C0
FFFF
FFFF
01C0
01C0
01C0
01C0
01C0
01C0
01C0
ENDCHAR
STARTCHAR 002C
ENCODING 44
SWIDTH 270 0
DWIDTH 6 0
BBX 4 5 1 -2
BITMAP
70
70
70
70
C0
ENDCHAR
STARTCHAR 002D
ENCODING 45
SWIDTH 810 0
DWIDTH 18 0
BBX 16 2 1 7
BITMAP
FFFF
FFFF
ENDCHAR
STARTCHAR 002E
ENCODING 46
SWIDTH 270 0
DWIDTH 6 0
BBX 4 4 1 -1
BITMAP
60
F0
F0
60
ENDCHAR
STARTCHAR 002F
ENCODING 47
SWIDTH 405 0
DWIDTH 9 0
BBX 9 18 0 -1
BITMAP
0380
0780
0700
0700
0F00
0F00
0E00
1E00
1E00
1C00
1C00
3C00
3800
3800
7800
7000
7000
E000
ENDCHAR
STARTCHAR 0030
ENCODING 48
SWIDTH 630 0
DWIDTH 14 0
BBX 12 16 1 -1
BITMAP
FFF0
FFF0
E070
E070
E070
E070
E070
E070
E070
E070
E070
E070
E070
E070
FFF0
FFF0
ENDCHAR
STARTCHAR 0031
ENCODING 49
SWIDTH 450 0
DWIDTH 10 0
BBX 9 16 1 -1
BITMAP
FC00
FC00
1C00
1C00
1C00
1C00
1C00
1C00
1C00
1C00
1C00
1C00
1C00
1C00
FF80
FF80
ENDCHAR
STARTCHAR 0032
ENCODING 50
SWIDTH 630 0
DWIDTH 14 0
BBX 12 16 1 -1
BITMAP
FFF0
FFF0
0070
0070
0070
0070
0070
FFF0
FFE0
E000
E000
E000
E000
E000
FFF0
FFF0
ENDCHAR
STARTCHAR 0033
ENCODING 51
SWIDTH 585 0
DWIDTH 13 0
BBX 12 16 0 -1
BITMAP
FFF0
FFF0
0070
0070
0070
0070
0070
7FF0
7FF0
0070
0070
0070
0070
0070
FFF0
FFF0
ENDCHAR
STARTCHAR 0034
ENCODING 52
SWIDTH 675 0
DWIDTH 15 0
BBX 13 16 1 -2
BITMAP
38E0
38E0
38E0
38E0
78E0
70E0
70E0
70E0
70E0
F0E0
E0E0
FFF8
7FF8
00E0
00E0
00E0
ENDCHAR
STARTCHAR 0035
ENCODING 53
SWIDTH 630 0
DWIDTH 14 0
BBX 12 16 1 -1
BITMAP
FFF0
FFF0
E000
E000
E000
E000
E000
FFF0
7FF0
0070
0070
0070
0070
0070
FFF0
FFF0
ENDCHAR
STARTCHAR 0036
ENCODING 54
SWIDTH 630 0
DWIDTH 14 0
BBX 12 16 1 -1
BITMAP
FFF0
FFF0
E000
E000
E000
E000
E000
FFF0
FFF0
E070
E070
E070
E070
E070
FFF0
FFF0
ENDCHAR
STARTCHAR 0037
ENCODING 55
SWIDTH 585 0
DWIDTH 13 0
BBX 12 16 0 -1
BITMAP
FFF0
FFF0
0070
00E0
00E0
01C0
01C0
03C0
0380
0380
0700
0700
0F00
0E00
0E00
1C00
ENDCHAR
STARTCHAR 0038
ENCODING 56
SWIDTH 630 0
DWIDTH 14 0
BBX 12 16 1 -1
BITMAP
FFF0
FFF0
E070
E070
E070
E070
E070
7FE0
FFF0
E070
E070
E070
E070
E070
FFF0
FFE0
ENDCHAR
STARTCHAR 0039
ENCODING 57
SWIDTH 630 0
DWIDTH 14 0
BBX 12 16 1 -1
BITMAP
FFF0
FFF0
E070
E070
E070
E070
E070
E070
FFF0
7FF0
0070
0070
0070
0070
FFF0
FFF0
ENDCHAR
STARTCHAR 003A
ENCODING 58
SWIDTH 270 0
DWIDTH 6 0
BBX 4 14 1 -1
BITMAP
60
F0
F0
60
00
00
00
00
00
00
60
F0
F0
60
ENDCHAR
STARTCHAR 003B
ENCODING 59
SWIDTH 270 0
DWIDTH 6 0
BBX 4 14 1 -1
BITMAP
60
F0
F0
60
00
00
00
00
00
70
70
F0
E0
C0
ENDCHAR
STARTCHAR 003C
ENCODING 60
SWIDTH 405 0
DWIDTH 9 0
BBX 8 11 1 2
BITMAP
0F
1E
3C
78
F0
E0
F0
78
3C
1E
0F
ENDCHAR
STARTCHAR 003D
ENCODING 61
SWIDTH 810 0
DWIDTH 18 0
BBX 16 9 1 4
BITMAP
FFFF
FFFF
0000
0000
0000
0000
0000
FFFF
FFFF
ENDCHAR
STARTCHAR 003E
ENCODING 62
SWIDTH 405 0
DWIDTH 9 0
BBX 8 11 1 3
BITMAP
F0
78
3C
1E
0F
0F
1E
1E
3C
78
F0
ENDCHAR
STARTCHAR 003F
ENCODING 63
SWIDTH 630 0
DWIDTH 14 0
BBX 12 18 1 -1
BITMAP
FFF0
FFF0
E070
E070
0070
0070
0070
07F0
0FF0
0E00
0E00
0E00
0E00
0000
0E00
1E00
1E00
0E00
ENDCHAR
STARTCHAR 0040
ENCODING 64
SWIDTH 945 0
DWIDTH 21 0
BBX 19 16 1 0
BITMAP
7FFFC0
FFFFC0
E001C0
E7F9C0
E7FDC0
E01DC0
E3FDC0
E7FDC0
E71DC0
E71DC0
E7FFC0
E7FFC0
E00000
E00000
FFFFE0
3FFFE0
ENDCHAR
STARTCHAR 0041
ENCODING 65
SWIDTH 810 0
DWIDTH 18 0
BBX 17 16 1 -2
BITMAP
03C000
07E000
07E000
0FE000
0E7000
0E7000
1E3800
1C3800
3C3C00
381C00
3FFC00
7FFE00
700E00
F00F00
E00700
E00780
ENDCHAR
STARTCHAR 0042
ENCODING 66
SWIDTH 765 0
DWIDTH 17 0
BBX 15 17 1 -1
BITMAP
E000
FFFE
FFFE
E00E
E00E
E00E
E00E
E00E
FFFC
FFFE
E00E
E00E
E00E
E00E
E00E
FFFE
FFFE
ENDCHAR
STARTCHAR 0043
ENCODING 67
SWIDTH 765 0
DWIDTH 17 0
BBX 15 16 1 -1
BITMAP
FFFE
FFFE
E000
E000
E000
E000
E000
E000
E000
E000
E000
E000
E000
E000
FFFE
FFFE
ENDCHAR
STARTCHAR 0044
ENCODING 68
SWIDTH 765 0
DWIDTH 17 0
BBX 15 17 1 -1
BITMAP
E000
FFFE
FFFE
E00E
E00E
E00E
E00E
E00E
E00E
E00E
E00E
E00E
E00E
E00E
E00E
FFFE
FFFE
ENDCHAR
STARTCHAR 0045
ENCODING 69
SWIDTH 765 0
DWIDTH 17 0
BBX 15 16 1 -1
BITMAP
FFFE
FFFE
E000
E000
E000
E000
E000
FFFE
FFFE
E000
E000
E000
E000
E000
FFFE
FFFE
ENDCHAR
STARTCHAR 0046
ENCODING 70
SWIDTH 765 0
DWIDTH 17 0
BBX 15 17 1 -2
BITMAP
E000
FFFE
FFFE
E000
E000
E000
E000
E000
FFFE
FFFE
E000
E000
E000
E000
E000
E000
E000
ENDCHAR
STARTCHAR 0047
ENCODING 71
SWIDTH 765 0
DWIDTH 17 0
BBX 15 16 1 -1
BITMAP
FFFE
FFFE
E000
E000
E000
E000
E000
E3FC
E3FE
E00E
E00E
E00E
E00E
E00E
FFFE
FFFE
ENDCHAR
STARTCHAR 0048
ENCODING 72
SWIDTH 765 0
DWIDTH 17 0
BBX 15 16 1 -2
BITMAP
E00E
E00E
E00E
E00E
E00E
E00E
E00E
FFFE
FFFE
E00E
E00E
E00E
E00E
E00E
E00E
E00E
ENDCHAR
STARTCHAR 0049
ENCODING 73
SWIDTH 585 0
DWIDTH 13 0
BBX 11 16 1 -1
BITMAP
FFE0
FFE0
0E00
0E00
0E00
0E00
0E00
0E00
0E00
0E00
0E00
0E00
0E00
0E00
FFE0
FFE0
ENDCHAR
STARTCHAR 004A
ENCODING 74
SWIDTH 630 0
DWIDTH 14 0
BBX 13 16 1 -1
BITMAP
FFF8
FFF8
0700
0700
0700
0700
0700
0700
0700
0700
0700
0700
0700
0700
FF00
FF00
ENDCHAR
STARTCHAR 004B
ENCODING 75
SWIDTH 720 0
DWIDTH 16 0
BBX 14 17 1 -2
BITMAP
E000
E000
E01C
E038
E060
E1C0
E380
E780
FFC0
F9E0
E0E0
E0F0
E078
E03C
E01C
E00C
0008
ENDCHAR
STARTCHAR 004C
ENCODING 76
SWIDTH 630 0
DWIDTH 14 0
BBX 13 16 1 -1
BITMAP
E000
E000
E000
E000
E000
E000
E000
E000
E000
E000
E000
E000
E000
E000
FFF8
FFF8
ENDCHAR
STARTCHAR 004D
ENCODING 77
SWIDTH 855 0
DWIDTH 19 0
BBX 17 16 1 -2
BITMAP
F80F80
F80F80
F80F80
FC1F80
FC1F80
EC1F80
EE1B80
EE3B80
E63B80
E73380
E77380
E37380
E3F380
E3E380
E1E380
E00380
ENDCHAR
STARTCHAR 004E
ENCODING 78
SWIDTH 765 0
DWIDTH 17 0
BBX 15 16 1 -2
BITMAP
E00E
F00E
F00E
F80E
FC0E
EE0E
E70E
E70E
E38E
E1CE
E0EE
E07E
E07E
E03E
E01E
E00E
ENDCHAR
STARTCHAR 004F
ENCODING 79
SWIDTH 765 0
DWIDTH 17 0
BBX 15 16 1 -1
BITMAP
FFFE
FFFE
E00E
E00E
E00E
E00E
E00E
E00E
E00E
E00E
E00E
E00E
E00E
E00E
FFFE
FFFE
ENDCHAR
STARTCHAR 0050
ENCODING 80
SWIDTH 720 0
DWIDTH 16 0
BBX 15 16 1 -1
BITMAP
FFFE
FFFE
E00E
E00E
E00E
E00E
E00E
E00E
FFFE
FFFC
E000
E000
E000
E000
E000
C000
ENDCHAR
STARTCHAR 0051
ENCODING 81
SWIDTH 765 0
DWIDTH 17 0
BBX 15 18 1 -3
BITMAP
FFFE
FFFE
E00E
E00E
E00E
E00E
E00E
E00E
E00E
E00E
E00E
E00E
E00E
E38E
FFFE
FFFE
00E0
0030
ENDCHAR
STARTCHAR 0052
ENCODING 82
SWIDTH 765 0
DWIDTH 17 0
BBX 15 16 1 -2
BITMAP
FFFE
FFFE
E00E
E00E
E00E
E00E
E00E
FFFE
FFFE
E0F0
E078
E03C
E01E
E01E
E00E
C004
ENDCHAR
STARTCHAR 0053
ENCODING 83
SWIDTH 765 0
DWIDTH 17 0
BBX 15 16 1 -1
BITMAP
FFFE
FFFE
E000
E000
E000
E000
E000
FFFC
FFFE
000E
000E
000E
000E
000E
FFFE
FFFE
ENDCHAR
STARTCHAR 0054
ENCODING 84
SWIDTH 675 0
DWIDTH 15 0
BBX 15 16 0 -2
BITMAP
FFFE
FFFE
0380
0380
0380
0380
0380
0380
0380
0380
0380
0380
0380
0380
0380
0300
ENDCHAR
STARTCHAR 0055
ENCODING 85
SWIDTH 765 0
DWIDTH 17 0
BBX 15 16 1 -1
BITMAP
E00E
E00E
E00E
E00E
E00E
E00E
E00E
E00E
E00E
E00E
E00E
E00E
E00E
E00E
FFFE
FFFE
ENDCHAR
STARTCHAR 0056
ENCODING 86
SWIDTH 765 0
DWIDTH 17 0
BBX 16 16 1 -1
BITMAP
E00F
E00E
F00E
701C
701C
783C
3838
3838
1C70
1C70
1CF0
0EE0
0EE0
0FC0
07C0
0780
ENDCHAR
STARTCHAR 0057
ENCODING 87
SWIDTH 1080 0
DWIDTH 24 0
BBX 22 16 1 -1
BITMAP
E0781C
E0781C
F0783C
707838
70FC38
70FC38
78FC70
38DC70
38CC70
3DCCF0
1DCEE0
1DCEE0
1D8FE0
1F8FC0
0F87C0
0F0780
ENDCHAR
STARTCHAR 0058
ENCODING 88
SWIDTH 810 0
DWIDTH 18 0
BBX 16 16 1 -2
BITMAP
701E
781C
3C3C
1E78
0EF0
07E0
07C0
03C0
07C0
07E0
0EF0
1E78
3C38
781C
701E
F00F
ENDCHAR
STARTCHAR 0059
ENCODING 89
SWIDTH 765 0
DWIDTH 17 0
BBX 15 16 1 -2
BITMAP
F00E
701C
383C
1C78
1EF0
0FE0
07E0
03C0
0380
0380
0380
0380
0380
0380
0380
0380
ENDCHAR
STARTCHAR 005A
ENCODING 90
SWIDTH 765 0
DWIDTH 17 0
BBX 15 16 1 -1
BITMAP
FFFC
FFFC
003C
0078
00F0
01E0
03E0
07C0
0F80
0F00
1E00
3C00
7800
F000
FFFE
FFFE
ENDCHAR
STARTCHAR 005B
ENCODING 91
SWIDTH 360 0
DWIDTH 8 0
BBX 6 18 1 -1
BITMAP
7C
FC
E0
E0
E0
E0
E0
E0
E0
E0
E0
E0
E0
E0
E0
E0
FC
FC
ENDCHAR
STARTCHAR 005C
ENCODING 92
SWIDTH 405 0
DWIDTH 9 0
BBX 9 18 0 -2
BITMAP
F000
7000
7000
7800
3800
3800
3C00
1C00
1C00
1E00
1E00
0E00
0F00
0F00
0700
0780
0700
0200
ENDCHAR
STARTCHAR 005D
ENCODING 93
SWIDTH 315 0
DWIDTH 7 0
BBX 6 18 0 -1
BITMAP
FC
FC
1C
1C
1C
1C
1C
1C
1C
1C
1C
1C
1C
1C
1C
1C
FC
FC
ENDCHAR
STARTCHAR 005E
ENCODING 94
SWIDTH 540 0
DWIDTH 12 0
BBX 10 6 1 14
BITMAP
1C00
1E00
3F00
7700
7380
E1C0
ENDCHAR
STARTCHAR 005F
ENCODING 95
SWIDTH 810 0
DWIDTH 18 0
BBX 16 2 1 2
BITMAP
FFFF
FFFF
ENDCHAR
STARTCHAR 0060
ENCODING 96
SWIDTH 270 0
DWIDTH 6 0
BBX 4 5 1 13
BITMAP
C0
60
70
70
70
ENDCHAR
STARTCHAR 0061
ENCODING 97
SWIDTH 675 0
DWIDTH 15 0
BBX 13 12 1 -1
BITMAP
FFF0
FFF0
0070
0070
FFF0
FFF0
E070
E070
E070
E070
FFF8
FFF8
ENDCHAR
STARTCHAR 0062
ENCODING 98
SWIDTH 585 0
DWIDTH 13 0
BBX 12 17 1 -1
BITMAP
E000
E000
E000
E000
E000
FFF0
FFF0
E070
E070
E070
E070
E070
E070
E070
E070
FFF0
FFE0
ENDCHAR
STARTCHAR 0063
ENCODING 99
SWIDTH 630 0
DWIDTH 14 0
BBX 12 12 1 -1
BITMAP
7FF0
FFF0
E000
E000
E000
E000
E000
E000
E000
E000
FFF0
FFF0
ENDCHAR
STARTCHAR 0064
ENCODING 100
SWIDTH 630 0
DWIDTH 14 0
BBX 12 17 1 -1
BITMAP
00E0
00E0
00E0
00E0
00E0
FFE0
FFE0
E0E0
E0E0
E0E0
E0E0
E0E0
E0E0
E0E0
E0E0
FFF0
7FF0
ENDCHAR
STARTCHAR 0065
ENCODING 101
SWIDTH 630 0
DWIDTH 14 0
BBX 12 12 1 -1
BITMAP
7FF0
FFF0
E070
E070
E070
FFF0
FFE0
E000
E000
E000
FFF0
7FF0
ENDCHAR
STARTCHAR 0066
ENCODING 102
SWIDTH 405 0
DWIDTH 9 0
BBX 9 16 0 -1
BITMAP
1F80
1F80
1C00
1C00
1C00
FF80
FF80
1C00
1C00
1C00
1C00
1C00
1C00
1C00
1C00
1C00
ENDCHAR
STARTCHAR 0067
ENCODING 103
SWIDTH 630 0
DWIDTH 14 0
BBX 12 17 1 -6
BITMAP
FFE0
FFF0
E070
E070
E070
E070
E070
E070
E070
FFF0
7FF0
0070
0070
0070
0070
FFF0
FFE0
ENDCHAR
STARTCHAR 0068
ENCODING 104
SWIDTH 585 0
DWIDTH 13 0
BBX 12 17 1 -1
BITMAP
E000
E000
E000
E000
E000
FFF0
FFF0
E070
E070
E070
E070
E070
E070
E070
E070
E070
8000
ENDCHAR
STARTCHAR 0069
ENCODING 105
SWIDTH 225 0
DWIDTH 5 0
BBX 3 17 1 -1
BITMAP
60
E0
E0
60
00
E0
E0
E0
E0
E0
E0
E0
E0
E0
E0
E0
C0
ENDCHAR
STARTCHAR 006A
ENCODING 106
SWIDTH 360 0
DWIDTH 8 0
BBX 6 22 1 -6
BITMAP
0C
1C
1C
0C
00
1C
1C
1C
1C
1C
1C
1C
1C
1C
1C
1C
1C
1C
1C
1C
FC
FC
ENDCHAR
STARTCHAR 006B
ENCODING 107
SWIDTH 630 0
DWIDTH 14 0
BBX 12 17 1 -2
BITMAP
E000
E000
E000
E000
E000
E020
E0F0
E1C0
E700
FF80
FF80
E3C0
E1E0
E1E0
E0F0
E070
C060
ENDCHAR
STARTCHAR 006C
ENCODING 108
SWIDTH 225 0
DWIDTH 5 0
BBX 3 17 1 -1
BITMAP
E0
E0
E0
E0
E0
E0
E0
E0
E0
E0
E0
E0
E0
E0
E0
E0
C0
ENDCHAR
STARTCHAR 006D
ENCODING 109
SWIDTH 855 0
DWIDTH 19 0
BBX 17 12 1 0
BITMAP
FF7F80
FFFF80
E1C380
E1C380
E1C380
E1C380
E1C380
E1C380
E1C380
E1C380
E1C380
810200
ENDCHAR
STARTCHAR 006E
ENCODING 110
SWIDTH 630 0
DWIDTH 14 0
BBX 12 13 1 0
BITMAP
E000
FFF0
FFF0
E070
E070
E070
E070
E070
E070
E070
E070
E070
8040
ENDCHAR
STARTCHAR 006F
ENCODING 111
SWIDTH 630 0
DWIDTH 14 0
BBX 12 12 1 -1
BITMAP
7FE0
FFF0
E070
E070
E070
E070
E070
E070
E070
E070
FFF0
7FE0
ENDCHAR
STARTCHAR 0070
ENCODING 112
SWIDTH 585 0
DWIDTH 13 0
BBX 12 17 1 -6
BITMAP
FFF0
FFF0
E070
E070
E070
E070
E070
E070
E070
FFF0
FFE0
E000
E000
E000
E000
E000
E000
ENDCHAR
STARTCHAR 0071
ENCODING 113
SWIDTH 585 0
DWIDTH 13 0
BBX 12 17 0 -7
BITMAP
FFF0
FFF0
E070
E070
E070
E070
E070
E070
E070
FFF0
7FF0
0070
0070
0070
0070
0070
0060
ENDCHAR
STARTCHAR 0072
ENCODING 114
SWIDTH 495 0
DWIDTH 11 0
BBX 10 12 1 -1
BITMAP
E000
E1C0
EFC0
FE00
E000
E000
E000
E000
E000
E000
E000
C000
ENDCHAR
STARTCHAR 0073
ENCODING 115
SWIDTH 585 0
DWIDTH 13 0
BBX 11 12 1 -1
BITMAP
FFE0
FFE0
E000
E000
E000
FFE0
FFE0
00E0
00E0
00E0
FFE0
FFE0
ENDCHAR
STARTCHAR 0074
ENCODING 116
SWIDTH 405 0
DWIDTH 9 0
BBX 9 16 0 -1
BITMAP
1C00
1C00
1C00
1C00
FF80
FF80
1C00
1C00
1C00
1C00
1C00
1C00
1C00
1C00
1F80
1F80
ENDCHAR
STARTCHAR 0075
ENCODING 117
SWIDTH 675 0
DWIDTH 15 0
BBX 13 12 1 -1
BITMAP
E070
E070
E070
E070
E070
E070
E070
E070
E070
E070
FFF8
FFF8
ENDCHAR
STARTCHAR 0076
ENCODING 118
SWIDTH 630 0
DWIDTH 14 0
BBX 12 12 1 -1
BITMAP
E070
E070
F0F0
70E0
70E0
79C0
39C0
3BC0
3F80
1F80
1F80
1F00
ENDCHAR
STARTCHAR 0077
ENCODING 119
SWIDTH 900 0
DWIDTH 20 0
BBX 19 12 1 -1
BITMAP
E0E1E0
E1E1C0
F1E1C0
71E1C0
71F380
73F380
7BF380
3B3700
3B3F00
3F3F00
3F1E00
1E1E00
ENDCHAR
STARTCHAR 0078
ENCODING 120
SWIDTH 630 0
DWIDTH 14 0
BBX 12 12 1 -1
BITMAP
F070
70E0
39C0
1FC0
0F80
0F00
0F80
1FC0
39C0
78E0
F070
E070
ENDCHAR
STARTCHAR 0079
ENCODING 121
SWIDTH 630 0
DWIDTH 14 0
BBX 12 17 1 -6
BITMAP
E070
F0F0
70E0
71E0
39C0
3BC0
3F80
1F80
1F00
0F00
0E00
0E00
1C00
1C00
3C00
3800
7000
ENDCHAR
STARTCHAR 007A
ENCODING 122
SWIDTH 630 0
DWIDTH 14 0
BBX 12 12 1 -1
BITMAP
FFF0
FFF0
01E0
03C0
0780
0F00
1E00
3C00
7800
F000
FFF0
FFF0
ENDCHAR
STARTCHAR 007B
ENCODING 123
SWIDTH 405 0
DWIDTH 9 0
BBX 8 18 0 -1
BITMAP
0F
1F
1C
1C
1C
1C
1C
3C
F8
F8
1C
1C
1C
1C
1C
1C
1F
0F
ENDCHAR
STARTCHAR 007C
ENCODING 124
SWIDTH 225 0
DWIDTH 5 0
BBX 3 18 1 -2
BITMAP
E0
E0
E0
E0
E0
E0
E0
E0
E0
E0
E0
E0
E0
E0
E0
E0
E0
C0
ENDCHAR
STARTCHAR 007D
ENCODING 125
SWIDTH 405 0
DWIDTH 9 0
BBX 8 18 1 -1
BITMAP
F8
F8
38
38
38
38
38
3C
1F
1F
3C
38
38
38
38
38
F8
F0
ENDCHAR
STARTCHAR 007E
ENCODING 126
SWIDTH 540 0
DWIDTH 12 0
BBX 12 4 0 7
BITMAP
3C00
7F10
CFE0
01C0
ENDCHAR
STARTCHAR 00A5
ENCODING 165
SWIDTH 675 0
DWIDTH 15 0
BBX 14 17 1 -1
BITMAP
F038
7878
3C70
1EE0
1FE0
0FC0
FFFC
FFFC
0380
0380
FFFC
FFFC
0380
0380
0380
0380
0380
ENDCHAR
STARTCHAR 00A9
ENCODING 169
SWIDTH 990 0
DWIDTH 22 0
BBX 20 18 1 -1
BITMAP
7FFFE0
FFFFF0
E00070
E00070
E3FC70
E7FC70
E70070
E70070
E70070
E70070
E70070
E70070
E7FC70
E7FC70
E00070
E00070
FFFFF0
FFFFE0
ENDCHAR
STARTCHAR 00B0
ENCODING 176
SWIDTH 315 0
DWIDTH 7 0
BBX 5 5 1 13
BITMAP
F8
F8
D8
F8
F8
ENDCHAR
STARTCHAR 00B7
ENCODING 183
SWIDTH 990 0
DWIDTH 22 0
BBX 4 4 9 6
BITMAP
60
F0
F0
60
ENDCHAR
STARTCHAR 2014
ENCODING 8212
SWIDTH 990 0
DWIDTH 22 0
BBX 19 2 1 8
BITMAP
FFFFE0
FFFFE0
ENDCHAR
STARTCHAR 2018
ENCODING 8216
SWIDTH 945 0
DWIDTH 21 0
BBX 4 5 16 13
BITMAP
30
70
E0
E0
E0
ENDCHAR
STARTCHAR 2019
ENCODING 8217
SWIDTH 990 0
DWIDTH 22 0
BBX 4 5 1 13
BITMAP
70
70
70
70
C0
ENDCHAR
STARTCHAR 201C
ENCODING 8220
SWIDTH 990 0
DWIDTH 22 0
BBX 8 5 12 13
BITMAP
33
77
FE
EE
EE
ENDCHAR
STARTCHAR 201D
ENCODING 8221
SWIDTH 990 0
DWIDTH 22 0
BBX 8 5 1 13
BITMAP
77
77
77
77
CC
ENDCHAR
STARTCHAR 2022
ENCODING 8226
SWIDTH 990 0
DWIDTH 22 0
BBX 4 4 9 6
BITMAP
60
F0
F0
60
ENDCHAR
STARTCHAR 2026
ENCODING 8230
SWIDTH 900 0
DWIDTH 20 0
BBX 20 4 0 7
BITMAP
606060
F0F0F0
F0F0F0
606060
ENDCHAR
STARTCHAR 205D
ENCODING 8285
SWIDTH 990 0
DWIDTH 22 0
BBX 4 18 9 -1
BITMAP
60
F0
F0
60
00
00
00
60
F0
F0
60
00
00
00
60
F0
F0
60
ENDCHAR
STARTCHAR 20AC
ENCODING 8364
SWIDTH 855 0
DWIDTH 19 0
BBX 18 18 0 -1
BITMAP
03FF80
07FFC0
0701C0
0701C0
070000
070000
FFFFC0
FFFFC0
070000
070000
070000
FFFFC0
FFFFC0
070000
0701C0
0701C0
07FFC0
07FFC0
ENDCHAR
STARTCHAR 2122
ENCODING 8482
SWIDTH 1035 0
DWIDTH 23 0
BBX 21 9 1 8
BITMAP
FF78F0
FF78F8
387CF8
387CF8
387DF8
3877B8
3877B8
3877B8
306030
ENDCHAR
STARTCHAR 22EF
ENCODING 8943
SWIDTH 900 0
DWIDTH 20 0
BBX 20 4 0 7
BITMAP
606060
F0F0F0
F0F0F0
606060
ENDCHAR
STARTCHAR 2F00
ENCODING 12032
SWIDTH 990 0
DWIDTH 22 0
BBX 20 2 1 7
BITMAP
FFFFF0
FFFFF0
ENDCHAR
STARTCHAR 2F01
ENCODING 12033
SWIDTH 945 0
DWIDTH 21 0
BBX 3 18 9 -2
BITMAP
E0
E0
E0
E0
E0
E0
E0
E0
E0
E0
E0
E0
E0
E0
E0
E0
E0
E0
ENDCHAR
STARTCHAR 2F02
ENCODING 12034
SWIDTH 990 0
DWIDTH 22 0
BBX 6 5 8 5
BITMAP
C0
78
3C
1C
18
ENDCHAR
STARTCHAR 2F03
ENCODING 12035
SWIDTH 945 0
DWIDTH 21 0
BBX 5 18 8 -1
BITMAP
38
38
38
38
38
38
38
38
38
38
38
38
38
78
70
70
60
80
ENDCHAR
STARTCHAR 2F04
ENCODING 12036
SWIDTH 990 0
DWIDTH 22 0
BBX 18 16 2 -1
BITMAP
FFFF00
FFFF00
001F00
003E00
007C00
00F800
01F000
03E000
07C000
0F8000
1F0000
3E0000
7C0000
FFFFC0
FFFFC0
FFFFC0
ENDCHAR
STARTCHAR 2F06
ENCODING 12038
SWIDTH 945 0
DWIDTH 21 0
BBX 19 14 1 1
BITMAP
7FFF80
7FFF80
000000
000000
000000
000000
000000
000000
000000
000000
000000
000000
FFFFE0
FFFFE0
ENDCHAR
STARTCHAR 2F07
ENCODING 12039
SWIDTH 990 0
DWIDTH 22 0
BBX 20 6 1 12
BITMAP
006000
00E000
00E000
006000
FFFFF0
FFFFF0
ENDCHAR
STARTCHAR 2F08
ENCODING 12040
SWIDTH 990 0
DWIDTH 22 0
BBX 18 18 2 -1
BITMAP
01C000
01C000
01C000
01C000
01C000
01C000
01C000
01E000
01E000
03E000
03F000
03B000
07B800
071E00
0F1F00
1E0FC0
380780
E00300
ENDCHAR
STARTCHAR 2F09
ENCODING 12041
SWIDTH 945 0
DWIDTH 21 0
BBX 20 17 1 -1
BITMAP
1C1C00
1C1C00
1C1C00
1C1C00
1C1C00
1C1C00
1C1C00
1C1C00
1C1C00
1C1C00
1C1C00
1C1C00
3C1C00
381C00
381FF0
701FE0
E01FE0
ENDCHAR
STARTCHAR 2F0A
ENCODING 12042
SWIDTH 990 0
DWIDTH 22 0
BBX 19 18 2 -1
BITMAP
010000
008000
008000
008000
00C000
00C000
01E000
01E000
01F000
03F800
03F800
07BC00
07BE00
0F1F00
1E1FC0
3C0FE0
7807C0
C00380
ENDCHAR
STARTCHAR 2F0B
ENCODING 12043
SWIDTH 990 0
DWIDTH 22 0
BBX 20 18 1 0
BITMAP
002000
001000
001000
071000
079000
079800
079800
079C00
0F1C00
0F1E00
0F0E00
1E0F00
1E0F80
1C0780
3807C0
3803F0
6003E0
800180
ENDCHAR
STARTCHAR 2F0C
ENCODING 12044
SWIDTH 990 0
DWIDTH 22 0
BBX 18 18 2 -1
BITMAP
E00000
FFFFC0
FFFFC0
E001C0
E001C0
E001C0
E001C0
E001C0
E001C0
E001C0
E001C0
E001C0
E001C0
E001C0
E001C0
E001C0
E003C0
C003C0
ENDCHAR
STARTCHAR 2F0D
ENCODING 12045
SWIDTH 990 0
DWIDTH 22 0
BBX 18 5 2 12
BITMAP
FFFFC0
FFFFC0
E001C0
E001C0
800000
ENDCHAR
STARTCHAR 2F0E
ENCODING 12046
SWIDTH 945 0
DWIDTH 21 0
BBX 4 15 1 0
BITMAP
60
E0
E0
60
00
00
00
00
10
30
70
60
E0
E0
40
ENDCHAR
STARTCHAR 2F0F
ENCODING 12047
SWIDTH 945 0
DWIDTH 21 0
BBX 20 17 1 -2
BITMAP
1C0000
1FFF00
1FFF00
1C0700
1C0700
1C0700
1C0700
1C0700
1C0700
1C0700
1C0700
1C0700
380700
380700
3007F0
7007E0
C007E0
ENDCHAR
STARTCHAR 2F10
ENCODING 12048
SWIDTH 990 0
DWIDTH 22 0
BBX 18 15 2 -1
BITMAP
E001C0
E001C0
E001C0
E001C0
E001C0
E001C0
E001C0
E001C0
E001C0
E001C0
E001C0
E001C0
E001C0
FFFFC0
FFFFC0
ENDCHAR
STARTCHAR 2F11
ENCODING 12049
SWIDTH 990 0
DWIDTH 22 0
BBX 17 16 3 -1
BITMAP
FFFF80
FFFF80
0E0380
0E0380
0E0380
0E0380
0E0380
0E0380
1E0380
1E0380
1C0380
3C0380
380380
780380
601F80
C01F80
ENDCHAR
STARTCHAR 2F12
ENCODING 12050
SWIDTH 945 0
DWIDTH 21 0
BBX 17 18 2 -1
BITMAP
0E0000
0E0000
0E0000
0E0000
FFFF80
FFFF80
0E0380
0E0380
0E0380
0E0380
0E0380
1E0380
1C0380
1C0380
380380
380380
701F80
C01F80
ENDCHAR
STARTCHAR 2F13
ENCODING 12051
SWIDTH 945 0
DWIDTH 21 0
BBX 17 18 2 -1
BITMAP
380000
3C0000
3C0000
3FFF80
3FFF80
780380
700380
600380
C00380
000380
000380
000380
000380
000380
000380
000380
001F80
001F80
ENDCHAR
STARTCHAR 2F14
ENCODING 12052
SWIDTH 990 0
DWIDTH 22 0
BBX 16 17 3 -1
BITMAP
E000
E000
E018
E03C
E07E
E0FC
E1F8
E7F0
FF80
E000
E000
E000
E000
E000
FFFF
FFFF
FFFE
ENDCHAR
STARTCHAR 2F15
ENCODING 12053
SWIDTH 990 0
DWIDTH 22 0
BBX 18 17 2 -1
BITMAP
FFFFC0
FFFFC0
E00000
E00000
E00000
E00000
E00000
E00000
E00000
E00000
E00000
E00000
E00000
E00000
E00000
FFFFC0
FFFFC0
ENDCHAR
STARTCHAR 2F17
ENCODING 12055
SWIDTH 945 0
DWIDTH 21 0
BBX 19 18 1 -1
BITMAP
00E000
00E000
00E000
00E000
00E000
00E000
00E000
FFFFE0
FFFFE0
00E000
00E000
00E000
00E000
00E000
00E000
00E000
00E000
00C000
ENDCHAR
STARTCHAR 2F18
ENCODING 12056
SWIDTH 990 0
DWIDTH 22 0
BBX 11 18 5 -1
BITMAP
E000
E000
E000
E000
E000
E000
E600
E3C0
E1E0
E1E0
E0E0
E040
E000
E000
E000
E000
E000
8000
ENDCHAR
STARTCHAR 2F19
ENCODING 12057
SWIDTH 990 0
DWIDTH 22 0
BBX 8 18 13 -2
BITMAP
E0
FF
FF
E7
E7
E7
E7
E7
E7
E7
E7
E7
E7
EF
EF
E0
E0
C0
ENDCHAR
STARTCHAR 2F1A
ENCODING 12058
SWIDTH 990 0
DWIDTH 22 0
BBX 18 17 2 -2
BITMAP
7FFFC0
7FFFC0
700000
700000
700000
700000
700000
700000
700000
700000
700000
700000
700000
700000
E00000
C00000
800000
ENDCHAR
STARTCHAR 2F1B
ENCODING 12059
SWIDTH 990 0
DWIDTH 22 0
BBX 19 17 1 -1
BITMAP
008000
01F000
01F000
01F000
01E000
03E000
03C000
07C000
078400
070700
0F0380
1C03C0
19FFE0
FFFDE0
7FF1E0
7F80C0
380000
ENDCHAR
STARTCHAR 2F1C
ENCODING 12060
SWIDTH 990 0
DWIDTH 22 0
BBX 18 17 2 -2
BITMAP
7FFF00
7FFF00
100F00
101F00
101F00
181E00
0C3E00
0C3E00
0E7C00
077800
07F800
03F000
03FC00
07FFC0
1F3FC0
780F80
800000
ENDCHAR
STARTCHAR 2F1D
ENCODING 12061
SWIDTH 945 0
DWIDTH 21 0
BBX 17 16 2 -1
BITMAP
E00000
FFFF80
FFFF80
E00380
E00380
E00380
E00380
E00380
E00380
E00380
E00380
E00380
E00380
FFF700
FFF700
000C00
ENDCHAR
STARTCHAR 2F1E
ENCODING 12062
SWIDTH 990 0
DWIDTH 22 0
BBX 18 18 2 -3
BITMAP
FFFFC0
FFFFC0
E001C0
E001C0
E001C0
E001C0
E001C0
E001C0
E001C0
E001C0
E001C0
E001C0
E001C0
E001C0
E001C0
FFFBC0
FFFB80
000300
ENDCHAR
STARTCHAR 2F1F
ENCODING 12063
SWIDTH 945 0
DWIDTH 21 0
BBX 19 17 1 0
BITMAP
00E000
00E000
00E000
00E000
00E000
00E000
3FFFC0
3FFFC0
00E000
00E000
00E000
00E000
00E000
00E000
00E000
FFFFE0
FFFFE0
ENDCHAR
STARTCHAR 2F20
ENCODING 12064
SWIDTH 945 0
DWIDTH 21 0
BBX 19 17 1 -1
BITMAP
00E000
00E000
00E000
00E000
00E000
FFFFE0
FFFFE0
00E000
00E000
00E000
00E000
00E000
00E000
00E000
00E000
7FFFE0
7FFFE0
ENDCHAR
STARTCHAR 2F21
ENCODING 12065
SWIDTH 990 0
DWIDTH 22 0
BBX 17 18 3 0
BITMAP
1C0000
3E0000
3E0000
3FFE00
3FFE00
381E00
783E00
683C00
CC7C00
0E7800
07F800
07F000
03E000
07FC00
0FFF80
1F7F80
3C1F80
E00700
ENDCHAR
STARTCHAR 2F23
ENCODING 12067
SWIDTH 990 0
DWIDTH 22 0
BBX 18 18 2 0
BITMAP
0F0000
0F8000
0F0000
0FFFC0
0FFFC0
1E07C0
1C07C0
3D8780
3BCF80
63CF00
019F00
003E00
007C00
00F800
01F000
07E000
1F8000
F00000
ENDCHAR
STARTCHAR 2F24
ENCODING 12068
SWIDTH 990 0
DWIDTH 22 0
BBX 18 18 2 -1
BITMAP
01C000
01C000
01C000
01C000
01C000
01C000
FFFFC0
FFFFC0
01E000
03E000
03F000
03B800
07BC00
071E00
0F1F80
1E0FC0
380780
E00300
ENDCHAR
STARTCHAR 2F25
ENCODING 12069
SWIDTH 990 0
DWIDTH 22 0
BBX 19 18 2 -1
BITMAP
038000
078000
070000
070000
FFFFE0
FFFFE0
0E0F00
1E0F00
1E0E00
3C1E00
3C3C00
1FFC00
07FC00
00FF80
03FFC0
07CFC0
3F0380
FC0180
ENDCHAR
STARTCHAR 2F26
ENCODING 12070
SWIDTH 990 0
DWIDTH 22 0
BBX 20 18 1 0
BITMAP
000180
3FFFE0
3FFFC0
0007C0
000F80
001F00
003C00
00F000
00E000
FFFFF0
FFFFF0
00E000
00E000
00E000
00E000
00E000
07E000
03E000
ENDCHAR
STARTCHAR 2F27
ENCODING 12071
SWIDTH 990 0
DWIDTH 22 0
BBX 19 6 1 11
BITMAP
00C000
00E000
FFFFE0
FFFFE0
E000E0
E000C0
ENDCHAR
STARTCHAR 2F28
ENCODING 12072
SWIDTH 1035 0
DWIDTH 23 0
BBX 19 17 2 -1
BITMAP
000E00
000E00
000E00
FFFFE0
FFFFE0
000E00
000E00
0C0E00
1E0E00
1E0E00
0C0E00
000E00
000E00
000E00
008E00
00FE00
007E00
ENDCHAR
STARTCHAR 2F29
ENCODING 12073
SWIDTH 945 0
DWIDTH 21 0
BBX 19 17 1 -1
BITMAP
00E000
00E000
00E000
00E000
00E000
38E400
3CE300
3CE380
3CE3C0
78E1E0
70E1E0
60E1E0
C0E0C0
00E000
00E000
03E000
03E000
ENDCHAR
STARTCHAR 2F2A
ENCODING 12074
SWIDTH 945 0
DWIDTH 21 0
BBX 19 18 1 -1
BITMAP
038000
038000
038000
038000
038000
FFFFE0
FFFFE0
039C00
039C00
079C00
079C00
071C00
071C00
0E1C00
0E1C00
1C1FE0
381FE0
601FC0
ENDCHAR
STARTCHAR 2F2B
ENCODING 12075
SWIDTH 945 0
DWIDTH 21 0
BBX 19 17 1 -1
BITMAP
3FFFE0
3FFFE0
3800E0
3800E0
3800E0
3800E0
3FFFE0
3FFFE0
380000
380000
380000
380000
380000
700000
600000
600000
800000
ENDCHAR
STARTCHAR 2F2C
ENCODING 12076
SWIDTH 945 0
DWIDTH 21 0
BBX 17 19 2 -1
BITMAP
01C000
01C000
01C000
01C000
E1C380
E1C380
E1C380
E1C380
E1C380
E1C380
E1C380
FFFF80
FFFF80
01C380
01C000
01C000
01C000
01C000
010000
ENDCHAR
STARTCHAR 2F2D
ENCODING 12077
SWIDTH 945 0
DWIDTH 21 0
BBX 19 17 1 0
BITMAP
00E000
00E000
00E000
E0E1E0
E0E1E0
E0E1E0
E0E1E0
E0E1E0
E0E1E0
E0E1E0
E0E1E0
E0E1E0
E0E1E0
E0E1E0
E0E1E0
FFFFE0
FFFFE0
ENDCHAR
STARTCHAR 2F2E
ENCODING 12078
SWIDTH 990 0
DWIDTH 22 0
BBX 19 18 1 -1
BITMAP
186100
1E79C0
1E7BC0
3CF3C0
3CF380
38E380
39C700
71C600
638E00
E30C00
718E00
71C700
38E380
3CF3C0
1CF3C0
1E79E0
1E79E0
182080
ENDCHAR
STARTCHAR 2F2F
ENCODING 12079
SWIDTH 945 0
DWIDTH 21 0
BBX 19 16 1 -1
BITMAP
7FFFE0
7FFFE0
00E000
00E000
00E000
00E000
00E000
00E000
00E000
00E000
00E000
00E000
00E000
00E000
FFFFE0
FFFFE0
ENDCHAR
STARTCHAR 2F30
ENCODING 12080
SWIDTH 990 0
DWIDTH 22 0
BBX 18 17 2 -1
BITMAP
FFFF00
FFFF00
000700
000700
000700
000700
000700
FFFF00
FFFE00
E00000
E00000
E00000
E00000
E00000
FFFFC0
FFFF80
FFFF80
ENDCHAR
STARTCHAR 2F31
ENCODING 12081
SWIDTH 990 0
DWIDTH 22 0
BBX 19 18 2 -1
BITMAP
00E000
00E000
00E000
E0E000
FFFFC0
FFFFE0
E0E1E0
E0E1E0
E0E1E0
E0E1E0
E0E1E0
E0E1E0
E0E1E0
E0E7E0
E0E7E0
80E000
00E000
00E000
ENDCHAR
STARTCHAR 2F32
ENCODING 12082
SWIDTH 990 0
DWIDTH 22 0
BBX 20 17 1 -1
BITMAP
7FFFC0
7FFFC0
00E000
00E000
00E000
00E000
00E000
FFFFF0
FFFFF0
00E000
00E000
00E000
00E000
00E000
00E000
00E000
00C000
ENDCHAR
STARTCHAR 2F33
ENCODING 12083
SWIDTH 990 0
DWIDTH 22 0
BBX 18 18 2 -1
BITMAP
018000
03C000
07C000
078000
0F0000
1E0C00
1C1E00
FFFE00
FFFC00
FEF800
01F000
03E400
078700
1E0380
FFFFC0
FFFFC0
FFE3C0
7E0180
ENDCHAR
STARTCHAR 2F34
ENCODING 12084
SWIDTH 945 0
DWIDTH 21 0
BBX 19 18 1 -1
BITMAP
007000
007000
7FFFE0
7FFFE0
700000
700000
700000
700000
700000
700000
700000
700000
700000
700000
700000
E00000
C00000
800000
ENDCHAR
STARTCHAR 2F35
ENCODING 12085
SWIDTH 945 0
DWIDTH 21 0
BBX 21 16 0 -1
BITMAP
7F0000
7F0000
0F0000
1E0000
1C0000
3C0000
7F0000
7F0000
070000
470000
F70000
3F0000
1E0000
1FFFF8
1FFFF0
33FFF0
ENDCHAR
STARTCHAR 2F36
ENCODING 12086
SWIDTH 990 0
DWIDTH 22 0
BBX 20 18 1 -2
BITMAP
0E0380
0E0380
0E0380
0E0380
0E0380
0E0380
0E0380
FFFFF0
FFFFF0
0E0380
0E0380
1E0380
1E0380
1C0380
1C0380
380380
700380
C00300
ENDCHAR
STARTCHAR 2F37
ENCODING 12087
SWIDTH 990 0
DWIDTH 22 0
BBX 20 18 1 -3
BITMAP
078300
03C700
03C700
01E300
01E070
00FFF0
03FF00
FFF000
787800
007800
003C00
003C00
001E00
001E00
000F00
000FE0
0007C0
000700
ENDCHAR
STARTCHAR 2F38
ENCODING 12088
SWIDTH 990 0
DWIDTH 22 0
BBX 18 17 2 -1
BITMAP
FFFF80
FFFF80
000380
000380
FFFF80
FFFF80
E00000
E00000
E00000
FFFF80
FFFFC0
0001C0
0001C0
0001C0
0001C0
001FC0
001FC0
ENDCHAR
STARTCHAR 2F39
ENCODING 12089
SWIDTH 945 0
DWIDTH 21 0
BBX 17 16 2 0
BITMAP
FFFF80
FFFF80
000380
000380
000380
000380
000380
7FFF80
7FFF80
000380
000380
000380
000380
000380
FFFF80
FFFF80
ENDCHAR
STARTCHAR 2F3A
ENCODING 12090
SWIDTH 990 0
DWIDTH 22 0
BBX 16 18 3 -1
BITMAP
0018
003C
007C
01F8
07E0
3F80
000C
003E
007E
01FC
0FF0
7F80
0006
001F
007F
01FE
0FF8
FF80
ENDCHAR
STARTCHAR 2F3B
ENCODING 12091
SWIDTH 945 0
DWIDTH 21 0
BBX 7 17 1 -1
BITMAP
18
3C
38
78
60
D8
1E
3C
78
F8
38
38
38
38
38
38
38
ENDCHAR
STARTCHAR 2F3C
ENCODING 12092
SWIDTH 990 0
DWIDTH 22 0
BBX 20 17 1 -1
BITMAP
001800
003C00
003C00
039800
038000
7380E0
7380E0
7380E0
7380E0
7380E0
638060
638060
838010
038000
03FF80
03FF80
03FF00
ENDCHAR
STARTCHAR 2F3D
ENCODING 12093
SWIDTH 990 0
DWIDTH 22 0
BBX 20 19 1 -1
BITMAP
0F0600
070E00
078E00
03C600
03C0E0
01FFE0
07FE00
FFF000
F0F000
007870
003FE0
003F00
007E00
03FE00
1F8F00
7C0F60
6007F0
0007C0
000200
ENDCHAR
STARTCHAR 2F3F
ENCODING 12095
SWIDTH 990 0
DWIDTH 22 0
BBX 20 18 1 0
BITMAP
000380
003F80
3FFF80
00E000
00E000
00E000
7FFFC0
7FFFC0
00E000
00E000
00E000
FFFFF0
FFFFF0
00E000
00E000
00E000
03E000
03E000
ENDCHAR
STARTCHAR 2F40
ENCODING 12096
SWIDTH 945 0
DWIDTH 21 0
BBX 19 18 1 0
BITMAP
00E000
00E000
00E000
FFFFE0
FFFFE0
00E000
00E000
7FFF80
7FFF80
180780
0C0F00
0E1F00
079E00
03FC00
03FFE0
03FFE0
1FFFC0
FF0FC0
ENDCHAR
STARTCHAR 2F41
ENCODING 12097
SWIDTH 990 0
DWIDTH 22 0
BBX 19 18 2 -2
BITMAP
00E000
00E000
00FFE0
00FFE0
00E000
00E000
00E000
7FFF80
7FFF80
180780
0C0F00
0E1F00
073E00
07FC00
03FFE0
03FFE0
1FFFC0
FE1F80
ENDCHAR
STARTCHAR 2F42
ENCODING 12098
SWIDTH 990 0
DWIDTH 22 0
BBX 19 19 2 -2
BITMAP
00E000
00E000
00E000
FFFFE0
FFFFE0
100F00
180F00
080F00
0C1E00
0E1E00
073C00
07FC00
03F800
01F000
03FFE0
07FFE0
1F3FC0
7C0F80
800000
ENDCHAR
STARTCHAR 2F43
ENCODING 12099
SWIDTH 945 0
DWIDTH 21 0
BBX 19 17 1 -2
BITMAP
001C00
3F9C00
0F9C00
039C00
019C00
E01C00
7C1C00
1E1C00
1C1C00
081C00
FFFFE0
FFFFE0
001C00
001C00
001C00
001C00
001C00
ENDCHAR
STARTCHAR 2F44
ENCODING 12100
SWIDTH 945 0
DWIDTH 21 0
BBX 19 18 1 -1
BITMAP
000780
383F80
3FFF80
3BFF00
380000
380000
380000
380000
3FFFE0
3FFFE0
380E00
380E00
380E00
380E00
780E00
700E00
600E00
C00C00
ENDCHAR
STARTCHAR 2F45
ENCODING 12101
SWIDTH 945 0
DWIDTH 21 0
BBX 19 19 1 -1
BITMAP
006000
00E000
00E000
006000
FFFFE0
FFFFE0
0E0000
0E0000
0E0000
0FFF00
0FFF80
0E0380
1E0380
1E0380
1C0380
1C0380
380380
381F80
600F80
ENDCHAR
STARTCHAR 2F46
ENCODING 12102
SWIDTH 945 0
DWIDTH 21 0
BBX 19 17 1 -1
BITMAP
7FFFC0
7FFFC0
01C000
01C000
01C000
01C000
FFFFE0
FFFFE0
01C000
03C000
03F800
03F800
07B800
0FB800
0F3FE0
3C3FE0
703FE0
ENDCHAR
STARTCHAR 2F47
ENCODING 12103
SWIDTH 990 0
DWIDTH 22 0
BBX 16 18 3 -3
BITMAP
FFFF
FFFF
E007
E007
E007
E007
E007
E007
FFFF
FFFF
E007
E007
E007
E007
E007
FFEE
FFEE
001C
ENDCHAR
STARTCHAR 2F48
ENCODING 12104
SWIDTH 945 0
DWIDTH 21 0
BBX 17 19 2 -3
BITMAP
E00000
FFFF80
FFFF80
E00380
E00380
E00380
E00380
E00380
E00380
FFE380
FFE380
E00380
E00380
E00380
E00380
E00380
FFF700
FFF700
000C00
ENDCHAR
STARTCHAR 2F49
ENCODING 12105
SWIDTH 945 0
DWIDTH 21 0
BBX 17 18 2 -1
BITMAP
380000
3FFF80
3FFF80
380380
380380
3FFF80
3FFF80
380380
380380
380380
380380
3FFF80
3FFF80
380380
700380
700380
601F80
C01F80
ENDCHAR
STARTCHAR 2F4A
ENCODING 12106
SWIDTH 945 0
DWIDTH 21 0
BBX 19 18 1 -1
BITMAP
00E000
00E000
00E000
00E000
FFFFE0
FFFFE0
1CE700
1CE700
1CE700
1CE700
3CE780
38E380
38E380
70E1C0
E0E0E0
00E000
00E000
008000
ENDCHAR
STARTCHAR 2F4B
ENCODING 12107
SWIDTH 990 0
DWIDTH 22 0
BBX 18 18 2 -1
BITMAP
3C0000
3C0380
3FFFC0
3FFFC0
380380
79C780
71C700
E1C600
C1C000
01E000
01E000
03F000
03F800
07BC00
079F00
0F1FC0
3C0FC0
F00380
ENDCHAR
STARTCHAR 2F4C
ENCODING 12108
SWIDTH 990 0
DWIDTH 22 0
BBX 20 18 1 -1
BITMAP
003800
003800
003800
003800
1C3800
1C3800
1C3FE0
1C3FE0
1C3800
1C3800
1C3800
1C3800
1C3800
1C3800
1C3800
1C3800
FFFFF0
FFFFF0
ENDCHAR
STARTCHAR 2F4D
ENCODING 12109
SWIDTH 990 0
DWIDTH 22 0
BBX 19 18 2 -2
BITMAP
FFFFE0
FFFFE0
0F8000
0F0000
0FFF80
1FFF80
1E0780
3C0780
398F00
73DF00
E3DE00
01BE00
007C00
00F800
03F000
07C000
3F0000
C00000
ENDCHAR
STARTCHAR 2F4E
ENCODING 12110
SWIDTH 945 0
DWIDTH 21 0
BBX 19 18 1 -1
BITMAP
0E0000
0FFF00
0FFF00
0E0700
1E0700
1C07E0
3C07E0
7007E0
000000
3FFF80
3FFF80
0C0780
070F00
079F00
03FE00
01FFE0
0FFFE0
FF0FC0
ENDCHAR
STARTCHAR 2F4F
ENCODING 12111
SWIDTH 990 0
DWIDTH 22 0
BBX 20 18 1 -1
BITMAP
3FFFC0
3FFFC0
3871C0
3871C0
3871C0
3871C0
3871C0
FFFFF0
FFFFF0
3871C0
3871C0
38F1C0
38FFF0
3FFFF0
3FC1C0
03C1C0
078FC0
1C0FC0
ENDCHAR
STARTCHAR 2F50
ENCODING 12112
SWIDTH 945 0
DWIDTH 21 0
BBX 20 18 0 -2
BITMAP
381C00
381C00
381C00
381C00
381C60
381CF0
3F9DE0
3F9FC0
381F00
381C00
381C00
381C00
381C00
381C00
38DC00
FF9FF0
7E1FF0
781FF0
ENDCHAR
STARTCHAR 2F51
ENCODING 12113
SWIDTH 945 0
DWIDTH 21 0
BBX 20 18 0 0
BITMAP
000380
007F80
3FFFC0
0FFE00
00E000
00E000
7FFFE0
7FFFE0
00E000
00E000
00E000
00FFF0
FFFFF0
FFE000
00E000
00FFF0
00FFF0
00FFF0
ENDCHAR
STARTCHAR 2F52
ENCODING 12114
SWIDTH 990 0
DWIDTH 22 0
BBX 19 17 2 0
BITMAP
000F00
71FF80
7FFF00
77F800
707800
703800
703800
703C00
7FFFC0
7FFFC0
701E00
700E00
700E00
700F00
FF8700
FE07E0
F007C0
ENDCHAR
STARTCHAR 2F53
ENCODING 12115
SWIDTH 990 0
DWIDTH 22 0
BBX 20 18 1 0
BITMAP
3C0000
3C0000
3FFFE0
3FFFE0
780000
77FFC0
67FFC0
C00000
1FFF80
1FFFC0
0001C0
0001C0
0001C0
0001C0
0001C0
0001C0
0001F0
0001E0
ENDCHAR
STARTCHAR 2F54
ENCODING 12116
SWIDTH 990 0
DWIDTH 22 0
BBX 20 18 1 -1
BITMAP
007000
007000
007000
007000
0070C0
FE79E0
FE7BE0
0E7F80
0E7C00
0E7E00
1E7F00
1C7780
1C77C0
3873E0
3873F0
6071E0
83F0C0
03F000
ENDCHAR
STARTCHAR 2F55
ENCODING 12117
SWIDTH 990 0
DWIDTH 22 0
BBX 18 19 2 -1
BITMAP
01C000
01C000
01C000
01C000
09C300
19C3C0
39C3C0
79C780
F1E700
71EC00
23F000
03F000
07B800
07BC00
0F1F00
1E1FC0
3C0FC0
780780
800000
ENDCHAR
STARTCHAR 2F56
ENCODING 12118
SWIDTH 945 0
DWIDTH 21 0
BBX 19 19 1 -1
BITMAP
000300
000F80
39FF80
3FFF80
3BFE00
38E600
38E600
38E600
38E600
38E700
38E700
38E700
38E700
38E780
78E380
70E3C0
70E3E0
E0E1E0
80C180
ENDCHAR
STARTCHAR 2F57
ENCODING 12119
SWIDTH 990 0
DWIDTH 22 0
BBX 20 17 1 0
BITMAP
071C00
0F8F80
0F07E0
1F03E0
3E01E0
7C0EC0
E60F00
071F00
039E00
03FE00
01FC00
00FC00
01FF00
03FFF0
0FDFF0
1F07E0
7801C0
ENDCHAR
STARTCHAR 2F58
ENCODING 12120
SWIDTH 990 0
DWIDTH 22 0
BBX 20 18 1 -1
BITMAP
000700
000F80
1E1F80
03FF00
00FF00
01FFC0
03FFE0
0FC7E0
FE01C0
080680
040780
030F80
03DF00
01FE00
00FF00
03FFF0
1FCFE0
7E03C0
ENDCHAR
STARTCHAR 2F59
ENCODING 12121
SWIDTH 945 0
DWIDTH 21 0
BBX 17 18 2 -2
BITMAP
000380
380380
380380
380380
380380
3FFF80
3FFF80
000380
000380
000380
FFFF80
FFFF80
1C0380
1C0380
1C0380
380380
380380
600300
ENDCHAR
STARTCHAR 2F5A
ENCODING 12122
SWIDTH 945 0
DWIDTH 21 0
BBX 19 18 1 -2
BITMAP
001C00
381C00
381C00
381C00
381C00
381C00
3FFFE0
3FFFE0
380000
380000
3FFF80
3FFF80
380380
380380
380380
700380
700380
C00300
ENDCHAR
STARTCHAR 2F5B
ENCODING 12123
SWIDTH 990 0
DWIDTH 22 0
BBX 20 17 1 -1
BITMAP
7FFFF0
7FFFF0
000E00
1C0E00
1C0E00
380E00
380E00
3FFFF0
3FFFF0
070E00
078E00
078E00
0F0E00
0F0E00
1E4E00
3C7E00
F03E00
ENDCHAR
STARTCHAR 2F5C
ENCODING 12124
SWIDTH 990 0
DWIDTH 22 0
BBX 20 18 1 -2
BITMAP
007000
1C7000
3C7000
3FFFC0
3FFFC0
387000
387000
707000
407000
007000
FFFFF0
FFFFF0
007000
007000
007000
007000
007000
006000
ENDCHAR
STARTCHAR 2F5D
ENCODING 12125
SWIDTH 990 0
DWIDTH 22 0
BBX 19 18 1 0
BITMAP
00E000
00E000
00E380
00E380
00E380
00E000
7FFFE0
7FFFE0
01F000
01F800
01DC00
03DC00
038E00
078F80
0F07E0
1E03E0
3C01E0
C000C0
ENDCHAR
STARTCHAR 2F5E
ENCODING 12126
SWIDTH 945 0
DWIDTH 21 0
BBX 19 19 1 -2
BITMAP
004000
00E000
00E000
FFFFE0
FFFFE0
01E000
03C000
078600
0F0F00
3FFF00
3FFE00
3F7C00
00F800
03E200
078380
7FFFC0
7FFFC0
3FF1C0
3F01C0
ENDCHAR
STARTCHAR 2F5F
ENCODING 12127
SWIDTH 945 0
DWIDTH 21 0
BBX 19 17 1 -1
BITMAP
7FFFE0
7FFFE0
00E000
00E000
00E000
00E000
00E000
7FFFC0
7FFFC0
00E000
00E000
00E300
00E380
00E380
00E300
FFFFE0
FFFFE0
ENDCHAR
STARTCHAR 2F60
ENCODING 12128
SWIDTH 990 0
DWIDTH 22 0
BBX 20 19 1 -1
BITMAP
000180
000FC0
39FFC0
3FFFC0
3BFF00
380300
38E300
38E300
38E300
38E300
38E380
39E380
39C380
39E3C0
3999C0
339DE0
77FFF0
67FEF0
C300E0
ENDCHAR
STARTCHAR 2F61
ENCODING 12129
SWIDTH 990 0
DWIDTH 22 0
BBX 20 17 1 -2
BITMAP
FFFFE0
FFFFE0
1C0000
1C0000
1FFE00
1FFF00
1C0700
1C0700
1CC700
1CE700
1CE700
1CC700
1C0700
1FC700
FF87F0
7E07F0
7807E0
ENDCHAR
STARTCHAR 2F62
ENCODING 12130
SWIDTH 990 0
DWIDTH 22 0
BBX 20 18 1 -1
BITMAP
1C0380
1C0380
1C0380
FFFFF0
FFFFF0
1C0380
1C0380
1C0380
1C0380
1FFF80
1FFF80
1C0380
1C0380
1C0380
1C0380
1C0380
1FFF80
1FFF80
ENDCHAR
STARTCHAR 2F63
ENCODING 12131
SWIDTH 945 0
DWIDTH 21 0
BBX 19 18 1 -1
BITMAP
007000
387000
3C7000
3C7000
3FFFE0
3FFFE0
787000
707000
C07000
007000
3FFFC0
3FFFC0
007000
007000
007000
007000
FFFFE0
FFFFE0
ENDCHAR
STARTCHAR 2F64
ENCODING 12132
SWIDTH 945 0
DWIDTH 21 0
BBX 18 17 2 -2
BITMAP
7FFFC0
7FFFC0
70E1C0
70E1C0
70E1C0
7FFFC0
7FFFC0
70E1C0
70E1C0
70E1C0
7FFFC0
7FFFC0
70E1C0
70E1C0
E0E1C0
E0E7C0
80E7C0
ENDCHAR
STARTCHAR 2F65
ENCODING 12133
SWIDTH 990 0
DWIDTH 22 0
BBX 19 17 2 -1
BITMAP
E00000
FFFFE0
FFFFE0
E0E1E0
E0E1E0
E0E1E0
E0E1E0
E0E1E0
FFFFE0
FFFFE0
E0E1E0
E0E1E0
E0E1E0
E0E1E0
E0E1E0
FFFFE0
7FFFC0
ENDCHAR
STARTCHAR 2F66
ENCODING 12134
SWIDTH 990 0
DWIDTH 22 0
BBX 20 18 1 -1
BITMAP
0000E0
7FFFF0
7FFFE0
0071E0
0071C0
007180
3C7000
3E7000
3C7FC0
3C7FC0
3C7000
3C7000
3E7000
3E7000
7F7000
77F000
63FFF0
C1FFE0
ENDCHAR
STARTCHAR 2F67
ENCODING 12135
SWIDTH 990 0
DWIDTH 22 0
BBX 20 18 1 0
BITMAP
001C00
001C00
0FFFF0
0FFFF0
EE0000
EE0000
EE0000
0E0000
1E0000
7E0000
FE0000
EE0000
4E0000
0E0000
1C0000
1C0000
180000
200000
ENDCHAR
STARTCHAR 2F69
ENCODING 12137
SWIDTH 990 0
DWIDTH 22 0
BBX 16 19 3 -3
BITMAP
0700
0780
0700
FFFF
FFFF
E007
E007
E007
E007
FFFF
FFFF
E007
E007
E007
E007
E007
FFF7
FFFE
000C
ENDCHAR
STARTCHAR 2F6A
ENCODING 12138
SWIDTH 945 0
DWIDTH 21 0
BBX 19 18 1 -2
BITMAP
003800
003800
3838E0
3FFFE0
3FFFE0
3838C0
383880
383800
3FFFC0
3FFFC0
3B83C0
39C780
39EF80
38FF00
787F80
707FE0
63FFE0
CFC7C0
ENDCHAR
STARTCHAR 2F6B
ENCODING 12139
SWIDTH 990 0
DWIDTH 22 0
BBX 20 16 1 -1
BITMAP
380000
3FFFE0
3FFFE0
3B9CE0
3B9CE0
3B9CE0
3B9CE0
3B9CE0
3B9CE0
3B9CE0
3B9CE0
3B9CE0
3B9CE0
3B9CE0
FFFFF0
FFFFF0
ENDCHAR
STARTCHAR 2F6C
ENCODING 12140
SWIDTH 990 0
DWIDTH 22 0
BBX 16 18 3 -3
BITMAP
E000
FFFF
FFFF
E007
E007
FFFF
FFFF
E007
E007
E007
FFFF
FFFF
E007
E007
E007
FFF7
FFFE
000C
ENDCHAR
STARTCHAR 2F6D
ENCODING 12141
SWIDTH 945 0
DWIDTH 21 0
BBX 19 18 1 0
BITMAP
000300
3FFF80
3FFF80
000F00
001E00
07B800
01F000
00F0C0
FFFFE0
FFFFE0
0C71C0
0F7180
1E7000
1E7000
3C7000
3A7000
73F000
81F000
ENDCHAR
STARTCHAR 2F6E
ENCODING 12142
SWIDTH 945 0
DWIDTH 21 0
BBX 19 18 1 0
BITMAP
1C0000
1C0000
1FFFC0
1FFFC0
38E000
30E000
60E000
00E000
00E000
FFFFE0
FFFFE0
01F800
03DC00
039E00
078F80
0F0FE0
1C07C0
700180
ENDCHAR
STARTCHAR 2F6F
ENCODING 12143
SWIDTH 990 0
DWIDTH 22 0
BBX 19 18 2 -2
BITMAP
FFFFE0
FFFFE0
078000
078000
0F0000
0F0000
0F0000
1FFF80
3FFF80
3E0380
7E0380
EE0380
0E0380
0E0380
0E0380
0FFB80
0FFF00
000600
ENDCHAR
STARTCHAR 2F70
ENCODING 12144
SWIDTH 990 0
DWIDTH 22 0
BBX 20 17 1 -1
BITMAP
1FFFC0
1FFFC0
000000
000000
000000
000000
7FFFF0
7FFFF0
007000
187000
3C70C0
3C71E0
3C71E0
7870C0
F07000
03F000
03F000
ENDCHAR
STARTCHAR 2F72
ENCODING 12146
SWIDTH 945 0
DWIDTH 21 0
BBX 19 18 1 -2
BITMAP
000700
007F00
3FFF80
0FFC00
00E000
00E000
00E000
FFFFE0
FFFFE0
1EE700
1EE700
1CE700
3CE780
38E380
70E1C0
60E0C0
00E000
00E000
ENDCHAR
STARTCHAR 2F73
ENCODING 12147
SWIDTH 990 0
DWIDTH 22 0
BBX 19 19 2 -1
BITMAP
004000
00E000
00E000
FFFFE0
FFFFE0
E000E0
E010E0
E710E0
0F9000
0F1800
0F1C00
0F1C00
1E0E00
1E0F00
1E0F80
3C07C0
3807E0
7003C0
C00180
ENDCHAR
STARTCHAR 2F74
ENCODING 12148
SWIDTH 990 0
DWIDTH 22 0
BBX 20 18 1 -1
BITMAP
006000
007000
007000
006000
7FFFE0
7FFFE0
000000
000000
0C0780
1E0780
1E0700
0C0F00
000E00
001E00
003800
000000
FFFFF0
FFFFF0
ENDCHAR
STARTCHAR 2F75
ENCODING 12149
SWIDTH 990 0
DWIDTH 22 0
BBX 20 18 1 -1
BITMAP
701C00
701C00
701C00
7FDFF0
7FFFF0
7E3B80
EE3380
CE2380
8E0380
0E0380
0E0380
0E0380
0E0380
0E0380
0E0380
0E0B80
0E0F80
0E0780
ENDCHAR
STARTCHAR 2F76
ENCODING 12150
SWIDTH 990 0
DWIDTH 22 0
BBX 19 17 1 -1
BITMAP
007000
007000
1871C0
1C71C0
1C7380
187300
007400
FFFFE0
FFFFE0
0E7380
0E7380
1E7380
1C7380
1C71C0
3871C0
707060
007000
ENDCHAR
STARTCHAR 2F77
ENCODING 12151
SWIDTH 990 0
DWIDTH 22 0
BBX 18 18 2 0
BITMAP
008000
01C000
03E000
07C000
0F0E00
7FFF00
7FFE00
7EFC00
03F200
0FC380
7FFFC0
7FFDC0
7FE080
30E180
78E1C0
78E1C0
F3E180
E3E000
ENDCHAR
STARTCHAR 2F78
ENCODING 12152
SWIDTH 990 0
DWIDTH 22 0
BBX 20 18 1 0
BITMAP
3E0000
3E0000
3FFFC0
3FFFC0
387000
707000
607000
007000
FFFFF0
FFFFF0
007000
007000
3870E0
3870E0
3870E0
3870E0
3FFFE0
3FFFE0
ENDCHAR
STARTCHAR 2F79
ENCODING 12153
SWIDTH 990 0
DWIDTH 22 0
BBX 18 17 2 -2
BITMAP
FFFFC0
FFFFC0
E001C0
E3CFC0
EB9FC0
EFDFC0
E7BFC0
E73DC0
E71DC0
EF3FC0
EFBFC0
EFBFC0
FB6DC0
F081C0
E001C0
E007C0
C007C0
ENDCHAR
STARTCHAR 2F7A
ENCODING 12154
SWIDTH 990 0
DWIDTH 22 0
BBX 20 18 1 0
BITMAP
060600
0E0700
0E0E00
7FFFE0
7FFFE0
00E000
00E000
00E000
7FFFC0
7FFFC0
00E000
00E000
FFFFF0
FFFFF0
00E000
00E000
00E000
00E000
ENDCHAR
STARTCHAR 2F7B
ENCODING 12155
SWIDTH 945 0
DWIDTH 21 0
BBX 19 17 1 -1
BITMAP
FFBFE0
FFBFE0
0380E0
338CE0
738EE0
738EE0
338CE0
0380E0
0783E0
1F87E0
3F9FE0
FBBEE0
739CE0
2380E0
0380E0
1F87E0
1F87E0
ENDCHAR
STARTCHAR 2F7C
ENCODING 12156
SWIDTH 990 0
DWIDTH 22 0
BBX 20 19 1 -1
BITMAP
01C000
01C000
01C000
3FFF00
3FFF60
01C1E0
01CF80
FFFFF0
FFFFF0
03E100
0F8780
1E1FC0
7EFF80
EFFC00
CE0000
0E0000
0FFFE0
0FFFE0
0FFFC0
ENDCHAR
STARTCHAR 2F7D
ENCODING 12157
SWIDTH 945 0
DWIDTH 21 0
BBX 19 17 1 -2
BITMAP
FFFFE0
FFFFE0
01E000
01E000
7FFFE0
7FFFE0
739CE0
739CE0
739CE0
739CE0
739CE0
739CE0
739CE0
739CE0
739CE0
739FE0
7213E0
ENDCHAR
STARTCHAR 2F7E
ENCODING 12158
SWIDTH 945 0
DWIDTH 21 0
BBX 19 18 1 -1
BITMAP
00E000
00E000
7FFFE0
7FFFE0
00E000
00E000
3FFFC0
3FFFC0
00E000
00E000
FFFFE0
FFFFE0
1CE780
1CE780
3CE3C0
38E3C0
70E1E0
00E000
ENDCHAR
STARTCHAR 2F7F
ENCODING 12159
SWIDTH 945 0
DWIDTH 21 0
BBX 20 18 0 -2
BITMAP
7FFFF0
7FFFF0
0E0380
0E0380
0FFF80
0FFF80
0E0380
0E0380
0FFF80
0FFF80
0E0380
0E0380
0FFFF0
FFFFF0
FFFF80
000380
000380
000200
ENDCHAR
STARTCHAR 2F80
ENCODING 12160
SWIDTH 990 0
DWIDTH 22 0
BBX 20 18 1 0
BITMAP
00E000
3FFFC0
3FFFC0
00E1C0
FFFFF0
FFFFF0
00E1C0
3FFFC0
3FFFC0
00E000
7FFFC0
7FFFC0
00E000
FFFFF0
FFFFF0
00E000
00E000
008000
ENDCHAR
STARTCHAR 2F81
ENCODING 12161
SWIDTH 990 0
DWIDTH 22 0
BBX 18 18 2 -2
BITMAP
01C000
01C000
FFFFC0
FFFFC0
E1C1C0
E3DDC0
E3DDC0
E71DC0
E001C0
E1C1C0
E1C1C0
E1C1C0
E3DDC0
E39DC0
E71DC0
E007C0
E007C0
C003C0
ENDCHAR
STARTCHAR 2F82
ENCODING 12162
SWIDTH 990 0
DWIDTH 22 0
BBX 18 17 2 -1
BITMAP
FFFF80
FFFF80
E0E000
E0E000
E0E000
FFFF80
FFFF80
E00380
E00380
E00380
FFFF80
FFFF00
E0E000
E0E000
E0E000
FFFFC0
FFFFC0
ENDCHAR
STARTCHAR 2F83
ENCODING 12163
SWIDTH 990 0
DWIDTH 22 0
BBX 16 19 3 -3
BITMAP
0600
0700
E700
FFFF
FFFF
E007
E007
FFFF
FFFF
E007
E007
E007
FFFF
FFFF
E007
E007
FFF7
FFF6
000C
ENDCHAR
STARTCHAR 2F84
ENCODING 12164
SWIDTH 990 0
DWIDTH 22 0
BBX 20 17 1 -1
BITMAP
7FFFF0
7FFFF0
01E000
03E600
0783C0
3FFFE0
3FFFC0
1FC080
000000
007000
007000
3FFFE0
3FFFE0
007000
007000
FFFFF0
FFFFF0
ENDCHAR
STARTCHAR 2F85
ENCODING 12165
SWIDTH 990 0
DWIDTH 22 0
BBX 18 17 2 0
BITMAP
070000
EFBFC0
FE3FC0
E001C0
E001C0
E001C0
E001C0
FF3FC0
FF3FC0
E001C0
E001C0
E001C0
E001C0
E001C0
E001C0
FFFFC0
FFFFC0
ENDCHAR
STARTCHAR 2F86
ENCODING 12166
SWIDTH 990 0
DWIDTH 22 0
BBX 20 19 1 -1
BITMAP
000780
00FF80
7FFF80
0FFE00
00E000
00E000
FFFFF0
FFFFF0
00E000
00E000
3FFF80
3FFFC0
3801C0
3801C0
3801C0
3801C0
3FF9C0
3FFB80
000700
ENDCHAR
STARTCHAR 2F87
ENCODING 12167
SWIDTH 945 0
DWIDTH 21 0
BBX 20 18 0 0
BITMAP
380380
380380
380380
7FBFF0
7FBFF0
738380
738380
63BB80
63BB80
5BBB80
9FBB80
1F3FF0
071FF0
0E0380
0E0380
1C0380
380380
600300
ENDCHAR
STARTCHAR 2F88
ENCODING 12168
SWIDTH 990 0
DWIDTH 22 0
BBX 20 19 1 -1
BITMAP
00C000
00E000
00E000
1FFFC0
1FFFC0
1C01C0
1CF1C0
1C79C0
1C31C0
1C21C0
FFFFF0
FFFFF0
1CE1C0
1C79C0
3C39C0
3821C0
3801C0
300FC0
600FC0
ENDCHAR
STARTCHAR 2F89
ENCODING 12169
SWIDTH 945 0
DWIDTH 21 0
BBX 18 18 1 -1
BITMAP
7FFF80
7FFF80
700380
700380
7FFF80
7FFF80
700380
7FFF80
7FFF80
706180
7071C0
703BC0
703F80
719F00
7F0FC0
FE0FC0
F803C0
600100
ENDCHAR
STARTCHAR 2F8A
ENCODING 12170
SWIDTH 990 0
DWIDTH 22 0
BBX 19 19 2 -1
BITMAP
100000
1C0000
3C0E00
3FFF00
3FFE00
701C00
E03800
7FFF80
7FFF80
70E380
70E380
70E380
7FFF80
7FFF80
700000
700000
7FFFE0
7FFFC0
7FFFC0
ENDCHAR
STARTCHAR 2F8C
ENCODING 12172
SWIDTH 990 0
DWIDTH 22 0
BBX 20 18 1 -2
BITMAP
007000
007FC0
007FC0
007000
007060
7FFFF0
7FFFF0
7070E0
7071C0
707100
7070C0
73FFC0
77FC00
707000
707000
607FF0
E07FE0
C07FE0
ENDCHAR
STARTCHAR 2F8D
ENCODING 12173
SWIDTH 990 0
DWIDTH 22 0
BBX 20 18 1 -1
BITMAP
00E000
00E000
00E000
7FFF80
7FFFC0
70E1C0
70E1C0
70E1C0
70E1C0
70E1C0
7FFFC0
3FFFC0
00E000
00E080
00FFE0
FFFFF0
FFFC70
7F8040
ENDCHAR
STARTCHAR 2F8E
ENCODING 12174
SWIDTH 990 0
DWIDTH 22 0
BBX 20 18 1 -1
BITMAP
01C000
01E000
01C000
398000
3FFFE0
3FFFE0
3B9CE0
3B9CE0
3B9CE0
3B9CE0
3B9CE0
3B9CE0
3B9CE0
3B9CE0
3B9CE0
3B9CE0
FFFFF0
FFFFF0
ENDCHAR
STARTCHAR 2F8F
ENCODING 12175
SWIDTH 990 0
DWIDTH 22 0
BBX 21 18 0 -1
BITMAP
0C0000
1F3FF0
1E3FF0
3C0000
700000
CE0000
0F0000
1F7FF8
3E7FF8
380380
7C0380
1C0380
1C0380
1C0380
1C0380
1C0380
1C0F80
180780
ENDCHAR
STARTCHAR 2F90
ENCODING 12176
SWIDTH 945 0
DWIDTH 21 0
BBX 19 18 1 -2
BITMAP
00E000
00E000
00E000
FFFFE0
FFFFE0
07B000
07B000
0FB0C0
1F19E0
3E19C0
7E1F80
EE1E00
0E0F00
0E0F80
0EE7C0
3FC7E0
3F03C0
1C0080
ENDCHAR
STARTCHAR 2F93
ENCODING 12179
SWIDTH 990 0
DWIDTH 22 0
BBX 19 18 2 -2
BITMAP
0C0000
1E0200
1FFF00
3FFF00
7FFFC0
FFFFE0
3870E0
3870E0
3FFFE0
3FFFE0
3870E0
3870E0
3FFFE0
3FFFE0
3870E0
3070E0
7073E0
6063E0
ENDCHAR
STARTCHAR 2F94
ENCODING 12180
SWIDTH 990 0
DWIDTH 22 0
BBX 20 19 1 -1
BITMAP
00E000
00E000
FFFFF0
FFFFF0
000000
3FFF80
3FFF80
000000
3FFF80
3FFF80
000000
3FFF80
3FFF80
380380
380380
380380
3FFB80
3FFF00
000600
ENDCHAR
STARTCHAR 2F95
ENCODING 12181
SWIDTH 990 0
DWIDTH 22 0
BBX 20 18 1 -1
BITMAP
0E0E00
0F0780
1E03C0
3CC3C0
39F180
01E000
03F800
07DF00
0F8FF0
3E03E0
FFFFE0
1FFF80
1C0380
1C0380
1C0380
1FFB80
1FFF00
000600
ENDCHAR
STARTCHAR 2F96
ENCODING 12182
SWIDTH 990 0
DWIDTH 22 0
BBX 20 17 1 -1
BITMAP
7FFFE0
7FFFE0
000000
3FFF80
3FFF80
380380
380380
380380
3FFB80
3FFF00
000000
0E0E00
0E0F00
0E1E00
001000
FFFFF0
FFFFF0
ENDCHAR
STARTCHAR 2F97
ENCODING 12183
SWIDTH 990 0
DWIDTH 22 0
BBX 20 17 1 -1
BITMAP
7FFFF0
7FFFF0
01F000
03F000
07F8C0
0FB9E0
3E3FE0
433F00
07BB00
1FBB00
FE3B80
033BC0
07B9E0
1FB9F0
7E38F0
00F840
00F800
ENDCHAR
STARTCHAR 2F98
ENCODING 12184
SWIDTH 990 0
DWIDTH 22 0
BBX 15 19 4 -1
BITMAP
0030
00F0
03F0
0FC0
7CE0
0CFE
1C7E
1DFC
07F0
3FF0
41F0
07F0
1FF0
7C70
03F0
1FF0
FE70
01F0
01F0
ENDCHAR
STARTCHAR 2F9A
ENCODING 12186
SWIDTH 990 0
DWIDTH 22 0
BBX 20 18 1 0
BITMAP
00E000
00E000
7FFFC0
7FFFC0
00E000
00E000
FFFFF0
FFFFF0
070E00
670E00
770E60
770EE0
E70EE0
CF0E60
0E0E00
0E3E00
1C3E00
303E00
ENDCHAR
STARTCHAR 2F9B
ENCODING 12187
SWIDTH 990 0
DWIDTH 22 0
BBX 20 18 1 0
BITMAP
007000
007000
3FFFC0
3FFFC0
007000
007000
7FFFF0
7FFFF0
000000
007000
3C7000
3C7FC0
3C7FC0
3C7000
7E7000
7FFFF0
77FFF0
C3FFF0
ENDCHAR
STARTCHAR 2F9C
ENCODING 12188
SWIDTH 990 0
DWIDTH 22 0
BBX 20 17 1 -1
BITMAP
3FFFC0
3FFFC0
3801C0
3801C0
3801C0
3FFFC0
0FFF80
007000
007000
3C7000
3C7FC0
3C7FC0
387000
7C7000
7E7000
7FFFF0
C3FFE0
ENDCHAR
STARTCHAR 2F9D
ENCODING 12189
SWIDTH 990 0
DWIDTH 22 0
BBX 19 19 2 -1
BITMAP
018000
01E000
01C000
3FFF00
3FFF00
380700
3FFF00
3FFF00
380700
3FFFC0
3FFFE0
3807E0
FFFFC0
FFFF00
007F00
03FF00
3FC700
FE1F00
001F00
ENDCHAR
STARTCHAR 2F9E
ENCODING 12190
SWIDTH 990 0
DWIDTH 22 0
BBX 20 18 1 -1
BITMAP
00E000
FFFFE0
FFFFE0
00E000
3FFF80
3FFF80
38E380
3FFF80
3FFF80
38E380
3FFF80
1FFF00
00E000
FFFFF0
FFFFF0
00E000
00E000
008000
ENDCHAR
STARTCHAR 2F9F
ENCODING 12191
SWIDTH 945 0
DWIDTH 21 0
BBX 19 18 1 -1
BITMAP
00E000
00E000
7FFFC0
7FFFC0
060C00
0E0E00
0E0E00
061C00
FFFFE0
FFFFE0
00E000
00E000
7FFFC0
7FFFC0
00E000
00E000
00E000
00E000
ENDCHAR
STARTCHAR 2FA0
ENCODING 12192
SWIDTH 990 0
DWIDTH 22 0
BBX 20 18 1 -2
BITMAP
7FFFE0
7FFFE0
700000
700000
73FFC0
73FFC0
700000
7FFFE0
7FFFE0
71CC00
71CC60
71C6F0
71C7E0
71C780
71F3C0
67E3F0
E7C1E0
830040
ENDCHAR
STARTCHAR 2FA2
ENCODING 12194
SWIDTH 990 0
DWIDTH 22 0
BBX 18 18 2 -1
BITMAP
7FFF00
7FFF00
700700
700700
7FF700
7FFE00
E00000
FFFF80
FFFF80
E1C380
E1C380
FFFF80
FFFF00
E00000
E00000
FFFFC0
FFFFC0
FFFFC0
ENDCHAR
STARTCHAR 2FA3
ENCODING 12195
SWIDTH 945 0
DWIDTH 21 0
BBX 19 19 1 -2
BITMAP
FFFFE0
FFFFE0
039C00
039C00
739C00
7FFFC0
7FFFC0
739DC0
779FC0
771FC0
7F1FC0
7C01C0
7001C0
7FFFC0
7FFFC0
7001C0
7FFDC0
7FFD80
000300
ENDCHAR
STARTCHAR 2FA5
ENCODING 12197
SWIDTH 990 0
DWIDTH 22 0
BBX 20 17 1 -1
BITMAP
3FFFC0
3FFFC0
38E1C0
38E1C0
3FFFC0
3FFFC0
38E1C0
38E1C0
3FFFC0
3FFF80
00E000
7FFFC0
7FFFC0
00E000
00E000
FFFFF0
FFFFF0
ENDCHAR
STARTCHAR 2FA6
ENCODING 12198
SWIDTH 945 0
DWIDTH 21 0
BBX 19 18 1 0
BITMAP
00E000
01F000
01F000
03DE00
0F8FE0
1F07E0
FC01C0
1FFF00
1FFF00
00E000
00E000
3FFFC0
3FFFC0
00E200
1CE380
1CE780
FFFFE0
FFFFE0
ENDCHAR
STARTCHAR 2FA9
ENCODING 12201
SWIDTH 990 0
DWIDTH 22 0
BBX 20 18 1 -1
BITMAP
00E000
00E000
3FFF80
3FFF80
380380
3FFF80
3FFF00
380000
3FFFC0
3FFFC0
3801C0
3FFFC0
0FFF80
00E000
FFFFF0
FFFFF0
00E000
00E000
ENDCHAR
STARTCHAR 2FAA
ENCODING 12202
SWIDTH 990 0
DWIDTH 22 0
BBX 20 18 1 -1
BITMAP
00E000
00E000
3FFFC0
3FFFC0
00E1C0
FFFFF0
FFFFF0
00E1C0
3FFFC0
3FFFC0
10E080
38E1C0
7EE3C0
00E000
06E600
FCE7F0
F9E1F0
63E0E0
ENDCHAR
STARTCHAR 2FAB
ENCODING 12203
SWIDTH 1035 0
DWIDTH 23 0
BBX 21 18 1 -2
BITMAP
1E0700
1E0700
1CFFF8
3CFFF8
3C0700
380700
780700
7CFFF8
DC0700
1C0700
1C0700
1CFFF8
1CFFF8
1C0700
1C0700
1CFFF8
1CFFF8
100000
ENDCHAR
STARTCHAR 2FAC
ENCODING 12204
SWIDTH 945 0
DWIDTH 21 0
BBX 19 17 1 -2
BITMAP
FFFFE0
FFFFE0
00E000
70FFC0
7FFFE0
7FE0E0
70E0E0
7EFEE0
77EEE0
76E6E0
70E0E0
7EFEE0
77EEE0
72E6E0
70E0E0
70E3E0
60E3E0
ENDCHAR
STARTCHAR 2FAE
ENCODING 12206
SWIDTH 945 0
DWIDTH 21 0
BBX 21 18 0 -1
BITMAP
038E00
038E00
7F8FF0
7F8FF0
038E00
038E00
038E00
7F8FF0
7F8FF0
038E00
038E00
038E00
FF8FF8
FF8FF8
038E00
038E00
038E00
030800
ENDCHAR
STARTCHAR 2FAF
ENCODING 12207
SWIDTH 990 0
DWIDTH 22 0
BBX 20 17 1 -1
BITMAP
FFFFF0
FFFFF0
00F000
7FFFC0
7FFFE0
739CE0
739CE0
73FCE0
73FCE0
739CE0
739CE0
73FCE0
73FCE0
739CE0
739CE0
7FFFE0
3FFFC0
ENDCHAR
STARTCHAR 2FB0
ENCODING 12208
SWIDTH 990 0
DWIDTH 22 0
BBX 20 18 1 -1
BITMAP
0E0700
0E0700
FFFFE0
FFFFE0
0FFF00
0FFF00
00E000
3FFFC0
3FFFC0
38E1C0
38E1C0
3FFFC0
1FFF80
00E000
FFFFF0
FFFFF0
00E000
00E000
ENDCHAR
STARTCHAR 2FB2
ENCODING 12210
SWIDTH 990 0
DWIDTH 22 0
BBX 20 18 1 -1
BITMAP
039C00
039C00
039C00
7F9FE0
7F9FE0
039C00
039C00
7F9FE0
7F9FE0
039C00
039C00
039C00
FF9FE0
FF9FE0
039C00
039C00
FFFFF0
FFFFF0
ENDCHAR
STARTCHAR 2FB3
ENCODING 12211
SWIDTH 990 0
DWIDTH 22 0
BBX 20 19 1 -1
BITMAP
007000
007000
3FFFE0
3FFFE0
070700
070700
FFFFF0
FFFFF0
000000
1C0000
1FFF80
1FFF80
1C0380
1FFF80
1FFF80
1C0380
1FFB80
1FFB00
000600
ENDCHAR
STARTCHAR 2FB5
ENCODING 12213
SWIDTH 990 0
DWIDTH 22 0
BBX 20 18 1 -2
BITMAP
700000
7FFFC0
7FFFC0
7009C0
707DC0
77FDC0
70E1C0
77FDC0
77FDC0
76EDC0
77FDC0
77FDC0
70E9C0
77FDC0
77FFC0
6785C0
E001F0
C001F0
ENDCHAR
STARTCHAR 2FB6
ENCODING 12214
SWIDTH 990 0
DWIDTH 22 0
BBX 20 18 1 -1
BITMAP
7FFF20
7FFFF0
040760
1E0760
3EE760
78E7F0
38E7F0
38E7E0
38E000
FFFF20
FFFFF0
38E760
38E700
38E760
38E760
70E7F0
70E7F0
40C7E0
ENDCHAR
STARTCHAR 2FB7
ENCODING 12215
SWIDTH 990 0
DWIDTH 22 0
BBX 20 19 1 -2
BITMAP
004000
00F000
01F000
03FF00
0FCFF0
FE77E0
0071E0
1FFF80
1FFF80
1FFF80
1FFF80
1C0380
1FFF80
1FFF00
1C3CC0
1C0FC0
3FC3E0
3E01E0
1000C0
ENDCHAR
STARTCHAR 2FB8
ENCODING 12216
SWIDTH 945 0
DWIDTH 21 0
BBX 19 20 1 -2
BITMAP
040400
0E0700
0E0F00
FFFFE0
FFFFE0
00E000
38C000
3FFFC0
3FFFC0
3801C0
3FFFC0
3FFFC0
3801C0
3801C0
3FFFC0
3FFFC0
3801C0
3FFBC0
3FFB80
000600
ENDCHAR
STARTCHAR 2FB9
ENCODING 12217
SWIDTH 990 0
DWIDTH 22 0
BBX 20 20 1 -2
BITMAP
000300
007F00
3FFF00
0FFE00
00E000
FFFFF0
FFFFF0
1CE780
3CE380
78E1E0
000000
3FFF80
3FFF80
380380
3FFF80
3FFF80
380380
3FF380
3FF700
000600
ENDCHAR
STARTCHAR 2FBB
ENCODING 12219
SWIDTH 945 0
DWIDTH 21 0
BBX 19 18 1 -2
BITMAP
3FFF00
3FFF00
380700
3FE700
3FE700
38E700
FFFFE0
FFFFE0
FC00E0
FFFF80
1FFF00
1FFF00
1FFF00
1C0700
1FFF00
1FFF00
1C1F00
181F00
ENDCHAR
STARTCHAR 2FBC
ENCODING 12220
SWIDTH 990 0
DWIDTH 22 0
BBX 20 19 1 -2
BITMAP
00E000
00E000
FFFFF0
FFFFF0
000000
1FFF80
1FFF80
1C0380
1FF380
1FF700
700000
7FFFE0
7FFFE0
77FCE0
77FCE0
771CE0
77FCE0
77FDE0
6001E0
ENDCHAR
STARTCHAR 2FBD
ENCODING 12221
SWIDTH 990 0
DWIDTH 22 0
BBX 20 18 1 -1
BITMAP
000060
7FC0F0
7FC1F0
7001E0
7003C0
7FCF00
7FC040
700060
7FC0F0
7FC1F0
7003C0
FFEF00
FFE060
3A00F0
7181F0
FFC3E0
FDC7C0
789F00
ENDCHAR
STARTCHAR 2FBE
ENCODING 12222
SWIDTH 945 0
DWIDTH 21 0
BBX 19 18 1 -1
BITMAP
E000E0
EFBEE0
EFBEE0
E71CE0
EFBEE0
EFBEE0
E71CE0
EFBEE0
EFBEE0
E000E0
E000E0
E000E0
E000E0
E000E0
E000E0
E000E0
E007E0
C003E0
ENDCHAR
STARTCHAR 2FBF
ENCODING 12223
SWIDTH 945 0
DWIDTH 21 0
BBX 19 18 1 0
BITMAP
E0D9C0
E4FDC0
E339C0
EDF7C0
EDF7C0
E3B9C0
FCD9C0
E0C9C0
FFFFC0
FFFFC0
000000
700780
7FFF80
77FF80
700000
7FFFE0
7FFFE0
7FFFC0
ENDCHAR
STARTCHAR 2FC0
ENCODING 12224
SWIDTH 990 0
DWIDTH 22 0
BBX 20 18 1 -2
BITMAP
FFFFF0
FFFFF0
380000
3FFF80
3FFF80
380380
3FFB80
1FFF80
000C00
7FFFE0
7FFFE0
7310E0
779CE0
77FEE0
77FEE0
70E0E0
70E3E0
60E3E0
ENDCHAR
STARTCHAR 2FC1
ENCODING 12225
SWIDTH 990 0
DWIDTH 22 0
BBX 19 19 2 -1
BITMAP
01C000
01C000
7FFF80
7FFF80
70E380
70E380
7FFF80
7FFF80
70E380
7FFF80
7FFF80
01E100
01FB80
03FFC0
07FFE0
0FBFE0
1E3FE0
783FC0
800000
ENDCHAR
STARTCHAR 2FC5
ENCODING 12229
SWIDTH 990 0
DWIDTH 22 0
BBX 20 19 1 -1
BITMAP
007000
00F000
7FFFF0
7FFFF0
739C00
7FFFC0
7FFFE0
739CE0
739CE0
7FFFE0
7FFFE0
700000
770E60
77EEE0
77EFE0
770E00
6FEFF0
EFCFF0
CF0FE0
ENDCHAR
STARTCHAR 2FC6
ENCODING 12230
SWIDTH 945 0
DWIDTH 21 0
BBX 19 18 1 -1
BITMAP
00E000
FFFFE0
FFFFE0
38E700
3EE780
37EFC0
72EDC0
0EEC00
3EEF00
FB07E0
078000
07FF00
0FFF00
3C1E00
07FE00
03FFC0
FFEF80
000080
ENDCHAR
STARTCHAR 2FC7
ENCODING 12231
SWIDTH 1035 0
DWIDTH 23 0
BBX 21 18 1 -1
BITMAP
003800
003800
7FFFF8
7FFFF8
700000
71C1C0
71C1C0
77F7F8
77F7F8
71C1C0
77E7F0
77F7F0
77F7F0
77CFF0
7FCDD8
6DC9C8
E1C1C0
C1C180
ENDCHAR
STARTCHAR 2FC9
ENCODING 12233
SWIDTH 945 0
DWIDTH 21 0
BBX 19 18 1 -1
BITMAP
000F00
1FFF00
03FF00
FFFFE0
FFFFE0
1CE000
3EE7C0
7CC1C0
81E000
07FFE0
3F9FE0
FCE3C0
3CE780
1EEF00
02E800
FCE7E0
FBE3E0
63E0C0
ENDCHAR
STARTCHAR 2FCA
ENCODING 12234
SWIDTH 990 0
DWIDTH 22 0
BBX 19 19 2 -1
BITMAP
700000
7FFF80
7FFFC0
70E1C0
76EDC0
77FDC0
72F9C0
7FFFC0
1FFF80
00E000
7FFF80
7FFF80
00E000
FFFFE0
FFFFE0
000000
739CE0
739CE0
E39CE0
ENDCHAR
STARTCHAR 2FCB
ENCODING 12235
SWIDTH 990 0
DWIDTH 22 0
BBX 20 18 1 -1
BITMAP
739CE0
739CE0
739DC0
039C00
FFFFF0
FFFFF0
1CE300
1CE3C0
1CE300
00E000
7FFFE0
7FFFE0
76EEE0
77EEE0
76EEE0
7CE0E0
70E3E0
60C3E0
ENDCHAR
STARTCHAR 2FCD
ENCODING 12237
SWIDTH 945 0
DWIDTH 21 0
BBX 18 18 2 -2
BITMAP
070000
07FC00
07FC00
E7FDC0
E7FDC0
E7FDC0
E7FDC0
E7FDC0
E7FDC0
E001C0
FF3FC0
FF3FC0
FF3F80
FF3FC0
7739C0
7739C0
E739C0
C739C0
ENDCHAR
STARTCHAR 2FCE
ENCODING 12238
SWIDTH 990 0
DWIDTH 22 0
BBX 20 18 1 -2
BITMAP
0E0380
FFC380
FFC380
0E3FF0
7FBFF0
7F8380
700380
7FBFF0
7FBFF0
7398F0
7F9CF0
7F9CE0
730FE0
730FE0
30C7C0
FF07F0
FE1FF0
7078E0
ENDCHAR
STARTCHAR 2FCF
ENCODING 12239
SWIDTH 945 0
DWIDTH 21 0
BBX 19 18 1 0
BITMAP
070000
FF3F80
FC3F80
FE3F80
FE3F80
E00380
FFFF80
7FFF80
000000
E1C380
FDFB80
EDDB80
E5CB80
FDFB80
EDDB80
E9C380
F9F3E0
F9F3E0
ENDCHAR
STARTCHAR 2FD0
ENCODING 12240
SWIDTH 945 0
DWIDTH 21 0
BBX 19 18 1 -1
BITMAP
01C000
1FFF80
1FFF80
1C0380
1FFF80
1FFF80
000700
3FFFC0
3FFFC0
3FFFC0
38E1C0
3FFFC0
1FFF80
FFFFE0
FFFFE0
0E0E00
1C0E00
780E00
ENDCHAR
STARTCHAR 2FD3
ENCODING 12243
SWIDTH 990 0
DWIDTH 22 0
BBX 20 18 1 -1
BITMAP
0E1C00
0E1FF0
7FDFF0
7FDFF0
719FF0
FFC070
FFDFF0
001FF0
7FDFF0
7FDFF0
71DC00
7FDFF0
7FDFF0
7FDFF0
7FDFF0
71DFF0
77DFF0
67DFF0
ENDCHAR
STARTCHAR 2FD5
ENCODING 12245
SWIDTH 990 0
DWIDTH 22 0
BBX 19 19 2 -2
BITMAP
008000
01E000
03E000
0FBFE0
7FFFC0
FFFFC0
000000
FDF7C0
FDF7C0
FDF7C0
FDF7C0
7FFF80
7FFFC0
7739C0
7FFFC0
7FFFC0
7739C0
773FC0
6637C0
ENDCHAR
STARTCHAR 3000
ENCODING 12288
SWIDTH 990 0
DWIDTH 22 0
BBX 0 0 0 0
BITMAP
ENDCHAR
STARTCHAR 3001
ENCODING 12289
SWIDTH 990 0
DWIDTH 22 0
BBX 4 5 1 -2
BITMAP
C0
60
70
70
70
ENDCHAR
STARTCHAR 3002
ENCODING 12290
SWIDTH 990 0
DWIDTH 22 0
BBX 6 5 1 -2
BITMAP
FC
FC
CC
FC
FC
ENDCHAR
STARTCHAR 3005
ENCODING 12293
SWIDTH 990 0
DWIDTH 22 0
BBX 18 18 2 -1
BITMAP
070000
078000
0F0000
0F0100
1FFFC0
1FFFC0
380780
700780
600F00
C01E00
003C00
003800
0E7000
03E000
01F800
00F800
007800
003000
ENDCHAR
STARTCHAR 3007
ENCODING 12295
SWIDTH 945 0
DWIDTH 21 0
BBX 16 16 3 0
BITMAP
07E0
1FF8
3C3C
700E
6006
E007
C003
C003
C003
C003
E007
6006
700E
3C3C
1FF8
07E0
ENDCHAR
STARTCHAR 3008
ENCODING 12296
SWIDTH 990 0
DWIDTH 22 0
BBX 7 18 14 -1
BITMAP
0E
1E
1C
3C
38
78
70
F0
F0
F0
70
78
38
3C
3C
1C
1E
0E
ENDCHAR
STARTCHAR 3009
ENCODING 12297
SWIDTH 990 0
DWIDTH 22 0
BBX 7 18 1 -1
BITMAP
E0
F0
70
78
38
3C
1C
1E
1E
1E
1C
3C
3C
78
78
70
F0
E0
ENDCHAR
STARTCHAR 300A
ENCODING 12298
SWIDTH 945 0
DWIDTH 21 0
BBX 11 18 10 -1
BITMAP
0CE0
1DC0
1DC0
3B80
3B80
7700
7700
EE00
EE00
EE00
6600
7700
7700
3B80
3B80
19C0
1DC0
0CE0
ENDCHAR
STARTCHAR 300B
ENCODING 12299
SWIDTH 990 0
DWIDTH 22 0
BBX 11 18 1 -1
BITMAP
E600
7700
7300
3B80
3B80
1DC0
1DC0
0EE0
0EE0
0EE0
0CC0
1DC0
1DC0
3B80
3B80
7300
7700
E600
ENDCHAR
STARTCHAR 300C
ENCODING 12300
SWIDTH 990 0
DWIDTH 22 0
BBX 6 17 15 0
BITMAP
7C
FC
E0
E0
E0
E0
E0
E0
E0
E0
E0
E0
E0
E0
E0
E0
E0
ENDCHAR
STARTCHAR 300D
ENCODING 12301
SWIDTH 945 0
DWIDTH 21 0
BBX 5 16 1 -1
BITMAP
38
38
38
38
38
38
38
38
38
38
38
38
38
38
F8
F8
ENDCHAR
STARTCHAR 300E
ENCODING 12302
SWIDTH 990 0
DWIDTH 22 0
BBX 6 17 15 0
BITMAP
FC
BC
A0
A0
A0
A0
A0
A0
A0
A0
A0
A0
A0
A0
A0
A0
E0
ENDCHAR
STARTCHAR 300F
ENCODING 12303
SWIDTH 945 0
DWIDTH 21 0
BBX 5 16 1 -1
BITMAP
38
28
28
28
28
28
28
28
28
28
28
28
28
28
E8
F8
ENDCHAR
STARTCHAR 3010
ENCODING 12304
SWIDTH 990 0
DWIDTH 22 0
BBX 5 18 16 -1
BITMAP
F8
F8
F0
F0
F0
F0
E0
E0
E0
E0
E0
E0
F0
F0
F0
F0
F8
F8
ENDCHAR
STARTCHAR 3011
ENCODING 12305
SWIDTH 990 0
DWIDTH 22 0
BBX 5 18 1 -1
BITMAP
F8
F8
78
78
38
38
38
38
38
38
38
38
38
78
78
78
F8
F8
ENDCHAR
STARTCHAR 3016
ENCODING 12310
SWIDTH 990 0
DWIDTH 22 0
BBX 6 18 15 -1
BITMAP
FC
FC
D8
D8
D8
F0
F0
F0
F0
F0
F0
F0
F0
D8
D8
D8
FC
FC
ENDCHAR
STARTCHAR 3017
ENCODING 12311
SWIDTH 990 0
DWIDTH 22 0
BBX 6 18 1 -1
BITMAP
FC
FC
6C
6C
6C
3C
3C
3C
3C
3C
3C
3C
3C
6C
6C
6C
FC
FC
ENDCHAR
STARTCHAR 306E
ENCODING 12398
SWIDTH 990 0
DWIDTH 22 0
BBX 19 18 1 -2
BITMAP
01FC00
07FF00
1FFF80
3E07C0
3C03C0
7821E0
7020E0
F020E0
E060E0
E060E0
E060E0
E0E0E0
E1C1E0
F3C1C0
7F83C0
3F8380
1E0700
000C00
ENDCHAR
STARTCHAR 30FB
ENCODING 12539
SWIDTH 990 0
DWIDTH 22 0
BBX 4 4 9 6
BITMAP
60
F0
F0
60
ENDCHAR
STARTCHAR 4E00
ENCODING 19968
SWIDTH 990 0
DWIDTH 22 0
BBX 20 2 1 7
BITMAP
FFFFF0
FFFFF0
ENDCHAR
STARTCHAR 4E01
ENCODING 19969
SWIDTH 945 0
DWIDTH 21 0
BBX 19 16 1 -1
BITMAP
FFFFE0
FFFFE0
00E000
00E000
00E000
00E000
00E000
00E000
00E000
00E000
00E000
00E000
00E000
00E000
07E000
03E000
ENDCHAR
STARTCHAR 4E03
ENCODING 19971
SWIDTH 990 0
DWIDTH 22 0
BBX 20 17 1 -1
BITMAP
01C000
01C000
01C000
01C000
01C000
01FFE0
FFFFC0
7FC000
01C000
01C000
01C000
01C000
01C000
01C000
01FFF0
01FFF0
01FFE0
ENDCHAR
STARTCHAR 4E07
ENCODING 19975
SWIDTH 990 0
DWIDTH 22 0
BBX 18 16 2 -2
BITMAP
FFFFC0
FFFFC0
1C0000
1C0000
1C0000
1FFF00
1FFF80
1C0380
1C0380
1C0380
1C0380
3C0380
380380
380380
701F80
401F80
ENDCHAR
STARTCHAR 4E08
ENCODING 19976
SWIDTH 990 0
DWIDTH 22 0
BBX 19 18 2 -1
BITMAP
000E00
000E00
000E00
FFFFE0
FFFFE0
000E00
080E00
081E00
041E00
061C00
073C00
03F800
03F800
01F800
03FFE0
07FFC0
3F0FC0
C00000
ENDCHAR
STARTCHAR 4E09
ENCODING 19977
SWIDTH 990 0
DWIDTH 22 0
BBX 18 16 2 0
BITMAP
7FFF80
7FFF80
000000
000000
000000
000000
000000
3FFF00
3FFF00
000000
000000
000000
000000
000000
FFFFC0
FFFFC0
ENDCHAR
STARTCHAR 4E0A
ENCODING 19978
SWIDTH 1035 0
DWIDTH 23 0
BBX 19 17 2 -1
BITMAP
01C000
01C000
01C000
01C000
01C000
01C000
01FF80
01FF80
01C000
01C000
01C000
01C000
01C000
01C000
01C000
FFFFE0
FFFFE0
ENDCHAR
STARTCHAR 4E0B
ENCODING 19979
SWIDTH 990 0
DWIDTH 22 0
BBX 18 17 2 -2
BITMAP
FFFFC0
FFFFC0
01C000
01C000
01C000
01C000
01C000
01CF00
01C780
01C3C0
01C380
01C100
01C000
01C000
01C000
01C000
018000
ENDCHAR
STARTCHAR 4E0C
ENCODING 19980
SWIDTH 990 0
DWIDTH 22 0
BBX 18 16 2 -2
BITMAP
FFFFC0
FFFFC0
0E0E00
0E0E00
0E0E00
0E0E00
0E0E00
0E0E00
0E0E00
1E0E00
1E0E00
1C0E00
1C0E00
180E00
380E00
300E00
ENDCHAR
STARTCHAR 4E0D
ENCODING 19981
SWIDTH 990 0
DWIDTH 22 0
BBX 18 16 2 -1
BITMAP
FFFFC0
FFFFC0
018000
03C000
03C000
078000
0F1F00
1DC7C0
79C3C0
C1C180
01C100
01C000
01C000
01C000
01C000
01C000
ENDCHAR
STARTCHAR 4E0E
ENCODING 19982
SWIDTH 990 0
DWIDTH 22 0
BBX 19 19 2 -1
BITMAP
1C0000
1C0000
1C0000
1FFFE0
1FFFE0
1C0000
1C0000
1C0000
1FFFC0
1FFFC0
0001C0
0001C0
0001C0
FFF9C0
FFF9C0
0001C0
0001C0
0007C0
0007C0
ENDCHAR
STARTCHAR 4E10
ENCODING 19984
SWIDTH 1035 0
DWIDTH 23 0
BBX 19 17 2 -1
BITMAP
FFFFE0
FFFFE0
00E000
00E000
70E000
70FF80
70FF80
70E000
70E000
7FFFC0
7FFFC0
0001C0
0001C0
0001C0
0001C0
0007C0
000FC0
ENDCHAR
STARTCHAR 4E11
ENCODING 19985
SWIDTH 945 0
DWIDTH 21 0
BBX 19 17 1 -1
BITMAP
3FFF80
3FFF80
038380
038380
038380
038380
038380
038380
3FFF80
3FFF80
070380
070380
070380
070380
070380
FFFFE0
FFFFE0
ENDCHAR
STARTCHAR 4E13
ENCODING 19987
SWIDTH 945 0
DWIDTH 21 0
BBX 19 19 1 -2
BITMAP
01E000
01C000
03C000
7FFFC0
7FFFC0
078000
078000
FFFFE0
FFFFE0
0E0000
1E0300
1FFF80
0FFFC0
000F00
001E00
07F800
00FC00
003800
001800
ENDCHAR
STARTCHAR 4E14
ENCODING 19988
SWIDTH 945 0
DWIDTH 21 0
BBX 19 17 1 0
BITMAP
1FFF80
1FFF80
1C0380
1C0380
1C0380
1FFF80
1FFF80
1C0380
1C0380
1C0380
1FFF80
1FFF80
1C0380
1C0380
1C0380
FFFFE0
FFFFE0
ENDCHAR
STARTCHAR 4E15
ENCODING 19989
SWIDTH 945 0
DWIDTH 21 0
BBX 19 17 1 -1
BITMAP
7FFFC0
7FFFC0
00E000
01E000
03E000
07CE00
0F8780
1FE3C0
3CE3C0
C0E180
00E000
00E000
00E000
00E000
000000
FFFFE0
FFFFE0
ENDCHAR
STARTCHAR 4E16
ENCODING 19990
SWIDTH 990 0
DWIDTH 22 0
BBX 20 18 1 -1
BITMAP
00E380
38E380
38E380
38E380
38E380
FFFFF0
FFFFF0
38E380
38E380
38E380
38E380
38FF80
38FF00
380000
380000
3FFFF0
3FFFE0
3FFFE0
ENDCHAR
STARTCHAR 4E18
ENCODING 19992
SWIDTH 990 0
DWIDTH 22 0
BBX 20 17 1 0
BITMAP
000780
1C7F80
1FFF80
1FFF00
1C0000
1C0000
1C0000
1FFFC0
1FFFC0
1C0E00
1C0E00
1C0E00
1C0E00
1C0E00
1C0E00
FFFFF0
FFFFF0
ENDCHAR
STARTCHAR 4E19
ENCODING 19993
SWIDTH 945 0
DWIDTH 21 0
BBX 19 17 1 -2
BITMAP
FFFFE0
FFFFE0
00E000
00E000
7FFFC0
7FFFC0
70E1C0
70E1C0
71E1C0
71DDC0
73DDC0
731DC0
7401C0
7001C0
7001C0
7007C0
6007C0
ENDCHAR
STARTCHAR 4E1A
ENCODING 19994
SWIDTH 990 0
DWIDTH 22 0
BBX 20 17 1 -1
BITMAP
071C00
071C00
071C00
071C00
071C80
371CE0
771CF0
771DE0
371D80
071C00
071C00
071C00
071C00
071C00
071C00
FFFFF0
FFFFF0
ENDCHAR
STARTCHAR 4E1B
ENCODING 19995
SWIDTH 990 0
DWIDTH 22 0
BBX 20 18 1 -1
BITMAP
0E0E00
0E0E00
0E0E00
0E0E00
0E0E00
0E0E00
0E0E00
0E0E00
0FDF00
1FDF80
1DDFC0
1C39E0
3879F0
6060E0
008000
000000
FFFFF0
FFFFF0
ENDCHAR
STARTCHAR 4E1C
ENCODING 19996
SWIDTH 990 0
DWIDTH 22 0
BBX 18 18 2 0
BITMAP
0F0000
1E0000
FFFFC0
FFFFC0
3C0000
3CE000
3CE000
78E000
78E000
7FFF80
7FFF80
00E000
30E180
78E1C0
70E1C0
E0E180
03E000
01E000
ENDCHAR
STARTCHAR 4E1D
ENCODING 19997
SWIDTH 945 0
DWIDTH 21 0
BBX 19 18 1 0
BITMAP
0C0600
1E0700
1C0F00
1D0E00
3BDDC0
3399E0
FFFFC0
FF3FC0
7F3F80
0E0700
1C0E00
381C00
FF3FC0
FE3F80
783C00
000000
FFFFE0
FFFFE0
ENDCHAR
STARTCHAR 4E1E
ENCODING 19998
SWIDTH 990 0
DWIDTH 22 0
BBX 20 18 1 0
BITMAP
000300
3FFF80
3FFF80
000F00
001E00
00F880
7EF1C0
7EFBC0
0EEF80
1EEE00
1EEF80
1CE7E0
38E3E0
E3E1C0
03E000
000000
FFFFF0
FFFFF0
ENDCHAR
STARTCHAR 4E22
ENCODING 20002
SWIDTH 990 0
DWIDTH 22 0
BBX 20 18 1 -1
BITMAP
000300
007F00
3FFF80
03F800
00E000
7FFFC0
7FFFC0
00E000
00E000
00E000
FFFFF0
FFFFF0
03C800
07C600
0F0380
3FFFC0
3FF1C0
3F0180
ENDCHAR
STARTCHAR 4E24
ENCODING 20004
SWIDTH 990 0
DWIDTH 22 0
BBX 20 17 1 -2
BITMAP
FFFFF0
FFFFF0
071C00
071C00
7FFFC0
7FFFE0
771CE0
771CE0
773CE0
77BEE0
77FFE0
7FBFE0
7C70E0
78C0E0
7000E0
7003E0
6003E0
ENDCHAR
STARTCHAR 4E25
ENCODING 20005
SWIDTH 945 0
DWIDTH 21 0
BBX 19 17 1 -2
BITMAP
7FFFE0
7FFFE0
039C00
3B9CC0
3B9DE0
3B9DC0
039C00
3FFFE0
3FFFE0
380000
380000
380000
780000
700000
700000
600000
C00000
ENDCHAR
STARTCHAR 4E27
ENCODING 20007
SWIDTH 990 0
DWIDTH 22 0
BBX 20 18 1 -1
BITMAP
00E000
00E000
7FFFE0
7FFFE0
1CE380
1CE3C0
1CE780
00E000
FFFFF0
FFFFF0
1C2180
1C31C0
1C1FC0
1C1F00
1F8FE0
3F07F0
3C03E0
1800C0
ENDCHAR
STARTCHAR 4E28
ENCODING 20008
SWIDTH 945 0
DWIDTH 21 0
BBX 3 18 9 -2
BITMAP
E0
E0
E0
E0
E0
E0
E0
E0
E0
E0
E0
E0
E0
E0
E0
E0
E0
E0
ENDCHAR
STARTCHAR 4E2A
ENCODING 20010
SWIDTH 990 0
DWIDTH 22 0
BBX 18 19 2 -1
BITMAP
018000
01C000
03C000
07C000
0FF800
0F3E00
1E1FC0
780FC0
E1C7C0
01C180
01C000
01C000
01C000
01C000
01C000
01C000
01C000
01C000
018000
ENDCHAR
STARTCHAR 4E2B
ENCODING 20011
SWIDTH 990 0
DWIDTH 22 0
BBX 16 17 3 0
BITMAP
000C
F00F
3C1F
3E1E
1E3C
0C70
0000
0380
0380
0380
0380
0380
0380
0380
0380
0380
0380
ENDCHAR
STARTCHAR 4E2C
ENCODING 20012
SWIDTH 990 0
DWIDTH 22 0
BBX 10 18 6 -2
BITMAP
01C0
01C0
01C0
31C0
71C0
71C0
31C0
01C0
01C0
01C0
0FC0
FFC0
FDC0
F9C0
61C0
01C0
01C0
01C0
ENDCHAR
STARTCHAR 4E2D
ENCODING 20013
SWIDTH 1035 0
DWIDTH 23 0
BBX 19 19 2 -1
BITMAP
00E000
00E000
00E000
00E000
FFFFC0
FFFFE0
E0E1E0
E0E1E0
E0E1E0
E0E1E0
E0E1E0
FFFFE0
7FFFC0
00E000
00E000
00E000
00E000
00E000
008000
ENDCHAR
STARTCHAR 4E30
ENCODING 20016
SWIDTH 945 0
DWIDTH 21 0
BBX 19 18 1 -2
BITMAP
00E000
00E000
00E000
7FFFE0
7FFFE0
00E000
00E000
3FFF80
3FFF80
00E000
00E000
00E000
FFFFE0
FFFFE0
00E000
00E000
00E000
00E000
ENDCHAR
STARTCHAR 4E32
ENCODING 20018
SWIDTH 990 0
DWIDTH 22 0
BBX 18 18 2 -1
BITMAP
00E000
00E000
7FFF80
7FFF80
70E380
70E380
7FFF80
3FFF00
E0E000
FFFFC0
FFFFC0
E0E1C0
E0E1C0
FFFFC0
7FFFC0
00E000
00E000
00C000
ENDCHAR
STARTCHAR 4E34
ENCODING 20020
SWIDTH 990 0
DWIDTH 22 0
BBX 20 18 1 -2
BITMAP
001000
0E3E00
0E3C00
EE3FF0
EE3FF0
EE7380
EE6380
EEC380
EE0000
EE7000
EE7FF0
EE7FF0
EE7770
EE7770
EE7770
CE7770
0E7FF0
0E7FF0
ENDCHAR
STARTCHAR 4E36
ENCODING 20022
SWIDTH 990 0
DWIDTH 22 0
BBX 6 5 8 5
BITMAP
C0
78
3C
1C
18
ENDCHAR
STARTCHAR 4E38
ENCODING 20024
SWIDTH 990 0
DWIDTH 22 0
BBX 19 18 2 -1
BITMAP
0E0000
0E0000
0E0000
FFFC00
FFFE00
0E0E00
0E0E00
0E0E00
0E0E00
7E0E00
1FCE00
1FCE00
1FCE00
1D8E00
380E00
380FE0
700FE0
C00FC0
ENDCHAR
STARTCHAR 4E39
ENCODING 20025
SWIDTH 990 0
DWIDTH 22 0
BBX 20 17 1 -2
BITMAP
1FFF80
1FFF80
1D0380
1CC380
1C7380
1C7380
1C6380
1C0380
FFFFF0
FFFFF0
1C0380
1C0380
1C0380
1C0380
380380
380F80
200F80
ENDCHAR
STARTCHAR 4E3A
ENCODING 20026
SWIDTH 990 0
DWIDTH 22 0
BBX 17 18 3 -1
BITMAP
0E0000
EE0000
EE0000
EE0000
0E0000
FFFF80
FFFF80
0E0380
0E0380
0E6380
0E7380
1E7380
1C6380
1C0380
380380
300380
600F80
C00F80
ENDCHAR
STARTCHAR 4E3B
ENCODING 20027
SWIDTH 945 0
DWIDTH 21 0
BBX 19 18 1 -1
BITMAP
006000
00E000
00E000
006000
7FFFE0
7FFFE0
00E000
00E000
00E000
00E000
3FFFC0
3FFFC0
00E000
00E000
00E000
00E000
FFFFE0
FFFFE0
ENDCHAR
STARTCHAR 4E3D
ENCODING 20029
SWIDTH 990 0
DWIDTH 22 0
BBX 20 17 1 -2
BITMAP
FFFFF0
FFFFF0
000000
701C00
7F9FE0
7F9FE0
739CE0
739CE0
7B9EE0
7F9FE0
7F9FE0
739CE0
739CE0
739CE0
739CE0
779DE0
779DE0
ENDCHAR
STARTCHAR 4E3E
ENCODING 20030
SWIDTH 990 0
DWIDTH 22 0
BBX 20 18 1 -2
BITMAP
1C7380
1C73C0
1C7380
000000
7FFFE0
7FFFE0
0F0600
1F77C0
3E73F0
FFFFE0
0FFF00
007000
007000
3FFFE0
3FFFE0
007000
007000
006000
ENDCHAR
STARTCHAR 4E3F
ENCODING 20031
SWIDTH 945 0
DWIDTH 21 0
BBX 5 18 8 -1
BITMAP
38
38
38
38
38
38
38
38
38
38
38
38
38
78
70
70
60
80
ENDCHAR
STARTCHAR 4E43
ENCODING 20035
SWIDTH 990 0
DWIDTH 22 0
BBX 19 17 2 -2
BITMAP
FFFF80
FFFF80
1C0780
1C0F00
1C0F00
1C1E00
1C1E00
1C3FE0
1C1FE0
1C00E0
1C00E0
3C00E0
3800E0
3800E0
7000E0
6007E0
C007E0
ENDCHAR
STARTCHAR 4E45
ENCODING 20037
SWIDTH 990 0
DWIDTH 22 0
BBX 19 18 2 -2
BITMAP
0C0000
1F0000
1E0000
1FFE00
1FFE00
3C1E00
383E00
383C00
603C00
407800
00F800
00FC00
01FE00
03EF00
0787E0
1F07E0
3C03C0
E00180
ENDCHAR
STARTCHAR 4E47
ENCODING 20039
SWIDTH 945 0
DWIDTH 21 0
BBX 19 18 1 -1
BITMAP
000600
003E00
03FF00
3FFC00
01C000
01C000
01C000
01C000
01FFE0
FFFFE0
FFC000
01C000
01C000
01C000
01C000
01FFE0
01FFE0
01FFC0
ENDCHAR
STARTCHAR 4E48
ENCODING 20040
SWIDTH 990 0
DWIDTH 22 0
BBX 18 18 2 -1
BITMAP
030000
078000
07C000
0F8000
0F1000
1F3C00
1E3C00
387C00
70F800
C0F000
01E000
03C000
078600
0E0780
7FFFC0
7FF1C0
3FC180
3C0000
ENDCHAR
STARTCHAR 4E49
ENCODING 20041
SWIDTH 945 0
DWIDTH 21 0
BBX 18 18 2 -2
BITMAP
00C000
01C000
11C700
10CF80
100F00
080F00
080F00
0C1E00
0E1E00
073C00
07FC00
03F800
01F000
01FC00
03FFC0
0FBFC0
3E0FC0
C00100
ENDCHAR
STARTCHAR 4E4B
ENCODING 20043
SWIDTH 945 0
DWIDTH 21 0
BBX 20 19 1 -2
BITMAP
006000
00E000
00E000
006000
000000
7FFF80
7FFFC0
000F80
001F00
003E00
007C00
01F800
03E000
07C000
0F8000
1F0000
3FFFF0
FFFFE0
73FFE0
ENDCHAR
STARTCHAR 4E4C
ENCODING 20044
SWIDTH 990 0
DWIDTH 22 0
BBX 18 18 2 0
BITMAP
00C000
00E000
1FFF00
1FFF00
1C0700
1C0700
1C1700
1C1F00
1C0200
1FFFC0
1FFFC0
0001C0
0001C0
FFF9C0
FFF9C0
0001C0
0007C0
0007C0
ENDCHAR
STARTCHAR 4E4D
ENCODING 20045
SWIDTH 990 0
DWIDTH 22 0
BBX 19 18 2 -2
BITMAP
180000
3E0000
3C0000
3FFFE0
7FFFE0
79C000
71C000
E1FF80
81FF80
01C000
01C000
01C000
01FFC0
01FFC0
01C000
01C000
01C000
01C000
ENDCHAR
STARTCHAR 4E4E
ENCODING 20046
SWIDTH 990 0
DWIDTH 22 0
BBX 20 18 1 0
BITMAP
000380
007F80
3FFFC0
07FF00
007000
1C7180
1C71C0
1C7380
007000
FFFFF0
FFFFF0
007000
007000
007000
007000
007000
03F000
03F000
ENDCHAR
STARTCHAR 4E4F
ENCODING 20047
SWIDTH 990 0
DWIDTH 22 0
BBX 19 18 1 -1
BITMAP
000700
00FF80
7FFF80
0FFF00
006000
00E000
00E000
006000
7FFF80
7FFF80
001F80
007F00
00FC00
03F000
0FC000
3FFFE0
7FFFE0
FFFFE0
ENDCHAR
STARTCHAR 4E50
ENCODING 20048
SWIDTH 990 0
DWIDTH 22 0
BBX 18 18 2 -1
BITMAP
000300
007F00
7FFF00
77FC00
700000
70E000
70E000
70E000
70E000
7FFFC0
7FFFC0
00E000
30E0C0
78E1C0
70E1C0
E0E0C0
03E000
03E000
ENDCHAR
STARTCHAR 4E52
ENCODING 20050
SWIDTH 990 0
DWIDTH 22 0
BBX 20 17 1 -1
BITMAP
000080
000F80
1FFF80
1CF800
1C0000
1C0000
1FFFE0
1FFFE0
1C0E00
1C0E00
1C0E00
FFFFF0
FFFFF0
040000
0E0000
0E0000
3E0000
ENDCHAR
STARTCHAR 4E53
ENCODING 20051
SWIDTH 990 0
DWIDTH 22 0
BBX 20 17 1 0
BITMAP
000F80
1FFF80
1CF800
1C0000
1C0000
1FFFC0
1FFFC0
1C0E00
1C0E00
1C0E00
1C0E00
FFFFF0
FFFFF0
000300
000380
000380
000300
ENDCHAR
STARTCHAR 4E54
ENCODING 20052
SWIDTH 990 0
DWIDTH 22 0
BBX 19 19 1 -1
BITMAP
000F00
01FF00
3FFF00
0FFC00
01E000
01E000
FFFFE0
FFFFE0
0F8F00
1E07E0
3C03E0
FE0FC0
0E0E00
0E0E00
0E0E00
0E0E00
1E0E00
1C0E00
300800
ENDCHAR
STARTCHAR 4E56
ENCODING 20054
SWIDTH 990 0
DWIDTH 22 0
BBX 19 19 2 -1
BITMAP
000E00
01FF00
3FFF00
0FFC00
00E000
FFFFE0
FFFFE0
00E000
1CEE00
FCEEE0
FCEFC0
1CEE00
1CEE00
FCEFE0
FCEFC0
5CE7C0
00E000
00E000
008000
ENDCHAR
STARTCHAR 4E58
ENCODING 20056
SWIDTH 990 0
DWIDTH 22 0
BBX 19 18 1 -1
BITMAP
000E00
01FF00
3FFF00
0FFE00
FFFFE0
FFFFE0
00E000
0EEE00
FEEEC0
FEEFC0
0EEE00
FEEFE0
FEEFC0
48E7C0
08E200
1CE700
7CE7C0
F8E3E0
ENDCHAR
STARTCHAR 4E59
ENCODING 20057
SWIDTH 990 0
DWIDTH 22 0
BBX 18 16 2 -1
BITMAP
FFFF00
FFFF00
001F00
003E00
007C00
00F800
01F000
03E000
07C000
0F8000
1F0000
3E0000
7C0000
FFFFC0
FFFFC0
FFFFC0
ENDCHAR
STARTCHAR 4E5C
ENCODING 20060
SWIDTH 990 0
DWIDTH 22 0
BBX 20 17 1 -1
BITMAP
1C0000
1C0000
1C01C0
1C7FC0
1FFDC0
FF01C0
DC01C0
1C01C0
1C01C0
1C01C0
1C0FC0
1C0FC0
1C0000
1C0000
1FFFF0
1FFFF0
1FFFE0
ENDCHAR
STARTCHAR 4E5D
ENCODING 20061
SWIDTH 990 0
DWIDTH 22 0
BBX 19 18 2 -1
BITMAP
0E0000
0E0000
0E0000
0E0000
FFFC00
FFFE00
0E0E00
0E0E00
0E0E00
0E0E00
0E0E00
1E0E00
1C0E00
1C0E00
380E00
380FE0
700FE0
C00FC0
ENDCHAR
STARTCHAR 4E5E
ENCODING 20062
SWIDTH 990 0
DWIDTH 22 0
BBX 20 18 1 0
BITMAP
1E0000
1F0000
1FFFE0
1FFFE0
3C0000
380000
7FFF80
9FFF80
001F80
007E00
00FC00
01F800
03F000
0FC000
1F8000
3FFFF0
3FFFE0
1FFFE0
ENDCHAR
STARTCHAR 4E5F
ENCODING 20063
SWIDTH 990 0
DWIDTH 22 0
BBX 20 18 1 -1
BITMAP
007000
007000
387000
3877E0
3BFFE0
FFF1E0
F871E0
3871E0
3871E0
3871E0
3875E0
3877E0
3871C0
384000
380000
3FFFF0
3FFFF0
3FFFF0
ENDCHAR
STARTCHAR 4E60
ENCODING 20064
SWIDTH 990 0
DWIDTH 22 0
BBX 16 17 3 -1
BITMAP
FFFF
FFFF
0007
0007
0C07
1E07
1E07
0C07
0027
00C7
0787
1F07
FE07
FC07
7807
203F
001F
ENDCHAR
STARTCHAR 4E61
ENCODING 20065
SWIDTH 990 0
DWIDTH 22 0
BBX 18 18 2 -1
BITMAP
018000
03C000
07C400
0F0E00
7FFF00
7FFE00
7FFC00
3CF9C0
03E3C0
0783C0
FFFF80
7FFF80
7FDF00
7C7E00
00FC00
03F000
1FC000
FE0000
ENDCHAR
STARTCHAR 4E66
ENCODING 20070
SWIDTH 990 0
DWIDTH 22 0
BBX 18 19 2 -1
BITMAP
038000
0381C0
0381C0
3FFF00
3FFF00
038700
038700
038700
038700
FFFFC0
FFFFC0
0381C0
0381C0
0381C0
0381C0
0387C0
0387C0
038000
020000
ENDCHAR
STARTCHAR 4E69
ENCODING 20073
SWIDTH 990 0
DWIDTH 22 0
BBX 20 18 1 -1
BITMAP
0E0700
0E0700
0E0700
0FE700
0FE700
0E0700
0E0700
EE0700
FFE700
FFE700
F0E700
F0E700
F0E700
F0E700
F0E7F0
FFE7F0
FFC7F0
038000
ENDCHAR
STARTCHAR 4E70
ENCODING 20080
SWIDTH 990 0
DWIDTH 22 0
BBX 19 17 2 -1
BITMAP
000180
7FFFE0
7FFFC0
0873C0
1E7380
0E7600
707000
3C7000
187000
00F000
FFFFE0
FFFFE0
03FE00
03DFC0
0787C0
1F0380
7C0080
ENDCHAR
STARTCHAR 4E71
ENCODING 20081
SWIDTH 990 0
DWIDTH 22 0
BBX 20 19 1 -1
BITMAP
00C700
07C700
FFE700
3F8700
0F0700
0F0700
FFE700
FFE700
0F0700
0F0700
0F0700
7FE700
7FE700
70E700
70E700
70E7F0
7FE7F0
7FC7F0
018000
ENDCHAR
STARTCHAR 4E73
ENCODING 20083
SWIDTH 990 0
DWIDTH 22 0
BBX 21 18 0 0
BITMAP
00E700
BFE700
7FC700
000700
776700
77F700
77E700
7FE700
7FF700
01E700
01C700
073700
7FC700
7F0700
7F0700
0707F8
1F07F8
1F07F0
ENDCHAR
STARTCHAR 4E7E
ENCODING 20094
SWIDTH 990 0
DWIDTH 22 0
BBX 20 18 1 -2
BITMAP
1E1C00
1E1E00
FFDC00
FFDFF0
1E1FF0
FFD800
FFF000
E1FFC0
FFDFE0
FFC3E0
E1C3C0
FFC780
7F8700
1E0F00
FFDE00
FFDFF0
1E3FF0
1C1FF0
ENDCHAR
STARTCHAR 4E86
ENCODING 20102
SWIDTH 990 0
DWIDTH 22 0
BBX 17 18 2 0
BITMAP
000300
FFFF80
FFFF80
000F00
001E00
003C00
007800
01E000
01C000
01C000
01C000
01C000
01C000
01C000
01C000
09C000
0FC000
07C000
ENDCHAR
STARTCHAR 4E88
ENCODING 20104
SWIDTH 990 0
DWIDTH 22 0
BBX 20 18 1 0
BITMAP
000300
3FFFC0
3FFF80
000F00
001E00
03F800
01F000
00F0C0
FFFFF0
FFFFE0
00E1C0
00E180
00E000
00E000
00E000
00E000
07E000
03E000
ENDCHAR
STARTCHAR 4E89
ENCODING 20105
SWIDTH 945 0
DWIDTH 21 0
BBX 19 18 1 0
BITMAP
1C0000
1E0C00
1FFF00
3FFE00
383800
7FFF80
BFFF80
01C380
FFFFE0
FFFFE0
01C380
01C380
3FFF80
3FFF80
01C000
01C000
07C000
03C000
ENDCHAR
STARTCHAR 4E8B
ENCODING 20107
SWIDTH 990 0
DWIDTH 22 0
BBX 20 18 1 -1
BITMAP
00E000
FFFFE0
FFFFE0
3FFFC0
3FFFC0
38E1C0
3FFFC0
0FFF00
7FFFC0
7FFFC0
00E1C0
FFFFF0
FFFFF0
00E1C0
7FFFC0
7FFFC0
03E000
03E000
ENDCHAR
STARTCHAR 4E8C
ENCODING 20108
SWIDTH 945 0
DWIDTH 21 0
BBX 19 14 1 1
BITMAP
7FFF80
7FFF80
000000
000000
000000
000000
000000
000000
000000
000000
000000
000000
FFFFE0
FFFFE0
ENDCHAR
STARTCHAR 4E8D
ENCODING 20109
SWIDTH 945 0
DWIDTH 21 0
BBX 19 17 1 -1
BITMAP
7FFF80
7FFF80
000000
000000
000000
000000
FFFFE0
FFFFE0
00E000
00E000
00E000
00E000
00E000
00E000
00E000
07E000
07E000
ENDCHAR
STARTCHAR 4E8E
ENCODING 20110
SWIDTH 945 0
DWIDTH 21 0
BBX 19 17 1 -1
BITMAP
7FFF80
7FFF80
00E000
00E000
00E000
00E000
00E000
FFFFE0
FFFFE0
00E000
00E000
00E000
00E000
00E000
00E000
07E000
07E000
ENDCHAR
STARTCHAR 4E8F
ENCODING 20111
SWIDTH 945 0
DWIDTH 21 0
BBX 19 17 1 -1
BITMAP
7FFF80
7FFF80
000000
000000
000000
FFFFE0
FFFFE0
1C0000
1C0000
1C0000
1FFF80
0FFF80
000380
000380
000380
001F80
001F80
ENDCHAR
STARTCHAR 4E91
ENCODING 20113
SWIDTH 945 0
DWIDTH 21 0
BBX 19 17 1 -2
BITMAP
3FFF80
3FFF80
000000
000000
000000
000000
FFFFE0
FFFFE0
038000
07C000
078000
070600
0E0300
1C0380
7FFFC0
3FF1C0
3F0180
ENDCHAR
STARTCHAR 4E92
ENCODING 20114
SWIDTH 945 0
DWIDTH 21 0
BBX 19 17 1 -1
BITMAP
FFFFC0
FFFFC0
1C0000
1C0000
1C0000
3FFF00
3FFF00
3C0F00
380F00
380F00
380E00
3FFE00
3FFE00
000E00
001E00
FFFFE0
FFFFE0
ENDCHAR
STARTCHAR 4E93
ENCODING 20115
SWIDTH 945 0
DWIDTH 21 0
BBX 19 17 1 -1
BITMAP
3FFF80
3FFF80
000000
000000
000000
000000
FFFFE0
FFFFE0
0E0E00
0E0E00
0E0E00
0E0E00
1E0E00
1C0E00
1C0E00
380E00
700C00
ENDCHAR
STARTCHAR 4E94
ENCODING 20116
SWIDTH 945 0
DWIDTH 21 0
BBX 19 17 1 -1
BITMAP
7FFFE0
7FFFE0
070000
070000
070000
0F0000
7FFF00
7FFF00
0F0700
0F0700
0E0700
0E0700
0E0700
0E0700
1E0700
FFFFE0
FFFFE0
ENDCHAR
STARTCHAR 4E95
ENCODING 20117
SWIDTH 990 0
DWIDTH 22 0
BBX 20 17 1 0
BITMAP
0E0E00
0E0E00
0E0E00
7FFFE0
7FFFE0
0E0E00
0E0E00
0E0E00
0E0E00
FFFFF0
FFFFF0
0E0E00
0E0E00
1C0E00
1C0E00
380E00
300E00
ENDCHAR
STARTCHAR 4E98
ENCODING 20120
SWIDTH 945 0
DWIDTH 21 0
BBX 19 17 1 -1
BITMAP
7FFFE0
7FFFE0
000000
380000
3FFF80
3FFF80
380380
380380
3FFF80
3FFF80
380380
380380
3FF700
3FF700
000E00
FFFFE0
FFFFE0
ENDCHAR
STARTCHAR 4E9A
ENCODING 20122
SWIDTH 990 0
DWIDTH 22 0
BBX 20 16 1 -1
BITMAP
7FFFE0
7FFFE0
071C00
071C00
071C80
371CE0
771CE0
771DE0
371D80
071C00
071C00
071C00
071C00
071C00
FFFFF0
FFFFF0
ENDCHAR
STARTCHAR 4E9B
ENCODING 20123
SWIDTH 990 0
DWIDTH 22 0
BBX 20 18 1 -1
BITMAP
071C00
071C00
771C40
77DDE0
77DFE0
771D00
771C00
771C00
77DFF0
FF1FF0
FC1FE0
600000
3FFF80
3FFF80
000000
000000
7FFFE0
7FFFE0
ENDCHAR
STARTCHAR 4E9F
ENCODING 20127
SWIDTH 990 0
DWIDTH 22 0
BBX 20 18 1 -1
BITMAP
000300
3FFF80
3FFF80
000F00
001C00
EE77E0
FE77E0
EE70E0
EE70E0
EE76E0
EE71C0
FE71E0
FE73E0
0D7760
19F440
01F000
FFFFF0
FFFFF0
ENDCHAR
STARTCHAR 4EA0
ENCODING 20128
SWIDTH 990 0
DWIDTH 22 0
BBX 20 6 1 12
BITMAP
006000
00E000
00E000
006000
FFFFF0
FFFFF0
ENDCHAR
STARTCHAR 4EA1
ENCODING 20129
SWIDTH 990 0
DWIDTH 22 0
BBX 20 18 1 -1
BITMAP
00E000
00E000
00E000
000000
000000
FFFFF0
FFFFF0
1C0000
1C0000
1C0000
1C0000
1C0000
1C0000
1C0000
1C0000
1FFFE0
1FFFE0
1FFFC0
ENDCHAR
STARTCHAR 4EA2
ENCODING 20130
SWIDTH 990 0
DWIDTH 22 0
BBX 20 19 1 -1
BITMAP
004000
00E000
00E000
FFFFE0
FFFFE0
000000
1C0000
1FFE00
1FFE00
1C0E00
1C0E00
1C0E00
1C0E00
1C0E00
1C0E00
380E00
380FF0
700FE0
400FE0
ENDCHAR
STARTCHAR 4EA4
ENCODING 20132
SWIDTH 990 0
DWIDTH 22 0
BBX 18 19 2 -2
BITMAP
004000
00E000
00E000
FFFFC0
FFFFC0
000000
0C0C00
1E0700
1E0780
3C1380
703B00
043C00
027C00
03F800
01F800
01FC00
07FFC0
1FBF80
FC0F00
ENDCHAR
STARTCHAR 4EA5
ENCODING 20133
SWIDTH 990 0
DWIDTH 22 0
BBX 18 18 2 -1
BITMAP
00E000
00E000
FFFFC0
FFFFC0
078000
078800
0F1E00
7FFE00
7FFD00
3EFB80
01F7C0
03EFC0
0FBF80
3E7F00
E1FE00
07FFC0
3FC3C0
FE00C0
ENDCHAR
STARTCHAR 4EA6
ENCODING 20134
SWIDTH 990 0
DWIDTH 22 0
BBX 20 19 1 -1
BITMAP
006000
00E000
00E000
006000
FFFFF0
FFFFF0
039C00
039C00
039C00
639C00
7B9C60
739CE0
739CE0
C79C60
079C00
071C00
0F1C00
0E7C00
187C00
ENDCHAR
STARTCHAR 4EA7
ENCODING 20135
SWIDTH 990 0
DWIDTH 22 0
BBX 18 19 2 -1
BITMAP
004000
00E000
00E000
FFFFC0
FFFFC0
0E0C00
0E0E00
0E1C00
000000
7FFFC0
7FFFC0
700000
700000
700000
700000
700000
E00000
C00000
800000
ENDCHAR
STARTCHAR 4EA8
ENCODING 20136
SWIDTH 945 0
DWIDTH 21 0
BBX 19 19 1 -1
BITMAP
00C000
00E000
FFFFE0
FFFFE0
1C0000
1FFF80
1FFF80
1C0380
1FFF80
1FFF00
000900
7FFF80
7FFF80
001F00
00FC00
00E000
00E000
07E000
07E000
ENDCHAR
STARTCHAR 4EA9
ENCODING 20137
SWIDTH 990 0
DWIDTH 22 0
BBX 20 19 1 -1
BITMAP
006000
00E000
00E000
006000
FFFFF0
FFFFF0
000000
3FFFC0
3FFFC0
38E1C0
38E1C0
38E1C0
3FFFC0
3FFFC0
38E1C0
38E1C0
38E1C0
3FFFC0
3FFF80
ENDCHAR
STARTCHAR 4EAB
ENCODING 20139
SWIDTH 990 0
DWIDTH 22 0
BBX 20 19 1 -1
BITMAP
006000
00E000
FFFFE0
FFFFE0
1C0000
1FFF80
1FFF80
1C0380
1FF700
1FF700
000A00
3FFF00
3FFF80
001F00
FFFFF0
FFFFF0
00E000
03E000
07E000
ENDCHAR
STARTCHAR 4EAC
ENCODING 20140
SWIDTH 990 0
DWIDTH 22 0
BBX 20 18 1 0
BITMAP
007000
007000
7FFFF0
7FFFF0
1C0000
1FFF80
1FFF80
1C0380
1C0380
1C0380
1FFF80
0FFF80
3870C0
3C70E0
3870E0
7870C0
E3F000
03F000
ENDCHAR
STARTCHAR 4EAD
ENCODING 20141
SWIDTH 945 0
DWIDTH 21 0
BBX 19 19 1 -1
BITMAP
006000
00E000
FFFFE0
FFFFE0
1FFF00
1FFF80
1C0380
1FF700
1FFE00
E00000
FFFFE0
FFFFE0
E000E0
EFFEC0
0FFE00
00E000
00E000
07E000
07E000
ENDCHAR
STARTCHAR 4EAE
ENCODING 20142
SWIDTH 945 0
DWIDTH 21 0
BBX 19 20 1 -2
BITMAP
004000
00E000
FFFFE0
FFFFE0
1C0000
1FFF80
1FFF80
1FFF80
0FFF00
000000
FFFFC0
FFFFE0
E000E0
EFFCC0
0FFE00
0E1E00
0E1FE0
1C1FE0
380FE0
400000
ENDCHAR
STARTCHAR 4EB2
ENCODING 20146
SWIDTH 945 0
DWIDTH 21 0
BBX 19 19 1 0
BITMAP
00E000
00E000
7FFFE0
7FFFE0
060600
0E0F00
0E0F00
061C00
FFFFE0
FFFFE0
00E000
00E000
7FFFE0
7FFFE0
30E180
38E1C0
78E1C0
73E180
E3E000
ENDCHAR
STARTCHAR 4EB3
ENCODING 20147
SWIDTH 945 0
DWIDTH 21 0
BBX 19 19 1 -1
BITMAP
00C000
00E000
FFFFC0
FFFFC0
3FFF00
3FFF00
380700
3FFF00
1FFE00
FFFFC0
FFFFC0
E079C0
EFFDC0
01C000
FFFFE0
FFFFE0
01C000
01FFC0
01FFC0
ENDCHAR
STARTCHAR 4EB5
ENCODING 20149
SWIDTH 990 0
DWIDTH 22 0
BBX 19 18 2 -1
BITMAP
00E000
FFFFE0
FFFFE0
1C3800
FFFF80
FFFF80
FE7B80
FC7B80
1CFFE0
7D0BE0
032100
0FB380
7F3F80
9C1E00
0E0F80
3FCFE0
3F03C0
1C0180
ENDCHAR
STARTCHAR 4EBA
ENCODING 20154
SWIDTH 990 0
DWIDTH 22 0
BBX 18 18 2 -1
BITMAP
01C000
01C000
01C000
01C000
01C000
01C000
01C000
01E000
01E000
03E000
03F000
03B000
07B800
071E00
0F1F00
1E0FC0
380780
E00300
ENDCHAR
STARTCHAR 4EBB
ENCODING 20155
SWIDTH 945 0
DWIDTH 21 0
BBX 6 18 1 -1
BITMAP
38
3C
3C
3C
78
70
70
F8
F8
38
38
38
38
38
38
38
38
30
ENDCHAR
STARTCHAR 4EBF
ENCODING 20159
SWIDTH 990 0
DWIDTH 22 0
BBX 20 18 1 -2
BITMAP
1E0000
1F7FF0
1E7FF0
1E00F0
3C01E0
3803E0
3803C0
7C0780
7C0780
DC0F00
1C0F00
1C1E00
1C1E00
1C3C00
1C7800
1C7FF0
1C7FF0
1C7FF0
ENDCHAR
STARTCHAR 4EC0
ENCODING 20160
SWIDTH 990 0
DWIDTH 22 0
BBX 20 18 1 -2
BITMAP
1E0E00
1E0E00
1E0E00
1C0E00
3C0E00
380E00
780E00
7DFFF0
DC0E00
1C0E00
1C0E00
1C0E00
1C0E00
1C0E00
1C0E00
1C0E00
1C0E00
100000
ENDCHAR
STARTCHAR 4EC1
ENCODING 20161
SWIDTH 990 0
DWIDTH 22 0
BBX 19 18 2 -2
BITMAP
3C0000
3E0000
3DFFC0
3DFFC0
780000
700000
700000
F80000
F80000
380000
380000
380000
380000
380000
380000
39FFE0
39FFE0
380000
ENDCHAR
STARTCHAR 4EC2
ENCODING 20162
SWIDTH 945 0
DWIDTH 21 0
BBX 19 18 1 -2
BITMAP
3C7000
3E7000
3C7000
3C7000
39FFE0
79FFE0
7070E0
F870E0
F870E0
3870E0
3870E0
3870E0
3870E0
38F0E0
38E0E0
38E0E0
39C3E0
3903E0
ENDCHAR
STARTCHAR 4EC3
ENCODING 20163
SWIDTH 990 0
DWIDTH 22 0
BBX 20 18 1 -2
BITMAP
1C0000
1EFFF0
1CFFF0
3C0E00
380E00
380E00
700E00
780E00
F80E00
380E00
380E00
380E00
380E00
380E00
380E00
380E00
383E00
383E00
ENDCHAR
STARTCHAR 4EC4
ENCODING 20164
SWIDTH 945 0
DWIDTH 21 0
BBX 20 18 1 -2
BITMAP
3FFFE0
3FFFE0
380000
383800
383800
383800
383800
383800
383800
383800
383C00
383C00
387E00
387700
38F780
71E3F0
63C3E0
C701C0
ENDCHAR
STARTCHAR 4EC5
ENCODING 20165
SWIDTH 945 0
DWIDTH 21 0
BBX 20 18 1 -2
BITMAP
180000
1E0000
1CFFC0
3CFFC0
38C1C0
38C1C0
70C1C0
78E3C0
F863C0
387380
387F80
383F80
383F00
381F00
383FF0
387FE0
38F3E0
3B80C0
ENDCHAR
STARTCHAR 4EC6
ENCODING 20166
SWIDTH 945 0
DWIDTH 21 0
BBX 19 18 1 -1
BITMAP
1E3800
1E3800
1C3800
3C3800
383800
383800
7C3F00
7C3BC0
DC39E0
1C38E0
1C38E0
1C3800
1C3800
1C3800
1C3800
1C3800
1C3800
102000
ENDCHAR
STARTCHAR 4EC7
ENCODING 20167
SWIDTH 990 0
DWIDTH 22 0
BBX 20 18 1 -2
BITMAP
38E000
3EE000
3CE000
3CE000
39FF80
79FF80
70E380
78E380
F8E380
38E380
38E380
38E380
38E380
38E380
39C380
39C3F0
3983F0
3B03E0
ENDCHAR
STARTCHAR 4EC9
ENCODING 20169
SWIDTH 990 0
DWIDTH 22 0
BBX 20 18 1 -2
BITMAP
380000
3CE000
3CFFC0
3CFFC0
78E1C0
70E1C0
70E1C0
F8E1C0
F8E1C0
38E1C0
38E1C0
38E1C0
38E1C0
38E1C0
39E1C0
39C1F0
3981F0
3301E0
ENDCHAR
STARTCHAR 4ECA
ENCODING 20170
SWIDTH 990 0
DWIDTH 22 0
BBX 20 19 1 -1
BITMAP
008000
00E000
01F000
03E000
07FC00
0F9F80
1F0FF0
3CE7E0
E0E1E0
00E000
000200
3FFF80
3FFF80
000F80
000F00
001E00
003C00
003800
00E000
ENDCHAR
STARTCHAR 4ECB
ENCODING 20171
SWIDTH 990 0
DWIDTH 22 0
BBX 19 18 1 0
BITMAP
01E000
01F000
03E000
07FC00
0F9F00
1F0FE0
3C07E0
E001C0
0E0E00
0E0E00
0E0E00
0E0E00
0E0E00
0E0E00
1E0E00
1C0E00
180E00
300C00
ENDCHAR
STARTCHAR 4ECD
ENCODING 20173
SWIDTH 990 0
DWIDTH 22 0
BBX 20 18 1 -2
BITMAP
1C0000
1EFFE0
1CFFE0
3C01E0
3871C0
3871C0
7073C0
787380
F877F0
387070
387070
386070
386070
38E070
38C070
38C070
3983F0
3201F0
ENDCHAR
STARTCHAR 4ECE
ENCODING 20174
SWIDTH 990 0
DWIDTH 22 0
BBX 19 18 2 -1
BITMAP
1C1C00
1C1C00
1C1C00
1C1C00
1C1C00
1C1C00
1C1C00
1C1C00
1C1C00
1FBC00
1FBE00
3FBA00
383B00
387B80
3873C0
70E1E0
E0C1E0
8180C0
ENDCHAR
STARTCHAR 4ED1
ENCODING 20177
SWIDTH 990 0
DWIDTH 22 0
BBX 19 18 2 0
BITMAP
018000
01E000
03E000
07F800
0FBF00
1F1FE0
3C07C0
F003C0
1C0C00
1C1E00
1C7F00
1CFC00
1FF000
1C0000
1C0000
1FFFC0
1FFF80
1FFF80
ENDCHAR
STARTCHAR 4ED3
ENCODING 20179
SWIDTH 945 0
DWIDTH 21 0
BBX 19 18 1 0
BITMAP
01E000
01E000
03F800
07DF00
0F9FE0
1F07E0
7C03C0
8000C0
1FFF00
1FFF00
1C0700
1C0700
1C3F00
1C3E00
1C0000
1FFFE0
1FFFE0
1FFFC0
ENDCHAR
STARTCHAR 4ED4
ENCODING 20180
SWIDTH 990 0
DWIDTH 22 0
BBX 21 18 0 -2
BITMAP
1C0060
1E7FF0
1E7FF0
1E00E0
3C01E0
3C0380
380300
7C0700
7C0700
9CFFF8
1CFFF8
1C0700
1C0700
1C0700
1C0700
1C0700
1C3F00
1C3F00
ENDCHAR
STARTCHAR 4ED5
ENCODING 20181
SWIDTH 990 0
DWIDTH 22 0
BBX 21 18 0 -1
BITMAP
1E0700
1E0700
1E0700
1C0700
3C0700
38FFF8
30FFF8
7C0700
9C0700
1C0700
1C0700
1C0700
1C0700
1C0700
1C0700
1CFFF0
1CFFF0
100000
ENDCHAR
STARTCHAR 4ED6
ENCODING 20182
SWIDTH 990 0
DWIDTH 22 0
BBX 20 18 1 -2
BITMAP
380E00
3C0E00
3DCE00
3DCE00
79CEE0
79FFE0
73FEE0
7BCEE0
F9CEE0
39CEE0
39CEE0
39CFE0
39CFE0
39CC00
39C000
39FFF0
39FFF0
39FFE0
ENDCHAR
STARTCHAR 4ED7
ENCODING 20183
SWIDTH 945 0
DWIDTH 21 0
BBX 20 18 0 -1
BITMAP
0E01C0
1E01C0
1E01C0
1DFFF0
1DFFF0
3801C0
3C41C0
7C43C0
9C63C0
1C6380
1C3380
1C3F80
1C3F00
1C1F00
1C1FF0
1C3FF0
1CF1E0
010000
ENDCHAR
STARTCHAR 4ED8
ENCODING 20184
SWIDTH 990 0
DWIDTH 22 0
BBX 21 18 0 -2
BITMAP
0E01C0
0F01C0
1E01C0
1E01C0
1CFFF8
3CFFF8
3801C0
3C01C0
7C01C0
9C31C0
1C39C0
1C39C0
1C31C0
1C01C0
1C01C0
1C01C0
1C0FC0
180FC0
ENDCHAR
STARTCHAR 4ED9
ENCODING 20185
SWIDTH 990 0
DWIDTH 22 0
BBX 20 17 1 -1
BITMAP
1E0E00
1C0E00
3C0E00
380E00
39CE70
71CE70
79CE70
F9CE70
39CE70
39CE70
39CE70
39CE70
39CE70
39CE70
39CE70
39FFF0
39FFF0
ENDCHAR
STARTCHAR 4EDD
ENCODING 20189
SWIDTH 990 0
DWIDTH 22 0
BBX 19 18 2 -1
BITMAP
018000
01C000
03C000
07F000
0FBF00
1F1FE0
3E0FE0
F803C0
000080
3FFF00
3FFF00
01C000
01C000
01C000
01C000
01C000
FFFFC0
FFFFC0
ENDCHAR
STARTCHAR 4EDE
ENCODING 20190
SWIDTH 945 0
DWIDTH 21 0
BBX 19 18 1 -2
BITMAP
3C0000
3DFFE0
3DFFE0
3C1CE0
781CE0
701CE0
701CE0
F9DCE0
F9DCE0
39DCE0
39DCE0
3BBCE0
3B3CE0
3838E0
3878E0
3870E0
38E3E0
3181E0
ENDCHAR
STARTCHAR 4EDF
ENCODING 20191
SWIDTH 990 0
DWIDTH 22 0
BBX 20 18 1 0
BITMAP
3C00C0
3E07E0
3CFFE0
3C3F80
780E00
700E00
700E00
F80E00
F9FFF0
39FFF0
380E00
380E00
380E00
380E00
380E00
380E00
380E00
300800
ENDCHAR
STARTCHAR 4EE1
ENCODING 20193
SWIDTH 990 0
DWIDTH 22 0
BBX 21 18 0 -2
BITMAP
1C6000
1F7000
1E7000
1E7FF8
3C7FF8
3CE000
38C000
3D7FF0
7C7FF0
9C01F0
1C03E0
1C07C0
1C0F00
1C1E00
1C3C00
1C7FF8
1CFFF8
1C7FF8
ENDCHAR
STARTCHAR 4EE3
ENCODING 20195
SWIDTH 945 0
DWIDTH 21 0
BBX 19 18 1 -2
BITMAP
3CF000
3CF380
3C7380
387380
787800
7038E0
703FE0
FBFE00
FB9C00
381C00
381E00
380E00
380F00
380F00
380720
3807E0
3807C0
300300
ENDCHAR
STARTCHAR 4EE4
ENCODING 20196
SWIDTH 990 0
DWIDTH 22 0
BBX 20 17 1 0
BITMAP
00E000
01F000
03E000
07F800
0FDF00
3FEFF0
78E3E0
80E040
000300
3FFF80
3FFF80
000F00
001E00
07F800
01FC00
007C00
003800
ENDCHAR
STARTCHAR 4EE5
ENCODING 20197
SWIDTH 990 0
DWIDTH 22 0
BBX 20 19 1 -2
BITMAP
000E00
700E00
700E00
700E00
700E00
718E00
71CE00
71CE00
718E00
700E00
700E00
700E00
709E00
771FC0
7E3DE0
FC38F0
F870F0
70E060
010000
ENDCHAR
STARTCHAR 4EE8
ENCODING 20200
SWIDTH 1035 0
DWIDTH 23 0
BBX 20 17 2 -1
BITMAP
3E0000
3FFFE0
3DFFE0
3C0000
780000
700000
600000
F80000
B8FFC0
38FFC0
380000
380000
380000
380000
380000
39FFF0
39FFF0
ENDCHAR
STARTCHAR 4EEA
ENCODING 20202
SWIDTH 945 0
DWIDTH 21 0
BBX 21 18 0 -2
BITMAP
0E0E00
0E0E00
1E0E40
1E80F0
1C40F0
1C40F0
3860E0
3C61E0
7C31E0
9C31C0
1C3BC0
1C1F80
1C1F80
1C0F00
1C0FC0
1C1FF8
1C7BF0
1DC0E0
ENDCHAR
STARTCHAR 4EEB
ENCODING 20203
SWIDTH 990 0
DWIDTH 22 0
BBX 20 18 1 -1
BITMAP
383800
3C3C00
3C3C00
3C7800
787B00
7073C0
70E7C0
F8E780
F98780
390F00
381E00
381C00
383880
3871E0
39FFF0
39FE70
39F870
30C040
ENDCHAR
STARTCHAR 4EEC
ENCODING 20204
SWIDTH 990 0
DWIDTH 22 0
BBX 20 18 1 -2
BITMAP
180000
3FC000
3DCFF0
3DCFF0
380070
39C070
71C070
79C070
F9C070
39C070
39C070
39C070
39C070
39C070
39C070
39C070
39C3F0
39C3F0
ENDCHAR
STARTCHAR 4EEE
ENCODING 20206
SWIDTH 945 0
DWIDTH 21 0
BBX 20 18 1 -1
BITMAP
3800E0
3CE7E0
3CFFE0
3CE200
78E000
70E000
70FFE0
F8FFE0
B8ECE0
38EDE0
38EDE0
38EFC0
39E7C0
39C780
39C7C0
39CFF0
3B9FE0
3A78C0
ENDCHAR
STARTCHAR 4EF0
ENCODING 20208
SWIDTH 990 0
DWIDTH 22 0
BBX 20 18 1 0
BITMAP
702000
787000
7BF7F0
7B8770
738770
F38770
E38770
F38770
F38770
738770
738770
73F770
77E7F0
77C7F0
738700
700700
700700
600600
ENDCHAR
STARTCHAR 4EF2
ENCODING 20210
SWIDTH 990 0
DWIDTH 22 0
BBX 20 18 1 -1
BITMAP
1C0E00
1C0E00
3C0E00
3DCE00
39FFF0
79FFF0
71CE70
79CE70
B9CE70
39CE70
39FFF0
39FFF0
380E00
380E00
380E00
380E00
380E00
300800
ENDCHAR
STARTCHAR 4EF3
ENCODING 20211
SWIDTH 990 0
DWIDTH 22 0
BBX 20 18 1 -2
BITMAP
10E380
3CE380
3CE380
38E380
38E380
70E3A0
70FBF0
78FBF0
78E3E0
B8E380
38E380
38E380
38E380
38E380
38E380
3BF3F0
39E3F0
39C3E0
ENDCHAR
STARTCHAR 4EF5
ENCODING 20213
SWIDTH 990 0
DWIDTH 22 0
BBX 21 18 0 -1
BITMAP
1E7000
1F7000
1E7FF0
1E7FF0
3C6700
38E700
38C700
7C8700
7C0700
9CFFF8
1CFFF8
1C0700
1C0700
1C0700
1C0700
1C0700
1C0700
180600
ENDCHAR
STARTCHAR 4EF6
ENCODING 20214
SWIDTH 945 0
DWIDTH 21 0
BBX 19 18 1 -1
BITMAP
180E00
3C8E00
3DEE00
3DEE00
39FFE0
71FFE0
71CE00
798E00
FB0E00
380E00
3BFFE0
3BFFE0
380E00
380E00
380E00
380E00
380E00
300C00
ENDCHAR
STARTCHAR 4EF7
ENCODING 20215
SWIDTH 945 0
DWIDTH 21 0
BBX 20 18 1 -1
BITMAP
383C00
3C3C00
3C3C00
3C7E00
787FC0
70F3F0
71E1E0
FB80C0
B8E380
38E380
38E380
38E380
38E380
38E380
38E380
39E380
39C380
338300
ENDCHAR
STARTCHAR 4EFB
ENCODING 20219
SWIDTH 990 0
DWIDTH 22 0
BBX 20 17 1 -1
BITMAP
3C00C0
3E07C0
3DFFE0
3C7F80
780E00
700E00
700E00
F80E00
B9FFF0
39FFF0
380E00
380E00
380E00
380E00
380E00
39FFE0
39FFE0
ENDCHAR
STARTCHAR 4EFD
ENCODING 20221
SWIDTH 990 0
DWIDTH 22 0
BBX 20 18 1 -1
BITMAP
382200
3C7A00
3C7B00
3C7180
78F1C0
70E1F0
71C0E0
FB0000
F9FFC0
39FFC0
3871C0
3871C0
3871C0
3871C0
3871C0
38E1C0
38C7C0
398FC0
ENDCHAR
STARTCHAR 4EFF
ENCODING 20223
SWIDTH 990 0
DWIDTH 22 0
BBX 21 19 0 -2
BITMAP
000600
0C0700
0F0700
1E0600
1E0000
1CFFF8
1CFFF8
383800
3C3800
7C3FF0
9C3FF0
1C3870
1C3870
1C3870
1C3870
1C7870
1C7070
1CE1F0
1CC1F0
ENDCHAR
STARTCHAR 4F01
ENCODING 20225
SWIDTH 945 0
DWIDTH 21 0
BBX 19 18 1 0
BITMAP
00C000
01E000
03E000
07F800
0F9F80
1F0FE0
3C07E0
E071C0
007000
1C7000
1C7F80
1C7F80
1C7000
1C7000
1C7000
1C7000
FFFFE0
FFFFE0
ENDCHAR
STARTCHAR 4F09
ENCODING 20233
SWIDTH 990 0
DWIDTH 22 0
BBX 20 19 1 -2
BITMAP
000C00
3C1E00
3C1E00
3DFFF0
3DFFF0
780000
700000
70E000
F8FFC0
F8FFC0
38E1C0
38E1C0
38E1C0
38E1C0
38E1C0
38E1C0
38E1F0
39C1F0
3B81F0
ENDCHAR
STARTCHAR 4F0A
ENCODING 20234
SWIDTH 990 0
DWIDTH 22 0
BBX 21 18 0 -2
BITMAP
1E0000
1FFFE0
1EFFE0
1E1CE0
3C1CE0
38FFF8
38FFF8
7C1CE0
7C1CE0
9C1CE0
1CFFE0
1CFFC0
1C3C00
1C3800
1C3800
1C7000
1C6000
1CC000
ENDCHAR
STARTCHAR 4F0D
ENCODING 20237
SWIDTH 990 0
DWIDTH 22 0
BBX 20 18 1 -2
BITMAP
3C0000
3FFFE0
3DFFE0
3C3800
383800
783800
703800
703800
F9FFC0
B9FFC0
3871C0
3871C0
3871C0
3871C0
3871C0
3871C0
39FFF0
39FFF0
ENDCHAR
STARTCHAR 4F0E
ENCODING 20238
SWIDTH 990 0
DWIDTH 22 0
BBX 20 19 1 -2
BITMAP
180E00
3C0E00
3C0E00
3DFFF0
39FFF0
780E00
700E00
79FFE0
F9FFE0
3841E0
3861E0
3873C0
383BC0
383F80
381F00
381FF0
387FF0
39F3E0
020000
ENDCHAR
STARTCHAR 4F0F
ENCODING 20239
SWIDTH 945 0
DWIDTH 21 0
BBX 19 18 1 -2
BITMAP
181C00
3C1C00
3C1CE0
3C1CE0
381CE0
781C00
73FFE0
7BFFE0
F81C00
381E00
383E00
383F00
383B00
387B80
3873C0
38F1E0
39C1E0
3B00C0
ENDCHAR
STARTCHAR 4F10
ENCODING 20240
SWIDTH 945 0
DWIDTH 21 0
BBX 19 18 1 -2
BITMAP
38E000
3CF380
3C7380
3C7B80
387800
7BFFC0
73FFC0
783C00
F81C00
381FC0
381FC0
380FC0
383F00
39FF00
380780
3807E0
3803E0
300380
ENDCHAR
STARTCHAR 4F11
ENCODING 20241
SWIDTH 945 0
DWIDTH 21 0
BBX 19 18 1 -1
BITMAP
381C00
3C1C00
3C1C00
381C00
3BFFE0
73FFE0
701C00
F81C00
F8FDC0
38FDC0
38FDC0
39FDC0
39DCE0
39DCE0
3B9C60
381C00
381C00
301800
ENDCHAR
STARTCHAR 4F17
ENCODING 20247
SWIDTH 990 0
DWIDTH 22 0
BBX 19 19 2 -1
BITMAP
018000
01E000
03E000
07F000
0FBE00
1F1FE0
3E0FC0
F003C0
1C1C00
1C1C00
1C1C00
1C1C00
1F9C00
1F9E00
3FBF00
383B80
387BE0
7073C0
C0C180
ENDCHAR
STARTCHAR 4F18
ENCODING 20248
SWIDTH 945 0
DWIDTH 21 0
BBX 19 18 1 -2
BITMAP
183800
1C39C0
3C39C0
3C39C0
383800
3BFFE0
73FFE0
783800
F83800
383B80
387B80
387B80
387B80
387380
38F380
38E3E0
39C3E0
3B03E0
ENDCHAR
STARTCHAR 4F19
ENCODING 20249
SWIDTH 945 0
DWIDTH 21 0
BBX 20 18 0 -2
BITMAP
1E0E00
1E0E00
1E0E00
1E0E40
1C4E70
386E70
386E70
3CEE60
7DEEC0
9CEE80
1C0F00
1C1F00
1C1D80
1C1DC0
1C39E0
1C79F0
1C60F0
1CC0E0
ENDCHAR
STARTCHAR 4F1A
ENCODING 20250
SWIDTH 990 0
DWIDTH 22 0
BBX 19 19 2 0
BITMAP
01C000
03E000
03F000
07FE00
1F9FE0
3E0FE0
F803C0
1FFE00
1FFE00
000000
000000
FFFFC0
FFFFC0
070000
0F0E00
1E0700
7FFF80
3FE380
3E0300
ENDCHAR
STARTCHAR 4F1B
ENCODING 20251
SWIDTH 990 0
DWIDTH 22 0
BBX 20 18 1 -2
BITMAP
3C0000
3EFFF0
3CFFF0
3CE000
78E0E0
70F1E0
70E9E0
F8EFC0
F8E7C0
38E380
38E7C0
38E7E0
38EFE0
38FCE0
38F0C0
38E000
38FFF0
38FFF0
ENDCHAR
STARTCHAR 4F1E
ENCODING 20254
SWIDTH 990 0
DWIDTH 22 0
BBX 18 18 2 -1
BITMAP
00C000
01E000
03F000
07FE00
0F9FC0
3F07C0
F8E380
18E200
38E780
38E700
18E600
00E000
FFFFC0
FFFFC0
00E000
00E000
00E000
00E000
ENDCHAR
STARTCHAR 4F1F
ENCODING 20255
SWIDTH 990 0
DWIDTH 22 0
BBX 20 18 1 -1
BITMAP
3C1C00
3E1C00
3DFFF0
3DFFF0
381C00
781C00
70FFE0
78FFE0
F81C00
381C00
39FFF0
39FFF0
381C70
381C70
381CF0
381CF0
381C20
301C00
ENDCHAR
STARTCHAR 4F20
ENCODING 20256
SWIDTH 990 0
DWIDTH 22 0
BBX 20 17 1 0
BITMAP
3E1C00
3E3C00
3DFFE0
3DFFE0
783800
707800
61FFF0
F9FFF0
B87000
38F0E0
38FFF0
387FE0
3803C0
38FF00
381F80
380F80
380300
ENDCHAR
STARTCHAR 4F22
ENCODING 20258
SWIDTH 990 0
DWIDTH 22 0
BBX 20 18 1 -2
BITMAP
180000
1EFFF0
1CFFF0
3C0380
38E380
38E380
70E380
78E380
F8FFF0
38FFF0
380380
387380
387B80
387380
38F380
38E380
39CF80
3B0F80
ENDCHAR
STARTCHAR 4F24
ENCODING 20260
SWIDTH 990 0
DWIDTH 22 0
BBX 20 18 1 -1
BITMAP
3CF000
3EF000
3CE000
3CFFF0
79FFF0
79C000
71B800
FB3800
F8FFE0
38FFE0
3838E0
3838E0
3838E0
3878E0
3870E0
3870E0
38E7E0
3987E0
ENDCHAR
STARTCHAR 4F25
ENCODING 20261
SWIDTH 945 0
DWIDTH 21 0
BBX 20 18 0 -2
BITMAP
0C0000
0E3800
1E38E0
1E38E0
1C39E0
1C39C0
383B00
3C3800
7DFFF0
9DFFF0
1C3900
1C3980
1C39C0
1C39C0
1C38E0
1CFEF0
1CF8F0
1C7060
ENDCHAR
STARTCHAR 4F26
ENCODING 20262
SWIDTH 945 0
DWIDTH 21 0
BBX 20 18 1 -1
BITMAP
381C00
3C3C00
3C3C00
3C7F00
78F3F0
71E3E0
7380C0
780000
F8E080
B8E1C0
38E3C0
38EFC0
38FE00
38E000
38E000
38FFE0
38FFE0
38FFC0
ENDCHAR
STARTCHAR 4F27
ENCODING 20263
SWIDTH 990 0
DWIDTH 22 0
BBX 21 18 0 -1
BITMAP
1C0E00
1E1F00
1E1F00
1E3FC0
3C3DF0
3878F8
38E070
7D0000
7C7FC0
9C7FE0
1C70E0
1C70E0
1C73E0
1C73E0
1C7000
1C7FF8
1C7FF0
1C7FF0
ENDCHAR
STARTCHAR 4F2A
ENCODING 20266
SWIDTH 990 0
DWIDTH 22 0
BBX 20 18 1 -2
BITMAP
183800
3C3800
3DF800
3DF800
39F800
383800
71FFF0
79FFF0
F83870
B83870
383870
383E70
387F70
387670
387070
38E070
38E3F0
3983F0
ENDCHAR
STARTCHAR 4F2B
ENCODING 20267
SWIDTH 945 0
DWIDTH 21 0
BBX 20 18 0 -2
BITMAP
000700
0E0700
1F0700
1EFFF0
1EFFF0
1CE070
38E070
38E070
7CE060
9C0000
1C0000
1C0000
1C0000
1C0000
1C0000
1C0000
1CFFF0
1CFFF0
ENDCHAR
STARTCHAR 4F2F
ENCODING 20271
SWIDTH 945 0
DWIDTH 21 0
BBX 19 18 1 -2
BITMAP
3C0F00
3E0E00
3CEC00
3CFFE0
78FFE0
70E0E0
70E0E0
F8E0E0
F8E0E0
38FFE0
38FFE0
38E0E0
38E0E0
38E0E0
38E0E0
38FEE0
38FEC0
200180
ENDCHAR
STARTCHAR 4F30
ENCODING 20272
SWIDTH 990 0
DWIDTH 22 0
BBX 21 19 0 -2
BITMAP
0C0700
1E0700
1E0700
1E0700
1CFFF8
3CFFF8
380700
380700
7C0700
9C7FF0
1C7FF0
1C7070
1C7070
1C7070
1C7070
1C7070
1C7F70
1C7FE0
000100
ENDCHAR
STARTCHAR 4F32
ENCODING 20274
SWIDTH 945 0
DWIDTH 21 0
BBX 20 18 1 -2
BITMAP
380000
3EFFE0
3CFFE0
3CE0E0
78E0E0
78E0E0
70FFE0
60FFC0
F8E000
38EE40
38EEE0
38EFF0
38EFC0
38EE00
39CE00
39CFF0
398FE0
3B0FE0
ENDCHAR
STARTCHAR 4F34
ENCODING 20276
SWIDTH 990 0
DWIDTH 22 0
BBX 20 17 1 0
BITMAP
1E0E00
1E0E00
3DCE60
3DCE60
39CEC0
700E00
71FFF0
F9FFF0
380E00
380E00
39FFF0
39FFF0
380E00
380E00
380E00
380E00
380C00
ENDCHAR
STARTCHAR 4F36
ENCODING 20278
SWIDTH 990 0
DWIDTH 22 0
BBX 20 18 1 -1
BITMAP
381800
3C1E00
3C3C00
383F00
787BC0
70F3F0
71DDE0
FB1CC0
F81C00
39FFE0
39FFE0
3803C0
3803C0
380700
387E00
383F00
380F00
380600
ENDCHAR
STARTCHAR 4F38
ENCODING 20280
SWIDTH 990 0
DWIDTH 22 0
BBX 20 18 1 -1
BITMAP
180E00
1C0E00
3C0E00
3DCE00
39FFF0
39FFF0
71CE70
71CE70
F9FFF0
39FFF0
39CE70
39CE70
39FFF0
39FFF0
380E00
380E00
380E00
380E00
ENDCHAR
STARTCHAR 4F3A
ENCODING 20282
SWIDTH 945 0
DWIDTH 21 0
BBX 19 18 1 -2
BITMAP
380000
3CFFE0
3CFFE0
3C00E0
7800E0
79FEE0
71FEE0
F800E0
B9DCE0
39FEE0
39FEE0
39CEE0
39CEE0
39FEE0
39FCE0
3818E0
3801E0
3801E0
ENDCHAR
STARTCHAR 4F3C
ENCODING 20284
SWIDTH 990 0
DWIDTH 22 0
BBX 20 17 1 -2
BITMAP
3C0380
3DC380
39C380
39DF80
71DF80
71DF80
79C380
F9C380
B9C380
39C380
39CB80
39F780
39F7C0
3BEFE0
3BCEF0
391C70
383860
ENDCHAR
STARTCHAR 4F3D
ENCODING 20285
SWIDTH 990 0
DWIDTH 22 0
BBX 20 19 1 -2
BITMAP
270000
770000
7707E0
7FE7F0
7FF770
777770
E77770
F77770
F77770
777770
777770
777770
777770
777770
777770
7677F0
76F7F0
7CF060
0000C0
ENDCHAR
STARTCHAR 4F43
ENCODING 20291
SWIDTH 945 0
DWIDTH 21 0
BBX 19 18 1 -2
BITMAP
3C0000
3EFFE0
3CFFE0
3CEEE0
78EEE0
70EEE0
70EEE0
F8EEE0
B8FFE0
38FFE0
38EEE0
38EEE0
38EEE0
38EEE0
38EEE0
38FFE0
38FFE0
200000
ENDCHAR
STARTCHAR 4F46
ENCODING 20294
SWIDTH 990 0
DWIDTH 22 0
BBX 20 18 1 -2
BITMAP
1C0000
1EFFE0
1CFFE0
1CE0E0
3CE0E0
38E0E0
78E0E0
70FFE0
F8FFE0
38E0E0
38E0E0
38E0E0
38FEE0
38FEC0
380180
380000
3BFFF0
3BFFF0
ENDCHAR
STARTCHAR 4F4D
ENCODING 20301
SWIDTH 990 0
DWIDTH 22 0
BBX 21 19 0 -1
BITMAP
000600
0E0700
0F0700
1E0600
1EFFF0
1CFFF0
1C0000
380000
3C0000
7C30E0
9C38E0
1C39E0
1C31C0
1C0180
1C0300
1C0000
1CFFF8
1CFFF8
180000
ENDCHAR
STARTCHAR 4F4E
ENCODING 20302
SWIDTH 990 0
DWIDTH 22 0
BBX 21 18 0 -2
BITMAP
1C0020
1F00F0
1E77F0
1E7FE0
3C71C0
3C71C0
3871C0
3C71C0
7C7FF8
9C7FF8
1C70E0
1C70E0
1C70E0
1C74E0
1C7CE0
1DFEF0
1DF7F8
1CE778
ENDCHAR
STARTCHAR 4F4F
ENCODING 20303
SWIDTH 990 0
DWIDTH 22 0
BBX 20 19 1 -2
BITMAP
000C00
1C0E00
1E0E00
1C0C00
3DFFE0
39FFE0
380E00
700E00
780E00
F80E00
39FFE0
39FFE0
380E00
380E00
380E00
380E00
39FFF0
39FFF0
300000
ENDCHAR
STARTCHAR 4F50
ENCODING 20304
SWIDTH 990 0
DWIDTH 22 0
BBX 20 17 1 -1
BITMAP
1E7000
3C7000
3DFFF0
39FFF0
387000
707000
787000
F8F000
B8FFE0
38FFE0
38E700
39C700
398700
3A0700
380700
39FFF0
39FFF0
ENDCHAR
STARTCHAR 4F51
ENCODING 20305
SWIDTH 990 0
DWIDTH 22 0
BBX 20 19 1 -2
BITMAP
380000
3E7000
3C7000
3C7000
39FFF0
79FFF0
707000
787000
F87000
38FFE0
38FFE0
38F0E0
39F0E0
39F0E0
3870E0
3870E0
387EE0
387FC0
000180
ENDCHAR
STARTCHAR 4F53
ENCODING 20307
SWIDTH 945 0
DWIDTH 21 0
BBX 19 17 1 -1
BITMAP
3C1C00
3C1C00
3C1C00
3BFFE0
3BFFE0
701C00
701C00
F9DCE0
F9DCE0
39DCE0
39DCE0
399CE0
39FF60
3B7F20
381C00
381C00
381C00
ENDCHAR
STARTCHAR 4F55
ENCODING 20309
SWIDTH 990 0
DWIDTH 22 0
BBX 20 18 1 -2
BITMAP
180000
3E0000
3DFFF0
3DFFF0
3C01C0
3981C0
71FDC0
71FDC0
F9DDC0
B9DDC0
39DDC0
39DDC0
39DDC0
39D9C0
3839C0
3801C0
3807C0
3807C0
ENDCHAR
STARTCHAR 4F57
ENCODING 20311
SWIDTH 990 0
DWIDTH 22 0
BBX 21 19 0 -2
BITMAP
000200
0C0700
0F0700
0EFFF8
1EFFF8
1CE038
1CE038
38E030
3C0000
7C3860
9C38F0
1C3BF0
1C3F80
1C3800
1C3800
1C3800
1C3FF8
1C3FF0
1C3FF0
ENDCHAR
STARTCHAR 4F58
ENCODING 20312
SWIDTH 990 0
DWIDTH 22 0
BBX 19 18 2 0
BITMAP
018000
03C000
07E000
0FFE00
1F3FE0
3E0FC0
F803C0
1FFE00
1FFE00
000000
000000
FFFFC0
FFFFC0
31C300
71C700
71C700
E7C300
07C000
ENDCHAR
STARTCHAR 4F59
ENCODING 20313
SWIDTH 990 0
DWIDTH 22 0
BBX 20 18 1 0
BITMAP
00C000
01E000
03F000
07FF00
0F8FF0
3F07E0
FC01E0
0FFF00
0FFF00
00E000
00E000
7FFFE0
7FFFE0
18E180
3CE380
38E380
73E180
03E000
ENDCHAR
STARTCHAR 4F5A
ENCODING 20314
SWIDTH 990 0
DWIDTH 22 0
BBX 20 18 1 -2
BITMAP
3C1C00
3FDC00
3DDC00
3DFFE0
39FFE0
799C00
719C00
791C00
F81C00
39FFF0
39FFF0
381E00
383F00
383B80
387BC0
3873E0
38E1F0
3980E0
ENDCHAR
STARTCHAR 4F5B
ENCODING 20315
SWIDTH 990 0
DWIDTH 22 0
BBX 20 18 1 -1
BITMAP
387700
3C7700
3BFFE0
3BFFE0
787760
707760
73FFE0
FBFFE0
FB7700
3B7700
3BFFE0
3BFFF0
387730
387730
38F770
38F770
39E700
338600
ENDCHAR
STARTCHAR 4F5C
ENCODING 20316
SWIDTH 990 0
DWIDTH 22 0
BBX 20 18 1 -2
BITMAP
38F000
3EF000
3CE000
3CFFF0
78FFF0
78CE00
71CE00
F98FF0
F80FF0
380E00
380E00
380E00
380FF0
380FF0
380E00
380E00
380E00
380E00
ENDCHAR
STARTCHAR 4F5D
ENCODING 20317
SWIDTH 945 0
DWIDTH 21 0
BBX 19 18 1 -2
BITMAP
38E000
3CF000
3CF000
3DFFE0
79FFE0
79C0E0
7180E0
FAFEE0
F8FEE0
38EEE0
38EEE0
38EEE0
38EEE0
38FEE0
38FCE0
3800E0
3803E0
3003E0
ENDCHAR
STARTCHAR 4F5E
ENCODING 20318
SWIDTH 990 0
DWIDTH 22 0
BBX 20 19 1 -1
BITMAP
1C0000
1EFFE0
1CFFE0
3C0000
39FFF0
39FFF0
700000
700000
F83800
39FFF0
39FFF0
3873C0
38F3C0
38F380
38FFC0
380FF0
383FF0
38FC70
010020
ENDCHAR
STARTCHAR 4F5F
ENCODING 20319
SWIDTH 945 0
DWIDTH 21 0
BBX 20 18 1 -1
BITMAP
3CE000
3CF000
3CFFC0
3DFFC0
79E3C0
71F780
603F10
F83FF0
F87FE0
39FFE0
3A1000
387F00
380F00
380200
38FE00
381F00
380F00
300200
ENDCHAR
STARTCHAR 4F60
ENCODING 20320
SWIDTH 945 0
DWIDTH 21 0
BBX 21 18 0 -2
BITMAP
1C7000
1F7800
1E7870
1E7FF8
3C7FF0
38F070
38E760
3CC740
7C8700
9C0700
1C6700
1CF770
1CE770
1CE770
1C8700
1C0700
1C1F00
1C1F00
ENDCHAR
STARTCHAR 4F63
ENCODING 20323
SWIDTH 945 0
DWIDTH 21 0
BBX 19 18 1 -2
BITMAP
380000
3DC000
3DFFE0
3DFFE0
39CEE0
79CEE0
71FFE0
61FFE0
F9CEE0
B9CEE0
39CEE0
39FFE0
39FFE0
39CEE0
39CEE0
3B8EE0
3B8FE0
3B09E0
ENDCHAR
STARTCHAR 4F64
ENCODING 20324
SWIDTH 990 0
DWIDTH 22 0
BBX 20 18 1 -2
BITMAP
380000
3DFFF0
3DFFF0
3CE000
38E000
78E000
70FFC0
70FFC0
F8E1C0
B8E1C0
38EFC0
38EFC0
38EFC0
38E1C0
38E1C0
38E1F0
38F9F0
38F9F0
ENDCHAR
STARTCHAR 4F65
ENCODING 20325
SWIDTH 990 0
DWIDTH 22 0
BBX 19 18 1 0
BITMAP
00C000
01F000
01E000
03FC00
07DFC0
0F8FE0
3E03E0
F001C0
0FFF80
0FFF80
000000
00E100
1CE1C0
1CE3C0
1C0380
000600
7FFFE0
7FFFE0
ENDCHAR
STARTCHAR 4F67
ENCODING 20327
SWIDTH 990 0
DWIDTH 22 0
BBX 20 19 1 -1
BITMAP
101C00
3C1C00
3C1C00
3C1FE0
381FE0
381C00
701C00
73FFF0
FBFFF0
B80000
381C00
381C00
381F80
381DE0
381CE0
381C60
381C00
381C00
301800
ENDCHAR
STARTCHAR 4F69
ENCODING 20329
SWIDTH 990 0
DWIDTH 22 0
BBX 21 18 1 -2
BITMAP
380000
3DFFF0
3DFFF0
3DC070
39C070
79DF70
71DF70
79CC70
F9DF70
B9DF70
39DD70
39DD70
39DD70
39DD70
399F70
3B9F70
3B8C78
3A0C78
ENDCHAR
STARTCHAR 4F6C
ENCODING 20332
SWIDTH 990 0
DWIDTH 22 0
BBX 20 18 1 -1
BITMAP
3C3800
3E3800
3DFF00
3DFFE0
3839E0
703BE0
71FFF0
F9FFF0
B81E00
383C80
38F9C0
39F3E0
3F7FC0
387000
387000
387FE0
387FE0
387FE0
ENDCHAR
STARTCHAR 4F6F
ENCODING 20335
SWIDTH 990 0
DWIDTH 22 0
BBX 20 17 1 0
BITMAP
1C71C0
3E71C0
3C7380
3DFFF0
39FFF0
780E00
700E00
F8FFE0
B8FFE0
380E00
380E00
3BFFF0
3BFFF0
380E00
380E00
380E00
380E00
ENDCHAR
STARTCHAR 4F70
ENCODING 20336
SWIDTH 990 0
DWIDTH 22 0
BBX 20 19 1 -3
BITMAP
180000
3DFFF0
3DFFF0
3C0E00
380E00
38EC00
70FFE0
70FFE0
F8E0E0
B8E0E0
38E0E0
38FFE0
38FFE0
38E0E0
38E0E0
38E0E0
38FEE0
38FFC0
2001C0
ENDCHAR
STARTCHAR 4F73
ENCODING 20339
SWIDTH 990 0
DWIDTH 22 0
BBX 20 18 1 -2
BITMAP
180E00
1E0E00
1E0E00
3DFFE0
3DFFE0
380E00
700E00
71FFF0
F9FFF0
B80000
380E00
380E00
39FFE0
39FFE0
380E00
380E00
39FFF0
39FFF0
ENDCHAR
STARTCHAR 4F74
ENCODING 20340
SWIDTH 990 0
DWIDTH 22 0
BBX 20 18 1 -2
BITMAP
380000
3DFFF0
3DFFF0
3CE1C0
38E1C0
78FFC0
70FFC0
78E1C0
F8E1C0
38FFC0
38FFC0
38E1C0
38E1C0
38EFF0
39FFC0
3801C0
3801C0
3001C0
ENDCHAR
STARTCHAR 4F76
ENCODING 20342
SWIDTH 990 0
DWIDTH 22 0
BBX 20 18 1 -2
BITMAP
1C0E00
3E0E00
3DFFF0
3DFFF0
380E00
780E00
700E00
78FFE0
F8FFE0
380000
38FFC0
38FFE0
38E0E0
38E0E0
38E0E0
38FEE0
38FFC0
200180
ENDCHAR
STARTCHAR 4F7B
ENCODING 20347
SWIDTH 945 0
DWIDTH 21 0
BBX 20 18 1 -1
BITMAP
107380
3E7380
3C7380
3FF3E0
3BF3E0
79F3E0
70F3C0
787380
F87380
38F3C0
3BF3E0
3BF3E0
39F3E0
387380
38F380
38E3F0
39C3E0
3183E0
ENDCHAR
STARTCHAR 4F7C
ENCODING 20348
SWIDTH 990 0
DWIDTH 22 0
BBX 21 19 0 -1
BITMAP
0C0700
1E0700
1EFFF0
1EFFF0
1C0000
3C38C0
387878
3C7078
7CE030
9C01A0
1C11C0
1C1BC0
1C0F80
1C0F80
1C0FC0
1C1FF8
1C3FF0
1CF0F0
010000
ENDCHAR
STARTCHAR 4F7E
ENCODING 20350
SWIDTH 945 0
DWIDTH 21 0
BBX 20 19 0 -2
BITMAP
000200
1C3100
1E3980
1E79C0
1C70F0
3CE0F0
398060
38E000
7CFFE0
7CFFE0
9CE0E0
1CFFE0
1CFFE0
1CE0E0
1CFFE0
1CFFE0
1CE0E0
1CE3E0
1CE3E0
ENDCHAR
STARTCHAR 4F7F
ENCODING 20351
SWIDTH 990 0
DWIDTH 22 0
BBX 20 18 1 -2
BITMAP
300E00
3C0E00
3DFFF0
3DFFF0
780E00
71FFE0
71FFE0
79CEE0
F9CEE0
39CEE0
39FFE0
39FFE0
391E00
38DC00
387C00
387FF0
38FFE0
33C3E0
ENDCHAR
STARTCHAR 4F83
ENCODING 20355
SWIDTH 990 0
DWIDTH 22 0
BBX 20 18 1 -2
BITMAP
180000
1DFFE0
1DFFE0
3DC0E0
39C0E0
39C0E0
71FDE0
78FDC0
F80300
39DDC0
39DDC0
39DDC0
39DDC0
39DDC0
39DDC0
39DDF0
399DF0
3B99F0
ENDCHAR
STARTCHAR 4F84
ENCODING 20356
SWIDTH 990 0
DWIDTH 22 0
BBX 20 17 1 -2
BITMAP
3FFFE0
3DFFE0
3C1C00
783D80
7878C0
71FFE0
61FFE0
F8FE60
B8E000
380E00
380E00
39FFE0
39FFE0
380E00
380E00
39FFF0
39FFF0
ENDCHAR
STARTCHAR 4F88
ENCODING 20360
SWIDTH 945 0
DWIDTH 21 0
BBX 19 18 1 0
BITMAP
38F000
3CF000
3CFFE0
39FFE0
79B1E0
703BE0
703FC0
FBFF80
B8FC00
38E000
38F000
38FFE0
39FFE0
39B9E0
383BE0
383FC0
3BFF80
30FC00
ENDCHAR
STARTCHAR 4F89
ENCODING 20361
SWIDTH 945 0
DWIDTH 21 0
BBX 20 18 1 -1
BITMAP
381C00
3C3C00
3FFFE0
3BFFE0
787980
70F1F0
71FFE0
FB7F40
B80000
380000
3BFFE0
3BFFE0
387000
387FE0
387FE0
3800E0
3803E0
3003E0
ENDCHAR
STARTCHAR 4F8B
ENCODING 20363
SWIDTH 990 0
DWIDTH 22 0
BBX 20 18 1 -2
BITMAP
700070
7BF870
7BFB70
79C370
718370
F3FB70
E3FB70
F3BB70
F33B70
737B70
76FB70
75F370
70F370
70F370
70E070
71C070
7183F0
7601F0
ENDCHAR
STARTCHAR 4F8D
ENCODING 20365
SWIDTH 990 0
DWIDTH 22 0
BBX 20 18 1 -2
BITMAP
381E00
3C1E00
3DFFE0
3DFFE0
781E00
781E00
71FFF0
F9FFF0
B80380
380380
3BFFF0
3BFFF0
380380
38E380
38E380
38E380
380F80
300F80
ENDCHAR
STARTCHAR 4F8F
ENCODING 20367
SWIDTH 990 0
DWIDTH 22 0
BBX 20 19 1 -2
BITMAP
180000
1E0E00
3EEE00
3CEE00
3CFFE0
39FFE0
79CE00
718E00
F80E00
B9FFF0
39FFF0
380E00
38EEE0
38EEE0
38EEE0
39CEE0
398E70
380E00
200800
ENDCHAR
STARTCHAR 4F91
ENCODING 20369
SWIDTH 990 0
DWIDTH 22 0
BBX 20 18 1 -2
BITMAP
383800
3C3C00
3C3C00
3DFFF0
79FFF0
707000
707FE0
78FFE0
F8F0E0
38F0E0
39FFE0
3B7FE0
3870E0
387FE0
387FE0
3870E0
3871E0
3861E0
ENDCHAR
STARTCHAR 4F94
ENCODING 20372
SWIDTH 990 0
DWIDTH 22 0
BBX 21 17 0 0
BITMAP
1E0E00
1F1E80
1E3870
1EFFF8
3C7FB8
387830
380700
7C7FF0
9C7FF0
1C6700
1CC700
1C0700
1CFFF8
1CFFF8
1C0700
1C0700
1C0700
ENDCHAR
STARTCHAR 4F97
ENCODING 20375
SWIDTH 990 0
DWIDTH 22 0
BBX 20 18 1 -2
BITMAP
300000
3DC000
3DFFF0
39FFF0
39C070
71DF70
71DF70
79C070
F9DF70
39DF70
39DB70
39DB70
39DB70
39DF70
39C270
39C070
39C1F0
3981F0
ENDCHAR
STARTCHAR 4F9B
ENCODING 20379
SWIDTH 990 0
DWIDTH 22 0
BBX 20 18 1 -1
BITMAP
1C7380
1E7380
3C7380
3DFFF0
39FFF0
387380
707380
787380
F87380
387380
3BFFF0
3BFFF0
380000
38F0C0
38E1C0
38E1C0
39C0C0
310000
ENDCHAR
STARTCHAR 4F9D
ENCODING 20381
SWIDTH 990 0
DWIDTH 22 0
BBX 20 19 1 -2
BITMAP
000E00
1C0E00
1E0E00
3C0000
3DFFF0
39FFF0
383800
703A00
787A00
F87320
38F370
38F3F0
39F3C0
3871C0
3871E0
387FE0
38F8F0
38F0E0
304000
ENDCHAR
STARTCHAR 4FA0
ENCODING 20384
SWIDTH 990 0
DWIDTH 22 0
BBX 21 18 0 -2
BITMAP
0E0700
0F0700
0E0700
1EFFF0
1EFFF0
1C0700
38E770
3CE770
7CE760
9C0700
1CFFF8
1CFFF8
1C0F80
1C1FC0
1C1CE0
1C3CF8
1C7070
18E060
ENDCHAR
STARTCHAR 4FA3
ENCODING 20387
SWIDTH 945 0
DWIDTH 21 0
BBX 19 19 1 -2
BITMAP
380000
3EFFE0
3CFFE0
3CE0E0
78E0E0
70E0E0
70FEE0
E0FFC0
B80100
380000
39FFE0
39FFE0
39C0E0
39C0E0
39C0E0
39C0E0
39FEE0
39FEC0
000100
ENDCHAR
STARTCHAR 4FA5
ENCODING 20389
SWIDTH 990 0
DWIDTH 22 0
BBX 20 18 1 -1
BITMAP
3C7000
3E78E0
3DFFE0
3DFE00
781EE0
701FF0
71FF80
F8E7F0
F803E0
380180
39FFF0
39FFF0
387380
387380
387380
38F3F0
38E3F0
31C3F0
ENDCHAR
STARTCHAR 4FA6
ENCODING 20390
SWIDTH 945 0
DWIDTH 21 0
BBX 20 18 1 -2
BITMAP
301C00
3E1C00
3C1FE0
3C1FE0
79DC00
79FFE0
71FFE0
F9DCE0
F9DCE0
39DCE0
39DCE0
39DCE0
39DCE0
399C80
383FE0
3879F0
38F0F0
33E020
ENDCHAR
STARTCHAR 4FA7
ENCODING 20391
SWIDTH 990 0
DWIDTH 22 0
BBX 20 18 1 -2
BITMAP
3B0070
3FFC70
3BFDF0
3B0DF0
3B7DF0
737DF0
737DF0
7B7DF0
FB7DF0
3B7DF0
3B7DF0
3B7DF0
3AF1F0
38F1F0
38FD70
39FC70
39DDF0
3301F0
ENDCHAR
STARTCHAR 4FA8
ENCODING 20392
SWIDTH 990 0
DWIDTH 22 0
BBX 21 18 0 -1
BITMAP
1C01C0
1F0FE0
1F7FE0
1E0F80
3E0F00
3CFFF8
38FFF8
7C3DE0
7C39F8
9CF0F0
1C0020
1C71C0
1C71C0
1C71C0
1C71C0
1C71C0
1C61C0
1CE1C0
ENDCHAR
STARTCHAR 4FA9
ENCODING 20393
SWIDTH 990 0
DWIDTH 22 0
BBX 20 19 1 -1
BITMAP
000800
3E1E00
3E1E00
3C3F00
3C3F80
7879F0
70E0F0
61FFE0
F87FC0
380000
38FFE0
38FFE0
383800
383C00
3838C0
3871E0
39FF70
38FC70
20C040
ENDCHAR
STARTCHAR 4FAA
ENCODING 20394
SWIDTH 990 0
DWIDTH 22 0
BBX 20 19 1 -2
BITMAP
000400
380E00
3C0E00
3DFFF0
3DFFF0
3863C0
783780
703F80
781FF0
F87FF0
3BFBE0
380000
3871C0
3871C0
3871C0
3871C0
38F1C0
38E1C0
39C1C0
ENDCHAR
STARTCHAR 4FAC
ENCODING 20396
SWIDTH 990 0
DWIDTH 22 0
BBX 20 19 1 -2
BITMAP
380E00
3C0E00
3C1E00
3DFFF0
79FFF0
79DE70
71BE60
F83A00
F87360
387370
38F3F0
39F3E0
3B7180
3871C0
3873E0
39FDE0
39F0F0
38E0E0
200000
ENDCHAR
STARTCHAR 4FAE
ENCODING 20398
SWIDTH 990 0
DWIDTH 22 0
BBX 20 18 1 0
BITMAP
38E000
3CE000
3DFFE0
3DFFE0
79FFC0
73FFC0
70E9C0
F8EFC0
F8E5C0
3BFFF0
3BFFF0
38E1C0
38EFC0
38E5C0
38FFE0
38FFE0
3807C0
3007C0
ENDCHAR
STARTCHAR 4FAF
ENCODING 20399
SWIDTH 945 0
DWIDTH 21 0
BBX 20 18 0 -1
BITMAP
1E7FC0
1E7FC0
1E01C0
1C01C0
3CFFF0
38FFF0
306000
7C7FF0
9C7FF0
1CEE00
1D8E00
1DFFF0
1DFFF0
1C1F80
1C1FE0
1C3DF0
1C78E0
008000
ENDCHAR
STARTCHAR 4FB5
ENCODING 20405
SWIDTH 990 0
DWIDTH 22 0
BBX 20 18 1 -2
BITMAP
380000
3FFFC0
3DFFC0
3CFFC0
38FFC0
79FFC0
71FFC0
F9FFE0
F9FFF0
39C070
398000
39FFC0
39FFC0
3863C0
383F80
383FF0
387FE0
39FFE0
ENDCHAR
STARTCHAR 4FBF
ENCODING 20415
SWIDTH 945 0
DWIDTH 21 0
BBX 20 18 1 -2
BITMAP
380000
3DFFF0
3DFFF0
39CE00
79FFE0
71FFE0
71CEE0
F9FFE0
F9FFE0
39CEE0
39FFE0
39FFE0
3A1E00
39DC00
38FC00
387FF0
38FFE0
3BE3E0
ENDCHAR
STARTCHAR 4FC3
ENCODING 20419
SWIDTH 945 0
DWIDTH 21 0
BBX 19 18 1 -2
BITMAP
380000
3DFFE0
3DFFE0
3DC1E0
39C1E0
71C1E0
71FFE0
F8FF80
B80E00
380E00
398FE0
39CFE0
39CE00
39CE00
39CE00
39FFE0
3BFFE0
333FC0
ENDCHAR
STARTCHAR 4FC4
ENCODING 20420
SWIDTH 990 0
DWIDTH 22 0
BBX 21 18 0 -2
BITMAP
0001C0
1E1DC0
1FFDF8
1E79F8
3C39D0
3C39C0
39FFF0
7DFFF0
7C39C0
9C3BD0
1C3DF0
1DF8F8
1DF8F0
1CFBE0
1C38E0
1C38E0
1CF8F0
18F8E0
ENDCHAR
STARTCHAR 4FC5
ENCODING 20421
SWIDTH 990 0
DWIDTH 22 0
BBX 20 18 1 -1
BITMAP
1C0EE0
1E0EE0
1C0EE0
3C0E00
39FFF0
39FFF0
704E40
79CE70
F9EEE0
386E80
380E00
382E80
386EC0
39CEE0
3BCEF0
398E60
383E00
303E00
ENDCHAR
STARTCHAR 4FCA
ENCODING 20426
SWIDTH 945 0
DWIDTH 21 0
BBX 19 18 1 0
BITMAP
381800
3C3C00
3C3900
3C71C0
79FFE0
71FCC0
70E000
7873E0
F8F0E0
3BF040
38FFC0
38FFC0
39E1C0
3B33C0
383F80
381FE0
39FFE0
30F3C0
ENDCHAR
STARTCHAR 4FCE
ENCODING 20430
SWIDTH 990 0
DWIDTH 22 0
BBX 20 18 1 -1
BITMAP
100000
3C7FE0
3C7FE0
3C70E0
3870E0
3F70E0
777FE0
727FE0
C070E0
3C70E0
3C70E0
387FE0
387FE0
3F70E0
7770E0
7770E0
60FFF0
C0FFF0
ENDCHAR
STARTCHAR 4FCF
ENCODING 20431
SWIDTH 945 0
DWIDTH 21 0
BBX 19 18 1 -1
BITMAP
3C0E00
3DCE60
3DCEE0
3DCEE0
380EC0
79FFE0
71FFE0
79C0E0
F9C0E0
39FFE0
39FFE0
39C0E0
39C0E0
39FFE0
39FFE0
39C0E0
39C3E0
31C3E0
ENDCHAR
STARTCHAR 4FD0
ENCODING 20432
SWIDTH 990 0
DWIDTH 22 0
BBX 20 18 1 -2
BITMAP
200000
387070
3FF870
78E370
70E370
70E370
67FB70
F7FB70
F0E370
70E370
77FB70
77FB70
77FB70
77E370
76E070
70E070
70E1F0
60C1F0
ENDCHAR
STARTCHAR 4FD1
ENCODING 20433
SWIDTH 945 0
DWIDTH 21 0
BBX 19 18 1 -1
BITMAP
3800C0
3DFFE0
3DFFE0
3C7F80
781E00
71FFE0
71FFE0
79CEE0
F9CEE0
39FFE0
39FFE0
39CEE0
39FFE0
39FFE0
39CEE0
39CEE0
39CFE0
31C9E0
ENDCHAR
STARTCHAR 4FD7
ENCODING 20439
SWIDTH 945 0
DWIDTH 21 0
BBX 20 19 1 -1
BITMAP
380000
3C7700
3C73C0
3CF1E0
79CCC0
731E00
703E00
F83F80
F87BF0
38E1E0
3B80E0
38FFC0
38FFC0
38E1C0
38E1C0
38E1C0
38FDC0
30FF80
000300
ENDCHAR
STARTCHAR 4FD8
ENCODING 20440
SWIDTH 990 0
DWIDTH 22 0
BBX 20 19 1 -1
BITMAP
3801C0
3E0FE0
3FFFE0
3C7F80
39CEE0
79CEE0
71CEE0
600180
F9FFE0
B9FFE0
3801E0
380380
380E00
39FFF0
39FFF0
380E00
380E00
387E00
307E00
ENDCHAR
STARTCHAR 4FDA
ENCODING 20442
SWIDTH 990 0
DWIDTH 22 0
BBX 20 18 1 -2
BITMAP
380000
3FFFE0
3FFFE0
3DCEE0
7DCEE0
79FFE0
71FFE0
61CEE0
F9CEE0
B9FFE0
39FFE0
380E00
39FFE0
39FFE0
380E00
380E00
39FFF0
39FFF0
ENDCHAR
STARTCHAR 4FDC
ENCODING 20444
SWIDTH 990 0
DWIDTH 22 0
BBX 20 18 1 0
BITMAP
381E00
3E1E00
3FFFE0
3DFFE0
79FFE0
71FFE0
71DEE0
F9FFE0
B9FFE0
380000
39FFF0
39FFF0
38E000
38FFE0
387FE0
3800E0
3803E0
3003E0
ENDCHAR
STARTCHAR 4FDD
ENCODING 20445
SWIDTH 990 0
DWIDTH 22 0
BBX 20 17 1 0
BITMAP
3C0000
3FFFE0
3DFFE0
3DC0E0
79C0E0
71C0E0
61FFE0
F87FC0
B80E00
39FFF0
39FFF0
380E00
39CEE0
39CEE0
39CEE0
398E60
3B0E30
ENDCHAR
STARTCHAR 4FDE
ENCODING 20446
SWIDTH 945 0
DWIDTH 21 0
BBX 19 18 1 -1
BITMAP
00C000
01E000
03F000
07FE00
0F9FE0
3F07E0
FFFFC0
0FFE00
7F81C0
7FDDC0
71DDC0
7FDDC0
7FDDC0
71DDC0
7FDDC0
7FD9C0
73C3C0
73C3C0
ENDCHAR
STARTCHAR 4FDF
ENCODING 20447
SWIDTH 990 0
DWIDTH 22 0
BBX 21 18 0 -1
BITMAP
1C0E00
1F0E00
1E1EC0
1EB870
3CFFF8
3C7F30
386020
7C7000
7C7FF0
9C7FF0
1CE700
1C0700
1CFFF8
1CFFF8
1C0FC0
1C1FF8
1C3CF8
19F070
ENDCHAR
STARTCHAR 4FE1
ENCODING 20449
SWIDTH 990 0
DWIDTH 22 0
BBX 20 19 1 -3
BITMAP
180E00
1E0E00
3C0E00
3DFFF0
3DFFF0
380000
70FFE0
70FFE0
F8FFE0
38FFE0
380000
38E000
38FFE0
38FFE0
38E0E0
38E0E0
38FEE0
38FFC0
000180
ENDCHAR
STARTCHAR 4FE3
ENCODING 20451
SWIDTH 990 0
DWIDTH 22 0
BBX 20 18 1 -2
BITMAP
18E000
3EFFE0
3CFFE0
3CE0E0
38E0E0
78FCE0
70FDC0
780000
F8FFE0
38FFE0
381C00
381C00
39FFF0
39FFF0
381F80
383BE0
3871F0
39E0E0
ENDCHAR
STARTCHAR 4FE6
ENCODING 20454
SWIDTH 990 0
DWIDTH 22 0
BBX 20 18 1 -2
BITMAP
300E00
3E0E00
3DFFE0
3DFFE0
781E00
70FFE0
60FFE0
F83C00
F9FFF0
39FFF0
387800
387FF0
38FFF0
38C1C0
39B9C0
3839C0
383BC0
3803C0
ENDCHAR
STARTCHAR 4FE8
ENCODING 20456
SWIDTH 945 0
DWIDTH 21 0
BBX 21 18 0 -2
BITMAP
1E0000
1EFFF0
1EFFF0
1E1DC0
3CDDD0
3CFDF8
38DDF0
7C1DC0
7CFFF8
9CFFF8
1CE000
1CE000
1CE000
1CE000
1CE000
1CE000
1DC000
1D8000
ENDCHAR
STARTCHAR 4FE9
ENCODING 20457
SWIDTH 990 0
DWIDTH 22 0
BBX 20 18 1 -2
BITMAP
380000
3DFFF0
3DFFF0
3C3B80
383B80
79FFF0
71FFF0
79DB70
F9DB70
39DB70
39DFF0
39DEF0
39F670
39C070
39C070
39C370
39C3F0
3983F0
ENDCHAR
STARTCHAR 4FEA
ENCODING 20458
SWIDTH 990 0
DWIDTH 22 0
BBX 20 18 1 -2
BITMAP
300000
3BFFF0
3BFFF0
380000
39F3E0
31FBF0
71FBF0
79FBF0
79FBF0
F9FBF0
39FBF0
39FBF0
39FBF0
39FBF0
39FBF0
39FBF0
39FBF0
39BB70
ENDCHAR
STARTCHAR 4FED
ENCODING 20461
SWIDTH 945 0
DWIDTH 21 0
BBX 20 18 1 -1
BITMAP
381800
3E3E00
3C3C00
3C3E00
787F00
7873C0
70E3F0
F9FFE0
FB7FC0
380000
381C00
381DC0
39DDE0
39C1C0
39C380
380700
39FFE0
39FFE0
ENDCHAR
STARTCHAR 4FEE
ENCODING 20462
SWIDTH 990 0
DWIDTH 22 0
BBX 21 18 1 -2
BITMAP
1C3800
1E3800
1C3FE0
1C3FE0
39B9E0
39CFC0
318FF8
799FF0
F9FFF0
398780
399F80
39BDC0
3983C0
398FC0
39BE60
3801F0
380FF0
387F80
ENDCHAR
STARTCHAR 4FEF
ENCODING 20463
SWIDTH 990 0
DWIDTH 22 0
BBX 20 18 1 -1
BITMAP
000E00
3E0E00
3DFFF0
3DFFF0
39C000
79DEE0
71DCE0
61DFF0
F9FFF0
39FCE0
39FCE0
39DFE0
39DFE0
39DCE0
39DCE0
3B9CE0
3B1DE0
3A1DE0
ENDCHAR
STARTCHAR 4FF1
ENCODING 20465
SWIDTH 990 0
DWIDTH 22 0
BBX 20 17 1 -1
BITMAP
3EFFC0
3EFFC0
3CE1C0
3CFFC0
78FFC0
70E1C0
78FFC0
F8FFC0
B8E1C0
38FFC0
38FFC0
38E1C0
39FFF0
39FFF0
3861C0
38E1C0
38C1C0
ENDCHAR
STARTCHAR 4FF3
ENCODING 20467
SWIDTH 945 0
DWIDTH 21 0
BBX 20 18 1 -2
BITMAP
3C7380
3C7380
3C7380
3FF3F0
3BF3F0
707380
707380
F9F3F0
B9F3F0
387380
387380
387380
3BF3F0
3BF3F0
387380
387380
387380
306300
ENDCHAR
STARTCHAR 4FF8
ENCODING 20472
SWIDTH 990 0
DWIDTH 22 0
BBX 20 18 1 -2
BITMAP
180E00
3E0E00
3FFFE0
3DFFE0
38FFE0
38FFE0
703C00
61FFF0
F9FFF0
38F1F0
39EEF0
3FFFC0
38FFC0
380E00
39FFF0
39FFF0
380E00
380E00
ENDCHAR
STARTCHAR 4FFA
ENCODING 20474
SWIDTH 990 0
DWIDTH 22 0
BBX 21 18 1 -1
BITMAP
3C1C00
3E3E00
3DFFF0
3DFFF0
787980
78F1E0
70CEF8
79FFF0
FBFFE0
39CEE0
39FFE0
39FFE0
39CEE0
39FFE0
387FC0
380FF8
380FF0
380FF0
ENDCHAR
STARTCHAR 4FFE
ENCODING 20478
SWIDTH 990 0
DWIDTH 22 0
BBX 20 19 1 -2
BITMAP
000800
000E00
3FDC00
3DFFF0
3DFFF0
79CE70
79FFF0
71FFF0
61CE70
F9FFF0
38FFE0
383C00
38FF00
384700
39FFF0
39FFF0
380700
380700
380700
ENDCHAR
STARTCHAR 500C
ENCODING 20492
SWIDTH 990 0
DWIDTH 22 0
BBX 21 18 0 -1
BITMAP
0C0700
0F0700
1EFFF8
1EFFF8
1CE038
1CE030
387FF0
3C7FF0
5C7070
9C7070
1C7FF0
1C7FE0
1C7000
1C7FF0
1C7FF0
1C7070
1C7FF0
187FF0
ENDCHAR
STARTCHAR 500D
ENCODING 20493
SWIDTH 990 0
DWIDTH 22 0
BBX 20 18 1 0
BITMAP
180C00
3E1E00
3DFFE0
3DFFE0
387180
7871C0
707380
F9FFF0
B9FFF0
380000
380000
38FFE0
38FFE0
38E0E0
38E0E0
38E0E0
38FFC0
30FF80
ENDCHAR
STARTCHAR 500F
ENCODING 20495
SWIDTH 990 0
DWIDTH 22 0
BBX 19 18 2 0
BITMAP
787000
7C7000
787FC0
787FC0
73F3C0
F39F80
E30FE0
F33FE0
F3FBC0
730EC0
730EC0
73FFE0
73FFE0
731E00
701FE0
703DE0
707860
408000
ENDCHAR
STARTCHAR 5012
ENCODING 20498
SWIDTH 990 0
DWIDTH 22 0
BBX 21 18 0 -2
BITMAP
180000
1DFC38
1DFC38
1CF1B8
38E1B8
38D9B8
33FDB8
7BFDB8
B9C9B8
3871B8
3871B8
39FDB8
39FDB8
3871B8
387D38
3BF838
39E0F8
3180F8
ENDCHAR
STARTCHAR 5014
ENCODING 20500
SWIDTH 990 0
DWIDTH 22 0
BBX 20 18 1 -1
BITMAP
380000
3DFFF0
3DFFF0
39C070
39FFF0
71FFE0
71C380
79DBB0
F9DBB0
39DBB0
39DFF0
39DFF0
39C380
39DBB0
399BB0
3B9BB0
3B1FF0
321FF0
ENDCHAR
STARTCHAR 5018
ENCODING 20504
SWIDTH 990 0
DWIDTH 22 0
BBX 20 18 1 -1
BITMAP
1C0E00
1DCE60
3DCE70
3DCEE0
380EC0
79FFE0
71FFF0
79C070
F9DF70
39DF70
39DB70
39DB70
39DB70
39DF70
39DF70
39C070
39C3F0
3183F0
ENDCHAR
STARTCHAR 5019
ENCODING 20505
SWIDTH 1035 0
DWIDTH 23 0
BBX 21 17 1 -1
BITMAP
1C1FE0
1C1FE0
1C00E0
3F80E0
3BBFF8
3BBFF8
739800
7B9FF0
BB9FF0
3B9B80
3BA380
3BBFF8
3BBFF8
3B87C0
3B87E0
380E78
383C70
ENDCHAR
STARTCHAR 501A
ENCODING 20506
SWIDTH 990 0
DWIDTH 22 0
BBX 21 18 0 -2
BITMAP
0C0F00
1F0F00
1FFFF0
1EFFF0
1C1FE0
3C3CF0
387830
3C8000
7CFFF8
9CFFF8
1CFEE0
1CFEE0
1CEEE0
1CEEE0
1CFEE0
1C7CE0
1C09E0
1801E0
ENDCHAR
STARTCHAR 501C
ENCODING 20508
SWIDTH 990 0
DWIDTH 22 0
BBX 20 18 1 -2
BITMAP
180000
3DFFF0
3DFFF0
3DCE70
39CE70
79DF70
71DF70
79DF70
B9DF70
39C070
39DF70
39DF70
39DB70
39DF70
39DF70
398270
3B00F0
3A00F0
ENDCHAR
STARTCHAR 501F
ENCODING 20511
SWIDTH 990 0
DWIDTH 22 0
BBX 20 19 1 -1
BITMAP
3C7380
3E7380
3CFFF0
3CFFF0
387380
787380
71FFF0
79FFF0
F80000
38E000
38FFE0
38FFE0
38E0E0
38FFE0
38FFE0
38E0E0
38FEE0
38FFC0
000300
ENDCHAR
STARTCHAR 5021
ENCODING 20513
SWIDTH 945 0
DWIDTH 21 0
BBX 19 19 1 -2
BITMAP
180000
3EFFE0
3CFFE0
3CE0E0
38FFE0
78FFE0
70FEE0
60FFC0
B80180
380000
39FFE0
39FFE0
39C0E0
39FFE0
39FFE0
39C0E0
39FEE0
39FEC0
000180
ENDCHAR
STARTCHAR 5025
ENCODING 20517
SWIDTH 945 0
DWIDTH 21 0
BBX 19 18 1 -2
BITMAP
1C0E00
1E0E00
1DCFE0
3DFFE0
39FFE0
39C080
7033C0
7079E0
F8F0E0
B9C040
38FFE0
38FFE0
380E00
380E00
380E00
380E00
39FFE0
39FFE0
ENDCHAR
STARTCHAR 5026
ENCODING 20518
SWIDTH 945 0
DWIDTH 21 0
BBX 19 17 1 -1
BITMAP
3FDCC0
3DDCE0
3CDD80
79FFE0
79FFE0
73FFE0
FBFFE0
B8F1C0
38E1E0
3BFFE0
38FFC0
38E3C0
38EFC0
38E780
38FFE0
38FFE0
30FFC0
ENDCHAR
STARTCHAR 5028
ENCODING 20520
SWIDTH 945 0
DWIDTH 21 0
BBX 20 19 1 -2
BITMAP
380000
3DFFE0
3DFFE0
3DC0E0
39FFE0
71FFE0
71C000
F9C380
F9FFF0
39FFF0
39C380
39DFC0
39DFE0
39DFE0
39DCE0
3B9CE0
3B1FE0
3A1FE0
0000C0
ENDCHAR
STARTCHAR 5029
ENCODING 20521
SWIDTH 990 0
DWIDTH 22 0
BBX 20 19 1 -2
BITMAP
100E00
3C0E00
3E0E00
3DFFE0
3DFFE0
38FFE0
78FFE0
71FFF0
79FFF0
B80000
38FFE0
38FFE0
38FFE0
38FFE0
38FFE0
38FFE0
38E0E0
38E3E0
30C3E0
ENDCHAR
STARTCHAR 502A
ENCODING 20522
SWIDTH 945 0
DWIDTH 21 0
BBX 21 18 0 -1
BITMAP
1C0800
1E1C00
1EFDF0
1EE1F0
3CE070
3CF9F0
38F9F0
3CE070
7CE070
9CFFF0
1CFFF0
1C39C0
1C39C0
1C39C0
1C39C0
1C79F8
1C71F0
1CE1F0
ENDCHAR
STARTCHAR 502C
ENCODING 20524
SWIDTH 990 0
DWIDTH 22 0
BBX 20 18 1 0
BITMAP
381C00
3E1FE0
3C1FE0
3C1C00
79FFE0
79FFE0
71C0E0
F9FFE0
F9FFE0
39C0E0
39FFE0
38FFC0
381C00
3BFFF0
3BFFF0
381C00
381C00
301800
ENDCHAR
STARTCHAR 502D
ENCODING 20525
SWIDTH 990 0
DWIDTH 22 0
BBX 20 19 1 -2
BITMAP
000080
3C0F80
3EFFC0
3C3F80
3C0E00
79FFF0
79FFF0
70EEC0
F9CEF0
BB8C60
383800
39FFF0
39FFF0
38F3C0
38F380
38FFC0
381FE0
387EE0
31F000
ENDCHAR
STARTCHAR 502E
ENCODING 20526
SWIDTH 990 0
DWIDTH 22 0
BBX 20 18 1 -1
BITMAP
3C0000
3FFFE0
3DFFE0
3DCEE0
79FFE0
71FFE0
71CEE0
F9FFE0
F9FFE0
380E00
39FFF0
39FFF0
388E00
38EFE0
38EEE0
38EEE0
39CEE0
398E30
ENDCHAR
STARTCHAR 503A
ENCODING 20538
SWIDTH 945 0
DWIDTH 21 0
BBX 19 18 1 -1
BITMAP
181C00
3C1C00
3DFFE0
3DFFE0
39FFC0
79FFC0
73FFE0
7BFFE0
B80000
39FFC0
39FFE0
39C0E0
39DCE0
39DCE0
39DC00
383FE0
38F9E0
3BE060
ENDCHAR
STARTCHAR 503C
ENCODING 20540
SWIDTH 990 0
DWIDTH 22 0
BBX 20 18 1 -2
BITMAP
180E00
1E0E00
3FFFF0
3DFFF0
380E00
39FFE0
71FFE0
79E0E0
F9FFE0
B9FFE0
39E0E0
39FFE0
39FFE0
39FFE0
39FFE0
39E0E0
39FFF0
39FFF0
ENDCHAR
STARTCHAR 503E
ENCODING 20542
SWIDTH 990 0
DWIDTH 22 0
BBX 20 18 1 -2
BITMAP
200000
781FF0
7B9FF0
738380
739B00
739FF0
E3D830
F3DBB0
F39BB0
739BB0
739BB0
739BB0
739BB0
73DFA0
778700
778FF0
721E70
603820
ENDCHAR
STARTCHAR 5043
ENCODING 20547
SWIDTH 990 0
DWIDTH 22 0
BBX 20 18 1 -2
BITMAP
380000
3DFFF0
3DFFF0
3DC000
39CFF0
79CFF0
71CFF0
71CE70
79CFF0
B9C000
39DFF0
39DFF0
39CEE0
39CFF0
39C7F0
39CE30
39FFF0
39FFF0
ENDCHAR
STARTCHAR 5047
ENCODING 20551
SWIDTH 990 0
DWIDTH 22 0
BBX 20 18 1 -2
BITMAP
39C000
3DFBF0
3DFBF0
39D870
39D870
71FBF0
71FBF0
79C000
F9C7F0
39FFF0
39FA70
39C3F0
39FBE0
39F9E0
39C1E0
39C1F0
39C3F0
398660
ENDCHAR
STARTCHAR 5048
ENCODING 20552
SWIDTH 945 0
DWIDTH 21 0
BBX 20 18 0 -1
BITMAP
0C7000
0F7FF0
0E7FF0
1E7FF0
1C7FF0
1C7E70
387EF0
3C60E0
7C7000
9CFFF0
1CFFF0
1DC670
1DFE70
1C7DF0
1C71F0
1C7E70
1C7FF0
1C00F0
ENDCHAR
STARTCHAR 504C
ENCODING 20556
SWIDTH 990 0
DWIDTH 22 0
BBX 20 18 1 -1
BITMAP
1C71C0
3E71C0
3FFFF0
3DFFF0
3C71C0
786180
703C00
79FFF0
F9FFF0
387000
38F000
38FFC0
39FFE0
3BF0E0
3C70E0
3870E0
387EE0
387FC0
ENDCHAR
STARTCHAR 504E
ENCODING 20558
SWIDTH 990 0
DWIDTH 22 0
BBX 20 18 1 -2
BITMAP
10E000
3EFFE0
3EFFE0
3CEEE0
3CFFE0
78FFE0
70EEE0
78FFE0
F87FC0
39FFF0
39FFF0
387340
387370
3871E0
3873C0
39FDF0
39F1F0
38E0C0
ENDCHAR
STARTCHAR 504F
ENCODING 20559
SWIDTH 990 0
DWIDTH 22 0
BBX 20 19 1 -2
BITMAP
000400
1C0E00
3E0E00
3DFFE0
3DFFE0
39C0E0
79C0E0
71FFE0
79FFC0
F9C000
39FFF0
39FFF0
39FF70
39FFF0
39FFF0
39FF70
39BF70
3BBFF0
3B30F0
ENDCHAR
STARTCHAR 5055
ENCODING 20565
SWIDTH 990 0
DWIDTH 22 0
BBX 20 19 1 -3
BITMAP
180000
3FC380
3DC3A0
3DFBF0
39FBC0
39C380
73F3F0
7BE3F0
F999E0
381C00
39FFE0
39FFE0
39C0E0
39FFE0
39FFE0
39C0E0
39FDE0
39FDC0
000380
ENDCHAR
STARTCHAR 505A
ENCODING 20570
SWIDTH 990 0
DWIDTH 22 0
BBX 20 18 1 -2
BITMAP
300600
79C700
79C700
79C7F0
77F7F0
77F6E0
61C6E0
F1CEE0
F1CEE0
77F6E0
77F3E0
7773C0
7773C0
7773C0
7773C0
77F3E0
77F7F0
706CE0
ENDCHAR
STARTCHAR 505C
ENCODING 20572
SWIDTH 990 0
DWIDTH 22 0
BBX 20 19 1 -1
BITMAP
000400
3C0E00
3DFFF0
3DFFF0
3C0000
78FFE0
70FFE0
70FFE0
F87FC0
B9FFE0
39FFF0
39C070
390000
38FFE0
38FFE0
380E00
380E00
383E00
303E00
ENDCHAR
STARTCHAR 5065
ENCODING 20581
SWIDTH 945 0
DWIDTH 21 0
BBX 20 18 0 -1
BITMAP
3C0380
3FEFF0
3FEFF0
38E3B0
39DFF0
71DFF0
71CFF0
7BCFF0
FBE380
38EFF0
38EFF0
38E380
39EFF0
3BEFF0
39C380
39FFF0
3BBFF0
3B1FF0
ENDCHAR
STARTCHAR 506C
ENCODING 20588
SWIDTH 990 0
DWIDTH 22 0
BBX 19 18 2 -2
BITMAP
718000
79C000
79FFC0
79FFC0
7341C0
F2FDC0
E0FDC0
F1BDC0
F33DC0
707BC0
70C3C0
700400
737EC0
7376C0
7370C0
777FC0
767F60
707E00
ENDCHAR
STARTCHAR 5076
ENCODING 20598
SWIDTH 990 0
DWIDTH 22 0
BBX 21 17 0 -1
BITMAP
1EFFF0
1EFFF0
1EE770
1CFFF0
3CFFF0
38E770
3CFFF0
7C7FF0
9CE700
1CFFF8
1CFFF8
1CE7B8
1CE7B8
1CFFF8
1CEFF8
1CEC38
1CC078
ENDCHAR
STARTCHAR 5077
ENCODING 20599
SWIDTH 990 0
DWIDTH 22 0
BBX 21 18 0 -1
BITMAP
1C0E00
1F0F00
1E1F00
1E3FC0
3C7DF8
3CFFF0
3BBFE0
7CE000
7CFE70
9CFFF0
1CEFF0
1CFFF0
1CFFF0
1CFFF0
1CFFF0
1CEE70
1CFEF0
1CDEF0
ENDCHAR
STARTCHAR 507B
ENCODING 20603
SWIDTH 990 0
DWIDTH 22 0
BBX 20 18 1 -2
BITMAP
380000
3EEEC0
3CEEE0
3CEEC0
39FFF0
79FFF0
70EFC0
78EEF0
F9CE60
380800
383800
39FFF0
39FFF0
38F3C0
38FFC0
383FF0
387FF0
39F860
ENDCHAR
STARTCHAR 507E
ENCODING 20606
SWIDTH 990 0
DWIDTH 22 0
BBX 20 18 1 -2
BITMAP
1C0E00
3FFFE0
3DFFE0
3C0C00
387380
79FFF0
71FFF0
787380
F80200
39FFE0
39FFE0
39C0E0
39CEE0
39CEE0
39DE00
383FF0
3879F0
3BE060
ENDCHAR
STARTCHAR 507F
ENCODING 20607
SWIDTH 990 0
DWIDTH 22 0
BBX 20 18 1 -2
BITMAP
3DCE40
3FCEF0
3FCEE0
3C0E00
3FFFE0
7BFFF0
738070
7B0000
F8FFC0
B8FFC0
380000
39FFF0
39FFF0
383C00
3878C0
39FFE0
39FE70
39F060
ENDCHAR
STARTCHAR 5080
ENCODING 20608
SWIDTH 990 0
DWIDTH 22 0
BBX 20 18 1 0
BITMAP
380C00
3E1C00
3DFFE0
3DFFE0
79DCE0
79DCE0
71FFE0
F9FFE0
F9DCE0
39FFE0
39FFE0
381C60
383F60
383F40
387FF0
38F7F0
38E7F0
3387F0
ENDCHAR
STARTCHAR 5085
ENCODING 20613
SWIDTH 990 0
DWIDTH 22 0
BBX 20 18 1 -1
BITMAP
100E00
1E0E60
3DFFF0
3DFFF0
39FFF0
39FFF0
71FFF0
79FFF0
F9FFF0
39FFF0
39CC60
3801C0
3801C0
39FFF0
39FFF0
3861C0
38E7C0
30E7C0
ENDCHAR
STARTCHAR 5088
ENCODING 20616
SWIDTH 990 0
DWIDTH 22 0
BBX 21 17 1 -2
BITMAP
3DFFF0
3DFFF0
3C3B80
39FFF0
79FFF8
71DB78
71DB78
F9FFF8
39FFF0
380000
380E00
39FFF0
39FFF0
38CEE0
39EEE0
39CEE0
398E70
ENDCHAR
STARTCHAR 508D
ENCODING 20621
SWIDTH 990 0
DWIDTH 22 0
BBX 20 19 1 -1
BITMAP
000E00
3C0E00
3DFFE0
3DFFE0
3C0100
7871C0
7871C0
61FFF0
F9FFF0
F9CE70
390E40
39FFF0
39FFF0
387000
387FE0
387FE0
38F0E0
38E3E0
39C3E0
ENDCHAR
STARTCHAR 5091
ENCODING 20625
SWIDTH 990 0
DWIDTH 22 0
BBX 20 18 1 -1
BITMAP
3FC0E0
3FFFF0
3DFFF0
3DBEE0
3B3AE0
70FBF0
707BF0
F870E0
38E0E0
3B8EC0
380E00
39FFF0
39FFF0
38CE40
38EEE0
38CEE0
398E70
200800
ENDCHAR
STARTCHAR 50A3
ENCODING 20643
SWIDTH 990 0
DWIDTH 22 0
BBX 20 17 1 -1
BITMAP
3E1C00
3FFFE0
3DFFE0
3C1C00
78FFE0
70FFE0
79FFF0
F9FFF0
3873E0
38E1F0
3B9C70
38DCE0
38DDC0
385D80
3BDCF0
39FC70
31BC20
ENDCHAR
STARTCHAR 50A5
ENCODING 20645
SWIDTH 990 0
DWIDTH 22 0
BBX 20 18 1 -2
BITMAP
100E00
3DCEC0
3DCEE0
3D8EC0
3BFFF0
7BFFF0
73C070
7BFFE0
F9FFC0
39C1C0
39C1C0
39FFC0
38FFC0
387380
387380
38F3F0
39E3F0
3BC3E0
ENDCHAR
STARTCHAR 50A7
ENCODING 20647
SWIDTH 990 0
DWIDTH 22 0
BBX 21 18 0 0
BITMAP
0C0700
1F0700
1FFFF8
1EFFF8
1EE030
3CC060
387FE0
3C7FE0
7C7000
9C7FF0
1C7FF0
1C71C0
1C71C0
1CFFF8
1CFFF8
1C3060
1C78E0
1870E0
ENDCHAR
STARTCHAR 50A8
ENCODING 20648
SWIDTH 990 0
DWIDTH 22 0
BBX 21 19 0 -1
BITMAP
3DC380
3DC380
3DCFC0
3C8FF8
3803F8
3BC3F0
73DFF0
79DFF0
79C380
F9C780
39DFF0
39FFF0
39CE70
39CFF0
39FFF0
3BEE70
3BCFF0
398FF0
000040
ENDCHAR
STARTCHAR 50A9
ENCODING 20649
SWIDTH 990 0
DWIDTH 22 0
BBX 20 18 1 -2
BITMAP
300000
381EE0
381EE0
3FDCE0
77DFF0
71DFF0
61DCE0
75FCE0
F3FFF0
739FF0
739CE0
739CE0
73DFF0
73FFF0
77FCE0
76DCE0
749FF0
781FF0
ENDCHAR
STARTCHAR 50AC
ENCODING 20652
SWIDTH 990 0
DWIDTH 22 0
BBX 20 18 1 -2
BITMAP
300E00
3DCE70
3DCE70
3DCE70
79FFF0
79FFF0
70E380
79E380
F9FFF0
B9DFF0
3BDFF0
3FDFF0
39C380
39DFF0
39DFF0
39C380
39DFF0
39DFF0
ENDCHAR
STARTCHAR 50B2
ENCODING 20658
SWIDTH 990 0
DWIDTH 22 0
BBX 20 18 1 -2
BITMAP
71C700
79C700
7FFF00
77FF00
71C7F0
73F7E0
E3F6E0
F1C6E0
F7FEE0
77FAE0
7383C0
73FBC0
73FBC0
73B9C0
77BBE0
773BF0
777AE0
6C7C40
ENDCHAR
STARTCHAR 50BA
ENCODING 20666
SWIDTH 990 0
DWIDTH 22 0
BBX 20 18 1 -1
BITMAP
18C400
1EC200
1CFBF0
1DFBF0
3DFB70
3B79E0
71F1E0
79F1F0
F8FFF0
3BBFA0
380000
39FFF0
39FFF0
380E00
38CEE0
39CEE0
3BBEE0
383E00
ENDCHAR
STARTCHAR 50BB
ENCODING 20667
SWIDTH 945 0
DWIDTH 21 0
BBX 20 19 1 -1
BITMAP
000800
380E00
3DEC00
3DFFE0
3DFFE0
79DFE0
79CFE0
71F3E0
F9FFE0
F8FFE0
38F1E0
39E060
38FFC0
38FFC0
39F1C0
3B3B80
383FF0
38FFE0
33FBE0
ENDCHAR
STARTCHAR 50CF
ENCODING 20687
SWIDTH 990 0
DWIDTH 22 0
BBX 20 18 1 0
BITMAP
38E000
3CE180
3DFFC0
3DFF80
7BFFE0
71FFE0
71CEE0
79CEE0
F9FFE0
38FFC0
38FC60
39EEF0
386EC0
3BEF80
382EC0
38FEF0
3BFE60
301E00
ENDCHAR
STARTCHAR 50D6
ENCODING 20694
SWIDTH 990 0
DWIDTH 22 0
BBX 20 18 1 -2
BITMAP
380E00
3DFFF0
39FFF0
39FFE0
79FFE0
700000
71FFE0
E1FFE0
F9FFE0
38FFC0
3873C0
3BFFF0
3BFFF0
39FFC0
39FFE0
39C0E0
39FCE0
31FDC0
ENDCHAR
STARTCHAR 50DA
ENCODING 20698
SWIDTH 990 0
DWIDTH 22 0
BBX 20 17 1 -1
BITMAP
3C1E00
3DFFF0
3DFFF0
39DF70
79FBE0
71F9F0
79FFF0
F8FFE0
38FFC0
38FFC0
38E1C0
38FFC0
387FC0
39CE70
39EE70
3BBE70
381E00
ENDCHAR
STARTCHAR 50E6
ENCODING 20710
SWIDTH 990 0
DWIDTH 22 0
BBX 20 18 1 -2
BITMAP
304000
38E380
38E380
7FFBB0
77FBB0
770380
67FFF0
F7FFF0
F73B80
773BE0
77FBE0
73FBE0
70E3E0
77FFE0
76FFE0
74E770
71E670
71EC70
ENDCHAR
STARTCHAR 50E7
ENCODING 20711
SWIDTH 990 0
DWIDTH 22 0
BBX 21 19 0 -2
BITMAP
001000
1C38C0
1E38E0
1EFFF8
1EFFF8
1CE738
3CF7F8
38FFF8
3CE738
7CFFF8
9CFFF8
1C0000
1C7FF0
1C7FF0
1C7FF0
1C7FF0
1C7070
1C7F70
1C7FE0
ENDCHAR
STARTCHAR 50EC
ENCODING 20716
SWIDTH 990 0
DWIDTH 22 0
BBX 20 18 1 -2
BITMAP
3CF380
3CF380
3DEFF0
39CFF0
39E380
73EFF0
70EFF0
F8E380
B8EFF0
38EFF0
38E380
38EFF0
38EFF0
380000
3BB330
3BBBF0
3BBBF0
020000
ENDCHAR
STARTCHAR 50ED
ENCODING 20717
SWIDTH 990 0
DWIDTH 22 0
BBX 20 19 1 -2
BITMAP
380000
3DFFF0
3DFFF0
39E7C0
39FFF0
39FFF0
70F1E0
60F3E0
79FBF0
BB0670
38FFE0
38FFE0
38E0E0
38FFE0
38FFE0
38E0E0
38FEE0
38FFC0
000380
ENDCHAR
STARTCHAR 50EE
ENCODING 20718
SWIDTH 990 0
DWIDTH 22 0
BBX 20 19 1 -1
BITMAP
000E00
380E00
3DFFE0
3DFFE0
3C71C0
387180
7BFFF0
73FFF0
79FFE0
F9FFE0
39FFE0
39FFE0
39FFE0
39FFE0
380E00
39FFE0
39FFE0
3BFFF0
3BFFF0
ENDCHAR
STARTCHAR 50F3
ENCODING 20723
SWIDTH 990 0
DWIDTH 22 0
BBX 21 18 1 0
BITMAP
3C0000
3FFFF8
3FFFF8
3DBB80
39FFF8
79FFF8
71DB78
79FFF8
F9FFF0
388E00
39CE70
39CE70
39FFF0
39FFF0
38EEC0
39EEF0
39CE70
300C20
ENDCHAR
STARTCHAR 50F5
ENCODING 20725
SWIDTH 990 0
DWIDTH 22 0
BBX 21 18 0 -2
BITMAP
1C0000
1FFFF0
1EFFF0
1E7FF0
3C7FF0
3C7FF0
387FF0
3C3FE0
7CFFF8
9CFFF8
1C7FF0
1C7FF0
1C7670
1C7FF0
1C7FF0
1C0000
1CFFF8
1CFFF8
ENDCHAR
STARTCHAR 50FB
ENCODING 20731
SWIDTH 1035 0
DWIDTH 23 0
BBX 21 18 1 -1
BITMAP
7001C0
7BF9C0
7BFBF0
7BBBF0
73B800
73BB78
E3FB70
F3F0C0
F303F8
7303F8
73F9C0
73F9C0
77FBF0
77FBF0
75F9C0
71F9C0
71F1C0
61F1C0
ENDCHAR
STARTCHAR 5104
ENCODING 20740
SWIDTH 990 0
DWIDTH 22 0
BBX 20 19 1 0
BITMAP
000E00
3C0E00
3FFFE0
3DFFE0
3C71C0
79FFF0
71FFF0
71C000
F9FFE0
F9FFE0
39FFE0
39FFE0
39FFE0
380200
383F00
39BB60
39B860
3BBFF0
333F30
ENDCHAR
STARTCHAR 5106
ENCODING 20742
SWIDTH 990 0
DWIDTH 22 0
BBX 20 18 1 -2
BITMAP
03B900
7BBB80
7FFB80
77FBF0
733BF0
673370
E70370
F7FB70
F7FF70
7639F0
77B9E0
77B9E0
76B9E0
76B9C0
77B9E0
77B9F0
707BF0
607E60
ENDCHAR
STARTCHAR 5107
ENCODING 20743
SWIDTH 990 0
DWIDTH 22 0
BBX 20 18 1 -1
BITMAP
19C000
3FFFE0
3FFFE0
3DFFE0
3DFFE0
780000
71FFF0
79FFF0
F9FFE0
39FFE0
39FFE0
39FFE0
387920
38F1F0
3BF9E0
387DE0
39F8F0
30E0E0
ENDCHAR
STARTCHAR 510B
ENCODING 20747
SWIDTH 945 0
DWIDTH 21 0
BBX 20 19 1 -1
BITMAP
38E000
3CE180
3CFFC0
3DFF80
79FFF0
73FFF0
71CCE0
F9D860
F9E720
39FFF0
39FFF0
39DFE0
39DFE0
39DFE0
39FFE0
3BBFE0
3B3CE0
3A3EE0
000180
ENDCHAR
STARTCHAR 5112
ENCODING 20754
SWIDTH 990 0
DWIDTH 22 0
BBX 21 18 0 -2
BITMAP
1FFFF0
1FFFF0
1C0E00
1DFFF0
39FFF0
39FEF0
39FEF0
7DFEF0
7C3CC0
9DFFF8
1C0C00
1C0C00
1CFFF8
1CFFF8
1CEF38
1CEF38
1CEF78
18CA78
ENDCHAR
STARTCHAR 5121
ENCODING 20769
SWIDTH 990 0
DWIDTH 22 0
BBX 21 18 0 -2
BITMAP
180000
1CFFF0
3CFFF0
3CEE70
38FFF0
38FFF0
70EE70
78FFF0
78FFE0
B80000
3BFBF8
3BFBF8
3B5B58
3BFBF8
3BFBF8
3B5B58
3BFBF8
3BFBF8
ENDCHAR
STARTCHAR 513F
ENCODING 20799
SWIDTH 945 0
DWIDTH 21 0
BBX 20 17 1 -1
BITMAP
1C1C00
1C1C00
1C1C00
1C1C00
1C1C00
1C1C00
1C1C00
1C1C00
1C1C00
1C1C00
1C1C00
1C1C00
3C1C00
381C00
381FF0
701FE0
E01FE0
ENDCHAR
STARTCHAR 5140
ENCODING 20800
SWIDTH 990 0
DWIDTH 22 0
BBX 20 18 1 -2
BITMAP
FFFFE0
FFFFE0
0E0E00
0E0E00
0E0E00
0E0E00
0E0E00
0E0E00
0E0E00
0E0E00
0E0E00
1E0E00
1C0E00
1C0E00
380FF0
380FE0
600FE0
800000
ENDCHAR
STARTCHAR 5141
ENCODING 20801
SWIDTH 990 0
DWIDTH 22 0
BBX 19 19 2 -1
BITMAP
038000
03C000
03E000
07C000
078400
0F0700
1C0380
FFFFC0
FFFFE0
FFFDC0
7E1D80
0E1C00
0E1C00
0E1C00
1E1C00
1C1C00
381FE0
301FE0
601FC0
ENDCHAR
STARTCHAR 5143
ENCODING 20803
SWIDTH 990 0
DWIDTH 22 0
BBX 20 17 1 -1
BITMAP
3FFF80
3FFF80
000000
000000
000000
FFFFE0
FFFFE0
0E0E00
0E0E00
0E0E00
0E0E00
0E0E00
1E0E00
1C0E00
1C0FF0
380FF0
600FE0
ENDCHAR
STARTCHAR 5144
ENCODING 20804
SWIDTH 990 0
DWIDTH 22 0
BBX 18 18 2 -2
BITMAP
FFFF00
FFFF00
F00700
F00700
F00700
F00700
F00700
FFFF00
7FFF00
0E3800
0E3800
1E3800
1E3800
1C3800
3C3FC0
383FC0
703FC0
800000
ENDCHAR
STARTCHAR 5145
ENCODING 20805
SWIDTH 945 0
DWIDTH 21 0
BBX 19 18 1 0
BITMAP
00E000
00E000
FFFFC0
FFFFC0
078000
0F0C00
1E0780
FFFF80
7FFF80
7FFF00
7E1C00
0E1C00
0E1C00
0E1C00
1C1C00
1C1FE0
381FE0
601FC0
ENDCHAR
STARTCHAR 5146
ENCODING 20806
SWIDTH 1035 0
DWIDTH 23 0
BBX 21 17 1 -1
BITMAP
038E00
038E00
338E60
738E70
7B8EF0
3B8EE0
038E00
038E00
0B8E80
1B8EC0
7B8EF0
FB8E78
778E70
270E20
070FF8
0E0FF8
180FF0
ENDCHAR
STARTCHAR 5148
ENCODING 20808
SWIDTH 990 0
DWIDTH 22 0
BBX 20 18 1 -1
BITMAP
00E000
3CE000
3CE000
3FFFC0
3FFFC0
30E000
60E000
00E000
FFFFE0
FFFFE0
0E0E00
0E0E00
0E0E00
0E0E00
1C0E00
1C0FF0
380FE0
600FE0
ENDCHAR
STARTCHAR 5149
ENCODING 20809
SWIDTH 990 0
DWIDTH 22 0
BBX 19 18 1 0
BITMAP
00F000
00F000
18F380
38F3C0
38F380
18F600
00F000
00F000
FFFFE0
FFFFE0
070E00
070E00
0F0E00
0F0E00
0E0E00
1C0FE0
180FE0
300FE0
ENDCHAR
STARTCHAR 514B
ENCODING 20811
SWIDTH 990 0
DWIDTH 22 0
BBX 19 18 1 -1
BITMAP
00E000
00E000
FFFFE0
FFFFE0
38E000
3FFF80
3FFF80
380380
380380
380380
3FFF80
3FFF80
071C00
0F1C00
0F1C00
0E1FE0
1C1FE0
781FE0
ENDCHAR
STARTCHAR 514D
ENCODING 20813
SWIDTH 990 0
DWIDTH 22 0
BBX 19 20 2 -2
BITMAP
080000
1E0000
1E0800
3FFE00
3FFE00
703C00
F03800
7FFF80
7FFF80
70E380
70E380
7FFF80
3FFF80
01C000
03F800
07F800
0FBFE0
1F3FE0
7C3FC0
800000
ENDCHAR
STARTCHAR 5150
ENCODING 20816
SWIDTH 945 0
DWIDTH 21 0
BBX 18 18 2 -2
BITMAP
E00000
E3FF80
E3FF80
E38380
E3FF80
E3FF80
E38380
E38380
E3FF00
E3FF00
000000
1C3800
1C3800
1C3800
1C3800
3C3FC0
783FC0
F03F80
ENDCHAR
STARTCHAR 5151
ENCODING 20817
SWIDTH 945 0
DWIDTH 21 0
BBX 18 18 2 -1
BITMAP
0C1800
1C1C00
1C3C00
0C3000
FFFF00
FFFF00
E00700
E00700
E00700
E00700
FFFF00
3FFE00
1C3800
1C3800
1C3800
383FC0
783FC0
E03F80
ENDCHAR
STARTCHAR 5152
ENCODING 20818
SWIDTH 945 0
DWIDTH 21 0
BBX 18 19 2 -1
BITMAP
020000
0F0000
FF7F00
F07F80
F00780
FF7F80
FF7F80
F00780
F00780
FFFF80
FFFF00
0E3800
0E3800
1E3800
1C3800
1C3FC0
383FC0
703FC0
800000
ENDCHAR
STARTCHAR 5154
ENCODING 20820
SWIDTH 1035 0
DWIDTH 23 0
BBX 20 20 2 -2
BITMAP
080000
1E0000
1E0C00
3FFE00
3FFE00
703C00
F03800
7FFFC0
7FFFC0
70E3C0
70E3C0
7FFFC0
3FFFC0
01C080
03F9C0
07B9C0
0FBFF0
1E3FE0
783FE0
800000
ENDCHAR
STARTCHAR 5155
ENCODING 20821
SWIDTH 990 0
DWIDTH 22 0
BBX 19 18 2 -2
BITMAP
FF3F80
FF3F80
F73B80
F73B80
F7FB80
F7F380
F00380
F00380
FFFF80
FFFF80
0E1C00
0E1C00
1E1C00
1E1C00
1C1FE0
381FE0
701FC0
800000
ENDCHAR
STARTCHAR 5156
ENCODING 20822
SWIDTH 990 0
DWIDTH 22 0
BBX 20 18 1 -1
BITMAP
00E000
00E000
FFFFE0
FFFFE0
318600
39C3C0
7BC1C0
6788C0
070700
3FFF80
3FFF80
3F1D00
071C00
0F1C00
0F1C00
0E1FF0
1C1FE0
781FE0
ENDCHAR
STARTCHAR 515A
ENCODING 20826
SWIDTH 945 0
DWIDTH 21 0
BBX 19 18 1 -1
BITMAP
1DC600
1DC700
1DCC00
FFFFC0
FFFFC0
E001C0
E00180
3FFF00
3FFF00
380700
380700
3FFF00
3FFF00
0F3800
0E3800
1E3FE0
1C3FE0
783FC0
ENDCHAR
STARTCHAR 515C
ENCODING 20828
SWIDTH 945 0
DWIDTH 21 0
BBX 19 19 1 -2
BITMAP
100000
1CE000
3CE3C0
F8C3C0
E7F9C0
E739C0
E739C0
E7F9C0
E7F9C0
E739C0
E7B9C0
FFBBC0
F063C0
0E1C00
0E1C00
0E1C00
1E1FE0
3C1FE0
781FC0
ENDCHAR
STARTCHAR 5162
ENCODING 20834
SWIDTH 990 0
DWIDTH 22 0
BBX 20 18 1 -2
BITMAP
1C0700
1C0700
FFFFF0
FFFFF0
1C0700
7F9FE0
7F9FE0
739CE0
739CE0
739CE0
7F9FE0
7F1FC0
771DC0
771DC0
771DC0
779DF0
E7F9F0
C331E0
ENDCHAR
STARTCHAR 5165
ENCODING 20837
SWIDTH 990 0
DWIDTH 22 0
BBX 19 18 2 -1
BITMAP
010000
008000
008000
008000
00C000
00C000
01E000
01E000
01F000
03F800
03F800
07BC00
07BE00
0F1F00
1E1FC0
3C0FE0
7807C0
C00380
ENDCHAR
STARTCHAR 5168
ENCODING 20840
SWIDTH 990 0
DWIDTH 22 0
BBX 19 18 2 0
BITMAP
01C000
01E000
03F000
07FE00
1F9FE0
3E0FC0
F803C0
000000
1FFF00
1FFF00
00E000
00E000
7FFF00
7FFF00
00E000
00E000
FFFFC0
FFFFC0
ENDCHAR
STARTCHAR 516B
ENCODING 20843
SWIDTH 990 0
DWIDTH 22 0
BBX 20 18 1 0
BITMAP
002000
001000
001000
071000
079000
079800
079800
079C00
0F1C00
0F1E00
0F0E00
1E0F00
1E0F80
1C0780
3807C0
3803F0
6003E0
800180
ENDCHAR
STARTCHAR 516C
ENCODING 20844
SWIDTH 990 0
DWIDTH 22 0
BBX 18 18 2 0
BITMAP
0C2000
0F3000
0F1000
1F1C00
1E1E00
3C0F00
398FC0
71E7C0
E3E3C0
83C000
078000
078800
0E0E00
1C0700
7FFF80
7FF380
7F8380
3C0000
ENDCHAR
STARTCHAR 516D
ENCODING 20845
SWIDTH 990 0
DWIDTH 22 0
BBX 19 17 2 -1
BITMAP
006000
00E000
00E000
006000
000000
FFFFE0
FFFFE0
000000
000000
061000
0F8C00
0F0700
0F0780
1E03E0
3E03E0
3C01E0
7001C0
ENDCHAR
STARTCHAR 516E
ENCODING 20846
SWIDTH 990 0
DWIDTH 22 0
BBX 20 18 1 1
BITMAP
070400
078600
078300
0F03C0
1E01F0
1C01F0
3800F0
DFFFC0
1FFF80
070000
070000
07FFC0
07FFC0
0001C0
0001C0
0001C0
000FC0
000FC0
ENDCHAR
STARTCHAR 5170
ENCODING 20848
SWIDTH 945 0
DWIDTH 21 0
BBX 19 18 1 0
BITMAP
060E00
0E0F00
0E0E00
041800
000000
7FFFC0
7FFFC0
000000
000000
000000
3FFF80
3FFF80
000000
000000
000000
000000
FFFFE0
FFFFE0
ENDCHAR
STARTCHAR 5171
ENCODING 20849
SWIDTH 990 0
DWIDTH 22 0
BBX 20 17 1 -1
BITMAP
0E0700
0E0700
0E0700
7FFFE0
7FFFE0
0E0700
0E0700
0E0700
0E0700
0E0700
FFFFF0
FFFFF0
000000
0F0300
0E0380
1E0380
3C0300
ENDCHAR
STARTCHAR 5172
ENCODING 20850
SWIDTH 945 0
DWIDTH 21 0
BBX 18 17 2 -2
BITMAP
7FFFC0
7FFFC0
00E000
00E000
7FFF80
7FFF80
00E000
00E000
FFFFC0
FFFFC0
081000
0E0800
1F0C00
1E0E00
3E0780
7C07C0
F00380
ENDCHAR
STARTCHAR 5173
ENCODING 20851
SWIDTH 990 0
DWIDTH 22 0
BBX 18 19 2 -1
BITMAP
060C00
0E1E00
0E1E00
063800
7FFF80
7FFF80
01C000
01C000
01C000
01C000
FFFFC0
FFFFC0
03E000
03F000
07BC00
071F00
1F1FC0
3C0F80
600300
ENDCHAR
STARTCHAR 5174
ENCODING 20852
SWIDTH 945 0
DWIDTH 21 0
BBX 19 17 1 -2
BITMAP
038000
61E380
38E3C0
3CC780
1C0700
180E00
000000
FFFFE0
FFFFE0
000000
000000
0C1C00
0F0F00
1E0780
1E03C0
3C0380
780100
ENDCHAR
STARTCHAR 5175
ENCODING 20853
SWIDTH 990 0
DWIDTH 22 0
BBX 20 18 1 -2
BITMAP
000100
000780
1DFF80
1FFE00
1C0000
1C0000
1FFFE0
1FFFE0
1C0E00
1C0E00
1C0E00
1C0E00
FFFFF0
FFFFF0
0C0300
0E0380
1C0380
380300
ENDCHAR
STARTCHAR 5176
ENCODING 20854
SWIDTH 990 0
DWIDTH 22 0
BBX 20 18 1 -2
BITMAP
0E0380
0E0380
7FFFE0
7FFFE0
0E0380
0FFF80
0FFF80
0E0380
0FFF80
0FFF80
0E0380
0E0380
FFFFF0
FFFFF0
0C0300
0E0380
1E0380
3C0300
ENDCHAR
STARTCHAR 5177
ENCODING 20855
SWIDTH 990 0
DWIDTH 22 0
BBX 20 18 1 -1
BITMAP
1C0000
1FFF80
1FFF80
1FFF80
1FFF80
1C0380
1FFF80
1FFF80
1C0380
1FFF80
1FFF80
1C0380
FFFFF0
FFFFF0
0C0300
0E0380
1E0380
3C0300
ENDCHAR
STARTCHAR 5178
ENCODING 20856
SWIDTH 990 0
DWIDTH 22 0
BBX 20 18 1 -2
BITMAP
039C00
039C00
3FFFC0
3FFFC0
3B9DC0
3B9DC0
3B9DC0
3FFFC0
3FFFC0
3B9DC0
3B9DC0
3B9DC0
FFFFF0
FFFFF0
0C0300
1E0380
1E0380
7C0300
ENDCHAR
STARTCHAR 5179
ENCODING 20857
SWIDTH 990 0
DWIDTH 22 0
BBX 20 18 1 -1
BITMAP
070600
070780
070F00
FFFFF0
FFFFF0
0E0700
1C0F00
1F0E80
3B9DE0
FFFFE0
7F3FC0
7F3F80
0E0700
1D0F80
198C60
FFFFE0
7FFFF0
789E60
ENDCHAR
STARTCHAR 517B
ENCODING 20859
SWIDTH 990 0
DWIDTH 22 0
BBX 18 19 2 -1
BITMAP
060C00
0E0E00
0E0E00
7FFFC0
7FFFC0
01E000
3FFF80
3FFF80
03C000
FFFFC0
FFFFC0
1F0F80
7C07C0
FE0FC0
0E0E00
0E0E00
1E0E00
1C0E00
300800
ENDCHAR
STARTCHAR 517C
ENCODING 20860
SWIDTH 990 0
DWIDTH 22 0
BBX 19 18 2 -1
BITMAP
0E0C00
0E1E00
7FFFE0
7FFFE0
073800
7FFF80
7FFF80
073B80
073B80
FFFFE0
FFFFE0
073B80
7FFF80
7FFF80
673980
773B80
773B80
E739C0
ENDCHAR
STARTCHAR 517D
ENCODING 20861
SWIDTH 990 0
DWIDTH 22 0
BBX 20 20 1 -1
BITMAP
010800
038E00
039E00
3FFFC0
3FFFC0
38E1C0
3FFFC0
3FFFC0
38E1C0
3FFFC0
3FFFC0
FFFFF0
FFFFF0
1C0000
1FFF80
1FFF80
1C0380
1FFB80
1FFB80
000600
ENDCHAR
STARTCHAR 5180
ENCODING 20864
SWIDTH 990 0
DWIDTH 22 0
BBX 20 18 1 -1
BITMAP
7F9CE0
7F9FE0
039C00
7F9FE0
631FE0
3FFFC0
3FFFC0
3FFFC0
3FFFC0
3FFFC0
3FFFC0
7FFFE0
7FFFE0
070700
FFFFF0
FFFFF0
0E0700
1C0700
ENDCHAR
STARTCHAR 5181
ENCODING 20865
SWIDTH 990 0
DWIDTH 22 0
BBX 20 17 1 0
BITMAP
720000
777FF0
3FFFF0
FFF070
DDFFF0
DDFFE0
FFF7E0
FFF7E0
DDFFF0
FFF7E0
7FFFF0
1C7FF0
FFF7C0
FFF7F0
1C67E0
1C6F70
1C4E70
ENDCHAR
STARTCHAR 5182
ENCODING 20866
SWIDTH 990 0
DWIDTH 22 0
BBX 18 18 2 -1
BITMAP
E00000
FFFFC0
FFFFC0
E001C0
E001C0
E001C0
E001C0
E001C0
E001C0
E001C0
E001C0
E001C0
E001C0
E001C0
E001C0
E001C0
E003C0
C003C0
ENDCHAR
STARTCHAR 5185
ENCODING 20869
SWIDTH 990 0
DWIDTH 22 0
BBX 18 18 2 -2
BITMAP
00E000
00E000
E0E000
FFFFC0
FFFFC0
E0E1C0
E0E1C0
E1E1C0
E1C1C0
E1D9C0
E3DDC0
E39DC0
E719C0
E001C0
E001C0
E001C0
E007C0
E007C0
ENDCHAR
STARTCHAR 5188
ENCODING 20872
SWIDTH 990 0
DWIDTH 22 0
BBX 18 18 2 -1
BITMAP
E00000
FFFFC0
FFFFC0
E031C0
E079C0
EC7DC0
E779C0
E3F9C0
E1F1C0
E1F9C0
E3FDC0
E3BDC0
E73DC0
EE1DC0
F009C0
E001C0
E003C0
C003C0
ENDCHAR
STARTCHAR 5189
ENCODING 20873
SWIDTH 990 0
DWIDTH 22 0
BBX 20 18 1 -1
BITMAP
007000
007000
3FFFC0
3FFFC0
3871C0
3871C0
3871C0
3FFFC0
3FFFC0
3871C0
3871C0
FFFFF0
FFFFF0
3801C0
3801C0
3801C0
3807C0
3007C0
ENDCHAR
STARTCHAR 518C
ENCODING 20876
SWIDTH 990 0
DWIDTH 22 0
BBX 20 18 1 -1
BITMAP
381C00
3F9FE0
3F9FE0
3B9CE0
3B9CE0
3B9CE0
3B9CE0
3B9CE0
FFFFF0
FFFFF0
3B9CE0
3B9CE0
3B9CE0
7B9CE0
739CE0
7398E0
67BBE0
C7A3E0
ENDCHAR
STARTCHAR 518D
ENCODING 20877
SWIDTH 990 0
DWIDTH 22 0
BBX 20 17 1 -2
BITMAP
7FFFF0
7FFFF0
387000
3FFFC0
3FFFC0
3871C0
3871C0
3FFFC0
3FFFC0
3871C0
3871C0
FFFFF0
FFFFF0
3801C0
3801C0
3807C0
3807C0
ENDCHAR
STARTCHAR 5192
ENCODING 20882
SWIDTH 945 0
DWIDTH 21 0
BBX 17 19 2 -2
BITMAP
E00000
FFFF80
FFFF80
EFFB80
EFFB80
E00380
EFFB80
0FF800
380000
3FFF00
3FFF00
3FFF00
3FFF00
380700
3FFF00
3FFF00
3FF700
3FFE00
000C00
ENDCHAR
STARTCHAR 5195
ENCODING 20885
SWIDTH 945 0
DWIDTH 21 0
BBX 19 18 1 -1
BITMAP
7FFF80
7FFFC0
77F9C0
77F9C0
77F9C0
77F980
3C0800
3FFE00
7FFE00
FFFFC0
7FFFC0
70E1C0
7FFFC0
3FFF80
03E000
07F800
1FBFE0
FE3FE0
ENDCHAR
STARTCHAR 5196
ENCODING 20886
SWIDTH 990 0
DWIDTH 22 0
BBX 18 5 2 12
BITMAP
FFFFC0
FFFFC0
E001C0
E001C0
800000
ENDCHAR
STARTCHAR 5197
ENCODING 20887
SWIDTH 945 0
DWIDTH 21 0
BBX 19 17 1 -1
BITMAP
FFFFC0
FFFFC0
E001C0
E001C0
E00180
1FFE00
1FFE00
1C0E00
1C0E00
1C0E00
1C0E00
1C0E00
1C0E00
380E00
380FE0
700FE0
C00FC0
ENDCHAR
STARTCHAR 5199
ENCODING 20889
SWIDTH 990 0
DWIDTH 22 0
BBX 18 17 2 -1
BITMAP
FFFFC0
FFFFC0
E001C0
F801C0
B80000
3FFF00
3FFF00
380000
3FFF80
3FFF80
000380
000380
FFF380
FFF380
000380
001F80
001F80
ENDCHAR
STARTCHAR 519B
ENCODING 20891
SWIDTH 945 0
DWIDTH 21 0
BBX 19 18 1 -2
BITMAP
700000
7FFFC0
7FFFC0
7781C0
6F0100
7FFFC0
7FFFC0
1E0000
1C7000
3C7000
3FFF80
1FFF80
007000
FFFFE0
FFFFE0
007000
007000
006000
ENDCHAR
STARTCHAR 519C
ENCODING 20892
SWIDTH 945 0
DWIDTH 21 0
BBX 18 18 2 -1
BITMAP
01E000
01E000
F1E000
FFFF80
FFFF80
F3C380
F7C380
E78380
0F4000
1E2300
3E3380
7E3F80
EE1F00
0E1E00
0EEF00
3F8FC0
3F07C0
1C0380
ENDCHAR
STARTCHAR 51A0
ENCODING 20896
SWIDTH 945 0
DWIDTH 21 0
BBX 19 18 1 -1
BITMAP
700000
7FFFE0
7FFFE0
700080
0001C0
7F81C0
7FBFE0
003FE0
0001C0
FFDDC0
FFDDC0
7399C0
7381C0
7387C0
738000
73FFE0
63FFE0
C3FFE0
ENDCHAR
STARTCHAR 51A2
ENCODING 20898
SWIDTH 990 0
DWIDTH 22 0
BBX 18 18 2 -1
BITMAP
700000
7FFFC0
7FFFC0
7001C0
400100
FFFFC0
FFFFC0
0FC180
3FE380
FA7FC0
277F00
3F7400
FE7600
1A7700
0773C0
3F73C0
FFF180
01F000
ENDCHAR
STARTCHAR 51A4
ENCODING 20900
SWIDTH 990 0
DWIDTH 22 0
BBX 19 18 2 0
BITMAP
E00000
FFFF80
FFFF80
F00380
FC1B00
3FFC00
7FFC00
F07800
7FFF80
7FFF80
71C380
7FFF80
7FFF80
03C000
07FB80
0FFFE0
3F7FC0
FC3FC0
ENDCHAR
STARTCHAR 51A5
ENCODING 20901
SWIDTH 945 0
DWIDTH 21 0
BBX 19 18 1 -2
BITMAP
700000
7FFFE0
7FFFE0
7000E0
1FFF80
1FFF80
1FFF80
1FFF80
1C0380
1FFF80
0FFF00
00E000
FFFFE0
FFFFE0
080300
0E0780
1E0780
3C0300
ENDCHAR
STARTCHAR 51AB
ENCODING 20907
SWIDTH 945 0
DWIDTH 21 0
BBX 4 15 1 0
BITMAP
60
E0
E0
60
00
00
00
00
10
30
70
60
E0
E0
40
ENDCHAR
STARTCHAR 51AC
ENCODING 20908
SWIDTH 990 0
DWIDTH 22 0
BBX 19 18 2 0
BITMAP
0E0000
0E0000
1FFF00
1FFF00
3E1F00
3BBE00
41FC00
01FF00
07FFE0
7FFFC0
BC07C0
01F000
007000
000000
07F800
01F800
007800
001000
ENDCHAR
STARTCHAR 51AF
ENCODING 20911
SWIDTH 990 0
DWIDTH 22 0
BBX 20 17 1 -1
BITMAP
03FFE0
33FFE0
71C0E0
71C0E0
31C0E0
01C0E0
01C0C0
01FFF0
09FFF0
180070
180070
37FF70
77FF70
F00070
300070
0001F0
0001F0
ENDCHAR
STARTCHAR 51B0
ENCODING 20912
SWIDTH 990 0
DWIDTH 22 0
BBX 20 18 1 -1
BITMAP
001C00
001C00
301C00
701C00
701C40
37DCE0
07DEE0
01DFC0
01DF00
09DF00
19DF80
1BDDC0
3B9DC0
739DF0
F71CF0
341CE0
007C00
007C00
ENDCHAR
STARTCHAR 51B1
ENCODING 20913
SWIDTH 990 0
DWIDTH 22 0
BBX 20 17 1 -1
BITMAP
07FFE0
37FFE0
71E000
71E000
31E000
01FFC0
01FFC0
01C3C0
0BC3C0
0BC3C0
1BFF80
3BFF80
700380
F00380
700780
27FFF0
07FFF0
ENDCHAR
STARTCHAR 51B2
ENCODING 20914
SWIDTH 990 0
DWIDTH 22 0
BBX 19 18 2 -1
BITMAP
001C00
001C00
601C00
E71C00
E7FFE0
67FFE0
071CE0
071CE0
071CE0
171CE0
37FFE0
33FFE0
601C00
E01C00
E01C00
401C00
001C00
001000
ENDCHAR
STARTCHAR 51B3
ENCODING 20915
SWIDTH 990 0
DWIDTH 22 0
BBX 19 19 2 -2
BITMAP
007000
007000
607000
E3FF80
E3FFC0
6071C0
0071C0
0071C0
0071C0
0071C0
17FFE0
37FFE0
307C00
60FE00
E0E700
E1C7C0
43C3E0
0703C0
1C0080
ENDCHAR
STARTCHAR 51B5
ENCODING 20917
SWIDTH 945 0
DWIDTH 21 0
BBX 19 17 1 -2
BITMAP
03FFC0
63FFC0
E381C0
E381C0
6381C0
0381C0
03FDC0
03FD80
100300
11C700
31C700
71C700
E1C700
E1C700
E1C7E0
4387E0
0707E0
ENDCHAR
STARTCHAR 51B6
ENCODING 20918
SWIDTH 990 0
DWIDTH 22 0
BBX 19 19 2 -1
BITMAP
003800
007800
E0F000
E0E300
E1C1C0
07FFE0
07FEE0
07F0E0
038080
100000
13FFC0
33FFC0
7381C0
E381C0
E381C0
E381C0
43FDC0
03FF80
000300
ENDCHAR
STARTCHAR 51B7
ENCODING 20919
SWIDTH 990 0
DWIDTH 22 0
BBX 20 18 1 -1
BITMAP
001C00
003E00
303C00
707E00
70FB80
30F3E0
01DDF0
071CF0
001C00
080040
09FFE0
19FFE0
3803C0
700780
707C00
F03F00
200F00
000700
ENDCHAR
STARTCHAR 51BB
ENCODING 20923
SWIDTH 990 0
DWIDTH 22 0
BBX 20 18 1 0
BITMAP
007000
00F000
33FFF0
73FFF0
71E000
31E000
01EE00
01CE00
03CE00
0BFFF0
09FFF0
180E00
39CE30
71CE70
F3CE70
738E30
063E00
003E00
ENDCHAR
STARTCHAR 51BC
ENCODING 20924
SWIDTH 945 0
DWIDTH 21 0
BBX 21 18 0 -1
BITMAP
00EE00
31EE00
71FFE0
71FFE0
31CE00
018E00
030E00
000E00
0BFFF0
0BFFF0
18E380
38E380
70E380
F0E380
71E3F8
01C3F0
0383F0
040000
ENDCHAR
STARTCHAR 51BD
ENCODING 20925
SWIDTH 990 0
DWIDTH 22 0
BBX 21 18 0 -1
BITMAP
000038
03FC38
23FDB8
71C1B8
71C1B8
01FDB8
01FDB8
039DB8
139DB8
13FDB8
12FDB8
34F9B8
3079B8
707038
F0F038
71E0B8
03C1F8
070078
ENDCHAR
STARTCHAR 51C0
ENCODING 20928
SWIDTH 990 0
DWIDTH 22 0
BBX 21 19 0 -1
BITMAP
018000
01E000
01E180
71FFC0
73FFC0
738300
03FFE0
01FFE0
001CE0
03FFF8
0BFFF8
181CE0
181CE0
31FFE0
71FFC0
F01C00
701C00
00FC00
007C00
ENDCHAR
STARTCHAR 51C4
ENCODING 20932
SWIDTH 990 0
DWIDTH 22 0
BBX 20 19 1 -2
BITMAP
001C00
001C00
03FFF0
33FFF0
701C00
71FFE0
31FFE0
03FFF0
03FFF0
09FFE0
09FFE0
187800
3BFFF0
73FFF0
F1E3C0
71FFC0
007FF0
007FF0
07F8E0
ENDCHAR
STARTCHAR 51C6
ENCODING 20934
SWIDTH 990 0
DWIDTH 22 0
BBX 20 18 1 -2
BITMAP
018000
03C700
63C700
E3C700
E3BFF0
673FF0
078700
0F8700
1BBFF0
03BFF0
238700
238700
23BFF0
63BFF0
E38700
E38700
E3BFF0
03BFF0
ENDCHAR
STARTCHAR 51C7
ENCODING 20935
SWIDTH 990 0
DWIDTH 22 0
BBX 20 18 1 -1
BITMAP
038100
038E80
038E80
638E80
EFEEC0
EFECC0
639CE0
0398F0
0FF660
0FE700
2FE700
2F8700
2F8E80
6B8C40
638C60
E3BFF0
639F70
039C60
ENDCHAR
STARTCHAR 51C9
ENCODING 20937
SWIDTH 990 0
DWIDTH 22 0
BBX 20 19 1 -1
BITMAP
000800
001C00
001C00
33FFF0
73FFF0
700000
31C000
01FFE0
01FFE0
01C0E0
09C0E0
19FFE0
38FFC0
301C00
739C70
F39C70
635C70
067C00
003C00
ENDCHAR
STARTCHAR 51CB
ENCODING 20939
SWIDTH 990 0
DWIDTH 22 0
BBX 20 18 1 -1
BITMAP
038000
03FFF0
33FFF0
738E70
73BF70
33BF70
038E70
03BFF0
0BBFF0
0B8070
1BBFF0
3BBFF0
3BBBF0
73BBF0
F3BBF0
773B70
0604F0
0C00F0
ENDCHAR
STARTCHAR 51CC
ENCODING 20940
SWIDTH 990 0
DWIDTH 22 0
BBX 20 18 1 -1
BITMAP
001C00
001C00
31FFE0
71FFE0
73FFE0
33FFE0
0073C0
00F1E0
0BE0E0
08E040
18FFC0
31FFC0
71E3C0
F37380
F03F80
601FF0
00FFE0
07F3E0
ENDCHAR
STARTCHAR 51CF
ENCODING 20943
SWIDTH 990 0
DWIDTH 22 0
BBX 21 18 1 -1
BITMAP
000720
000370
7003F0
73FFF8
73FFF8
038380
038380
03FF80
0BFDC0
0B81D0
1BFDF0
3BFDF0
73EDE0
F3EFC0
77FDE0
277CF0
0608F8
0800C0
ENDCHAR
STARTCHAR 51D1
ENCODING 20945
SWIDTH 945 0
DWIDTH 21 0
BBX 21 18 0 -2
BITMAP
000E00
000E00
33FFF0
73FFF0
71FFF0
31FFF0
003C00
03FFF0
03FFF0
08F1E0
19FFF8
1E7FB0
301E00
73FFF0
F3FFF0
203FF0
00F1F0
03E060
ENDCHAR
STARTCHAR 51DB
ENCODING 20955
SWIDTH 990 0
DWIDTH 22 0
BBX 20 19 1 -1
BITMAP
000C00
001C00
07FFF0
37FFF0
73FFE0
73FFF0
3380F0
03BFF0
03BFF0
03FFF0
0BFFE0
1BFFE0
1BFFE0
300000
77FFF0
F7FFF0
731C70
03FC70
077C70
ENDCHAR
STARTCHAR 51DD
ENCODING 20957
SWIDTH 990 0
DWIDTH 22 0
BBX 20 18 1 -1
BITMAP
072060
077FF0
67FFF0
E700E0
E7F7E0
67F3C0
03E1D0
060FF0
07EFF0
27E1D0
2DCDE0
29CDF0
6FFDF0
6FFDC0
E3CDC0
E3EFC0
67BFF0
0F03F0
ENDCHAR
STARTCHAR 51E0
ENCODING 20960
SWIDTH 945 0
DWIDTH 21 0
BBX 20 17 1 -2
BITMAP
1C0000
1FFF00
1FFF00
1C0700
1C0700
1C0700
1C0700
1C0700
1C0700
1C0700
1C0700
1C0700
380700
380700
3007F0
7007E0
C007E0
ENDCHAR
STARTCHAR 51E1
ENCODING 20961
SWIDTH 945 0
DWIDTH 21 0
BBX 19 18 1 -2
BITMAP
380000
3FFF00
3FFF00
380700
380700
380700
3A0700
398700
39C700
38E700
38E700
38C700
380700
700700
700700
7007E0
E007E0
8007E0
ENDCHAR
STARTCHAR 51E4
ENCODING 20964
SWIDTH 990 0
DWIDTH 22 0
BBX 20 18 1 -2
BITMAP
380000
3FFFC0
3FFFC0
3801C0
3801C0
3BFDC0
3BFDC0
383DC0
393DC0
38B9C0
38F9C0
3871C0
38F9C0
39FDC0
71FDC0
739DC0
6619F0
C001E0
ENDCHAR
STARTCHAR 51EB
ENCODING 20971
SWIDTH 990 0
DWIDTH 22 0
BBX 18 19 3 -1
BITMAP
060000
070000
EF0000
FFFE00
FFFE00
E70E00
E73E00
E73C00
E00000
FFFF80
7FFF80
380380
3FE380
3FE780
38E780
78E000
70FFC0
70FFC0
E0FF80
ENDCHAR
STARTCHAR 51ED
ENCODING 20973
SWIDTH 990 0
DWIDTH 22 0
BBX 20 19 1 -1
BITMAP
180180
1E1F80
3CFFC0
3C1E00
781C00
F9FFE0
39FFE0
381C00
39FFC0
39FFC0
300000
07FE00
07FE00
0F0E00
0E0E00
0E0FF0
1C0FF0
380FE0
400000
ENDCHAR
STARTCHAR 51EF
ENCODING 20975
SWIDTH 990 0
DWIDTH 22 0
BBX 20 18 1 -2
BITMAP
0E0000
CEDC00
CEDFE0
CEDFE0
FFDCE0
FFDCE0
00DCE0
FF9CE0
FF9CE0
039CE0
7F9CE0
7F9CE0
701CE0
707CE0
7FB8E0
FE38F0
FC70F0
7060F0
ENDCHAR
STARTCHAR 51F0
ENCODING 20976
SWIDTH 945 0
DWIDTH 21 0
BBX 20 18 1 -2
BITMAP
700000
7FFFC0
7FFFC0
70E1C0
77FDC0
77FDC0
77FDC0
77FDC0
77FDC0
77FDC0
77FDC0
77FDC0
70E1C0
77FDC0
67FDC0
E7FDD0
C7FDF0
8001E0
ENDCHAR
STARTCHAR 51F3
ENCODING 20979
SWIDTH 945 0
DWIDTH 21 0
BBX 19 20 1 -1
BITMAP
002400
7F9E80
7F99C0
3F8F80
3FFFE0
3FFFC0
C001C0
1FFF00
1FFF00
1FFF00
0FFE00
070E00
FFFFE0
FFFFE0
07FC00
0FFE00
0E0FE0
1E0FE0
380FC0
400000
ENDCHAR
STARTCHAR 51F5
ENCODING 20981
SWIDTH 990 0
DWIDTH 22 0
BBX 18 15 2 -1
BITMAP
E001C0
E001C0
E001C0
E001C0
E001C0
E001C0
E001C0
E001C0
E001C0
E001C0
E001C0
E001C0
E001C0
FFFFC0
FFFFC0
ENDCHAR
STARTCHAR 51F6
ENCODING 20982
SWIDTH 945 0
DWIDTH 21 0
BBX 19 18 1 -1
BITMAP
001000
003C00
103C00
0C3C00
E77CE0
E3F8E0
E1F8E0
E1F0E0
E0F0E0
E1F8E0
E3FCE0
E3BEE0
E73EE0
EE1CE0
F808E0
E000E0
FFFFE0
FFFFE0
ENDCHAR
STARTCHAR 51F8
ENCODING 20984
SWIDTH 945 0
DWIDTH 21 0
BBX 19 18 1 -1
BITMAP
0FFC00
0FFC00
0E1C00
0E1C00
0E1C00
0E1C00
0E1C00
FE1FE0
FE1FE0
E000E0
E000E0
E000E0
E000E0
E000E0
E000E0
E000E0
FFFFE0
FFFFE0
ENDCHAR
STARTCHAR 51F9
ENCODING 20985
SWIDTH 945 0
DWIDTH 21 0
BBX 19 17 1 -1
BITMAP
FF1FE0
FF1FE0
E71CE0
E71CE0
E71CE0
E71CE0
E71CE0
E71CE0
E7FCE0
E7F8E0
E000E0
E000E0
E000E0
E000E0
E000E0
FFFFE0
FFFFE0
ENDCHAR
STARTCHAR 51FA
ENCODING 20986
SWIDTH 990 0
DWIDTH 22 0
BBX 18 17 2 0
BITMAP
00E000
70E380
70E380
70E380
70E380
7FFF80
3FFF80
00E380
00E000
E0E1C0
E0E1C0
E0E1C0
E0E1C0
E0E1C0
E0E1C0
FFFFC0
FFFFC0
ENDCHAR
STARTCHAR 51FB
ENCODING 20987
SWIDTH 945 0
DWIDTH 21 0
BBX 19 17 1 0
BITMAP
00E000
00E000
7FFFC0
7FFFC0
00E000
00E000
00E000
FFFFE0
FFFFE0
00E000
70E1C0
70E1C0
70E1C0
70E1C0
70E1C0
7FFFC0
7FFFC0
ENDCHAR
STARTCHAR 51FC
ENCODING 20988
SWIDTH 990 0
DWIDTH 22 0
BBX 19 18 1 -1
BITMAP
007000
007000
E074E0
E077E0
EF76E0
EF7EE0
E778E0
E770E0
EF78E0
EE7EE0
EE77E0
EC77E0
F876E0
E1F0E0
E1F0E0
E000E0
FFFFE0
FFFFE0
ENDCHAR
STARTCHAR 51FD
ENCODING 20989
SWIDTH 990 0
DWIDTH 22 0
BBX 19 18 1 0
BITMAP
1FFF00
1FFF80
000F00
001E00
ECE2E0
FCE7E0
EEEFE0
E2E0E0
E0E0E0
E2ECE0
EEEEE0
FCE7E0
FCE7E0
EBE2E0
E3E0E0
E000E0
FFFFE0
FFFFE0
ENDCHAR
STARTCHAR 51FF
ENCODING 20991
SWIDTH 990 0
DWIDTH 22 0
BBX 20 18 1 0
BITMAP
3B9CC0
3B9CE0
3B9DC0
039C00
FFFFF0
FFFFF0
071C00
071CE0
7FFEE0
7FFEE0
70E0E0
70E0E0
77FEE0
77FEE0
70E0E0
7000E0
7FFFE0
7FFFE0
ENDCHAR
STARTCHAR 5200
ENCODING 20992
SWIDTH 990 0
DWIDTH 22 0
BBX 17 16 3 -1
BITMAP
FFFF80
FFFF80
0E0380
0E0380
0E0380
0E0380
0E0380
0E0380
1E0380
1E0380
1C0380
3C0380
380380
780380
601F80
C01F80
ENDCHAR
STARTCHAR 5201
ENCODING 20993
SWIDTH 945 0
DWIDTH 21 0
BBX 17 17 2 -1
BITMAP
7FFF80
7FFF80
000380
000380
000380
000380
000B80
007380
03E380
1F8380
FF0380
7E0380
780380
000380
000380
001F80
001F80
ENDCHAR
STARTCHAR 5202
ENCODING 20994
SWIDTH 945 0
DWIDTH 21 0
BBX 8 18 12 -1
BITMAP
07
07
E7
E7
E7
E7
E7
E7
E7
E7
E7
E7
E7
C7
07
07
1F
1F
ENDCHAR
STARTCHAR 5203
ENCODING 20995
SWIDTH 945 0
DWIDTH 21 0
BBX 19 17 1 -1
BITMAP
7FFFE0
7FFFE0
0380E0
0380E0
0380E0
0380E0
6380E0
7380E0
7380E0
7380E0
6780E0
C700E0
0700E0
0E00E0
0E00E0
1807E0
3007E0
ENDCHAR
STARTCHAR 5206
ENCODING 20998
SWIDTH 990 0
DWIDTH 22 0
BBX 20 18 1 1
BITMAP
060800
078C00
0F8E00
0F0700
1E03C0
3C03F0
7801E0
C000C0
3FFF80
3FFF80
070380
070380
070380
070380
0E0380
0E0380
1C0F80
300F80
ENDCHAR
STARTCHAR 5207
ENCODING 20999
SWIDTH 990 0
DWIDTH 22 0
BBX 20 17 1 -2
BITMAP
1C0000
1CFFF0
1CFFF0
1C3870
1F3870
FF3870
FC3870
1C3870
1C3870
1C3870
1C3870
1D3870
1E7870
7E7070
7C7070
30E3F0
0181F0
ENDCHAR
STARTCHAR 5208
ENCODING 21000
SWIDTH 990 0
DWIDTH 22 0
BBX 20 18 1 -2
BITMAP
000070
01E070
01CE70
83CE70
63CE70
33CE70
3B8E70
1F8E70
0F8E70
0F0E70
0F8E70
0F8E70
1FCE70
1FEC70
39E070
39E070
60C1F0
C081F0
ENDCHAR
STARTCHAR 520A
ENCODING 21002
SWIDTH 990 0
DWIDTH 22 0
BBX 20 18 1 -2
BITMAP
000070
7FE070
7FEE70
0E0E70
0E0E70
0E0E70
0E0E70
0E0E70
FFEE70
FFEE70
0E0E70
0E0E70
0E0E70
0E0C70
0E0070
0E0070
0E03F0
0E03F0
ENDCHAR
STARTCHAR 520D
ENCODING 21005
SWIDTH 990 0
DWIDTH 22 0
BBX 17 18 3 -1
BITMAP
0C0000
1E0000
1FFE00
1FFF00
3C1E00
781C00
703800
FFFF80
7FFF80
000380
000380
3FFF80
3FFF80
000380
000380
000380
7FFF80
7FFF80
ENDCHAR
STARTCHAR 520E
ENCODING 21006
SWIDTH 990 0
DWIDTH 22 0
BBX 20 18 1 -1
BITMAP
380070
380070
380070
7FF770
7FF770
707770
6E7770
DDF770
9FF770
1FF770
3BF770
33F770
777770
477770
0E7770
1C7070
31F1F0
01F1F0
ENDCHAR
STARTCHAR 5211
ENCODING 21009
SWIDTH 990 0
DWIDTH 22 0
BBX 20 18 1 -2
BITMAP
000070
7FF070
7FF770
39C770
39C770
39C770
39C770
39C770
FFF770
FFF770
39C770
39C770
39C770
39C670
71C070
71C070
61C1F0
C1C1F0
ENDCHAR
STARTCHAR 5212
ENCODING 21010
SWIDTH 990 0
DWIDTH 22 0
BBX 20 18 1 -1
BITMAP
780070
39C070
39C770
39C770
1C0770
FFE770
FFE770
0E0770
0E0770
0EE770
0FF770
0FE770
3F8770
478770
038070
03F070
01F1F0
01C0F0
ENDCHAR
STARTCHAR 5216
ENCODING 21014
SWIDTH 990 0
DWIDTH 22 0
BBX 20 18 1 -1
BITMAP
000070
FFC070
FFCE70
E1CE70
E1CE70
E1CE70
FFCE70
FFCE70
E1CE70
E1CE70
FFCE70
FFCE70
E1CE70
E1CE70
E1C070
E5C070
E7C1F0
E7C3F0
ENDCHAR
STARTCHAR 5217
ENCODING 21015
SWIDTH 990 0
DWIDTH 22 0
BBX 20 19 1 -1
BITMAP
000070
FFE070
FFE070
3C0E70
380E70
7FCE70
7FCE70
71CE70
71CE70
E1CE70
DFCE70
1FCE70
1F8E70
078E70
0F0E70
1E0070
3C03F0
7803F0
800000
ENDCHAR
STARTCHAR 5218
ENCODING 21016
SWIDTH 990 0
DWIDTH 22 0
BBX 20 19 1 -2
BITMAP
060000
0E0070
0E0070
060070
FFEE70
FFEE70
038E70
038E70
438E70
338E70
1F8E70
1F0E70
0F0E70
0F8E70
0FCE70
1FEE70
39E070
70C3F0
C003F0
ENDCHAR
STARTCHAR 5219
ENCODING 21017
SWIDTH 945 0
DWIDTH 21 0
BBX 20 18 0 -2
BITMAP
7FF070
7FF770
707770
707770
777770
777770
777770
777770
777770
777770
777770
777770
0F0770
0F7070
0EF070
1EF1F0
3871F0
E00070
ENDCHAR
STARTCHAR 521A
ENCODING 21018
SWIDTH 990 0
DWIDTH 22 0
BBX 20 19 1 -2
BITMAP
000070
E00070
FFF770
FFF770
E07770
F3F770
F3F770
EF7770
EF7770
E77770
E77770
EF7770
EFF770
EFF770
FB7670
E07070
E0F170
E0F1F0
000060
ENDCHAR
STARTCHAR 521B
ENCODING 21019
SWIDTH 990 0
DWIDTH 22 0
BBX 19 18 2 -1
BITMAP
0C00E0
1E00E0
1E0EE0
3F8EE0
3BEEE0
70EEE0
C04EE0
700EE0
7FCEE0
7FCEE0
71CEE0
71CEE0
77CEE0
77CEE0
7000E0
7FF0E0
7FE3E0
7FE3E0
ENDCHAR
STARTCHAR 521D
ENCODING 21021
SWIDTH 945 0
DWIDTH 21 0
BBX 19 18 1 -2
BITMAP
180000
38FFE0
38FFE0
1838E0
FC38E0
FC38E0
1C38E0
1F38E0
3B38E0
3C38E0
7F38E0
FB78E0
3B78E0
3870E0
3870E0
38E0E0
38E3E0
3983E0
ENDCHAR
STARTCHAR 5220
ENCODING 21024
SWIDTH 990 0
DWIDTH 22 0
BBX 20 18 1 -2
BITMAP
71C070
7FF870
7FF870
77D9F0
77D9F0
77D9F0
77D9F0
77D9F0
FFFDF0
FFFDF0
77D9F0
77D9F0
77D9F0
77D9F0
67D970
679870
CFB9F0
8F39F0
ENDCHAR
STARTCHAR 5224
ENCODING 21028
SWIDTH 990 0
DWIDTH 22 0
BBX 20 18 1 -1
BITMAP
0E0070
0E0070
EEF770
EEF770
EEC770
0F0770
FFE770
FFE770
0E0770
0E0770
FFF770
FFF770
0E0770
1E0670
1C0070
3C0070
7801F0
E001F0
ENDCHAR
STARTCHAR 5228
ENCODING 21032
SWIDTH 990 0
DWIDTH 22 0
BBX 20 18 1 -1
BITMAP
780070
780070
7FE770
7FF770
707770
F07770
FF7770
FF7770
F37770
737770
7F7770
7F7770
70F770
70F770
700070
7FF870
7FFBF0
7FF3F0
ENDCHAR
STARTCHAR 5229
ENCODING 21033
SWIDTH 990 0
DWIDTH 22 0
BBX 20 18 1 0
BITMAP
018070
0FC070
FF8E70
0E0E70
0E0E70
0E0E70
FFEE70
FFEE70
0E0E70
CE0E70
EEEE70
EEEE70
EEEE70
EE0E70
CE0070
0E0270
0E03F0
0800E0
ENDCHAR
STARTCHAR 522B
ENCODING 21035
SWIDTH 945 0
DWIDTH 21 0
BBX 19 18 1 -2
BITMAP
0000E0
FFE0E0
FFEEE0
E0EEE0
E0EEE0
E0EEE0
FDCEE0
FD8EE0
380EE0
380EE0
FFEEE0
FFEEE0
38EEE0
78EEE0
78E0E0
76E0E0
E7E3E0
C3C3E0
ENDCHAR
STARTCHAR 522D
ENCODING 21037
SWIDTH 990 0
DWIDTH 22 0
BBX 20 18 1 -2
BITMAP
7FC070
7FC770
03C770
07C770
0F8770
1FE770
3C7770
402770
000770
7FE770
7FE770
070770
070770
070670
FFE070
7F0170
7801F0
000070
ENDCHAR
STARTCHAR 522E
ENCODING 21038
SWIDTH 990 0
DWIDTH 22 0
BBX 20 19 1 -1
BITMAP
018070
0FC070
FFCE70
1F0E70
0E0E70
0E0E70
FFEE70
FFEE70
0E0E70
0E0E70
6E0E70
7FCE70
71CE70
71CE70
71C070
71C070
7FC3F0
7F83F0
030000
ENDCHAR
STARTCHAR 5230
ENCODING 21040
SWIDTH 990 0
DWIDTH 22 0
BBX 20 18 1 -2
BITMAP
000070
FFE070
FFEE70
1C0E70
3D0E70
39CE70
FFEE70
FEEE70
700E70
0E0E70
FFEE70
FFEE70
0E0E70
0E0E70
0EE070
FFC070
FE03F0
7803F0
ENDCHAR
STARTCHAR 5233
ENCODING 21043
SWIDTH 990 0
DWIDTH 22 0
BBX 20 18 1 -1
BITMAP
0F0070
0F0070
FFF770
FFF770
3DE770
78F770
7FF770
BFA770
000770
000770
FFF770
FFF770
380770
3FE770
3FE670
00E070
03E1F0
03E3F0
ENDCHAR
STARTCHAR 5236
ENCODING 21046
SWIDTH 990 0
DWIDTH 22 0
BBX 20 18 1 -1
BITMAP
070070
770070
7FF770
7FF770
670770
C70770
FFF770
FFF770
070770
FFF770
FFF770
E77770
E77770
E77770
E7F070
E7F170
0701F0
040070
ENDCHAR
STARTCHAR 5237
ENCODING 21047
SWIDTH 990 0
DWIDTH 22 0
BBX 20 18 1 -1
BITMAP
000070
FFF070
FFF770
E07770
FFF770
FFF770
E00770
E38770
FB8770
FFF770
FFF770
FBB770
FBB770
FBB770
FBB070
DBB070
8381F0
0300E0
ENDCHAR
STARTCHAR 5238
ENCODING 21048
SWIDTH 945 0
DWIDTH 21 0
BBX 19 18 1 -1
BITMAP
1CF300
1CE380
1DE700
7FFF80
7FFF80
03C000
03C000
FFFFE0
FFFFE0
1E07E0
3C03E0
FFFFE0
1FFF00
070700
0F0700
0F0700
1E1F00
781F00
ENDCHAR
STARTCHAR 5239
ENCODING 21049
SWIDTH 990 0
DWIDTH 22 0
BBX 20 18 1 -2
BITMAP
010070
03C070
77CE70
3F8E70
0FCE70
1FEE70
79EE70
C0CE70
0E0E70
0E0E70
FFEE70
FFEE70
0E0E70
EEEE70
EEE070
CEE070
9E03F0
1E03F0
ENDCHAR
STARTCHAR 523A
ENCODING 21050
SWIDTH 990 0
DWIDTH 22 0
BBX 20 18 1 -2
BITMAP
0E0070
0E0070
FFF770
FFF770
0E0770
EE0770
FFF770
FFF770
EE7770
EE7770
EEF770
CEF770
6E0770
7EE770
7EF470
6E6070
CE03F0
0C01F0
ENDCHAR
STARTCHAR 523B
ENCODING 21051
SWIDTH 990 0
DWIDTH 22 0
BBX 20 18 1 -1
BITMAP
0E0070
0E0070
FFF770
FFF770
180770
3C0770
398770
73C770
FFC770
FF8770
6F6770
0EF770
1CE770
39C770
638670
0F7070
1E73F0
7071F0
ENDCHAR
STARTCHAR 523D
ENCODING 21053
SWIDTH 945 0
DWIDTH 21 0
BBX 19 18 1 -1
BITMAP
080000
0F00E0
1E0EE0
1F8EE0
39EEE0
70EEE0
FFEEE0
3F8EE0
000EE0
000EE0
FFEEE0
FFEEE0
1C0EE0
3D8EE0
38CCE0
FFE0E0
FCE7E0
6043E0
ENDCHAR
STARTCHAR 523F
ENCODING 21055
SWIDTH 990 0
DWIDTH 22 0
BBX 20 18 1 -1
BITMAP
070070
773870
773F70
773F70
773F70
7FFF70
7FFF70
380770
3C0770
3FF770
3FF770
36F770
6EF770
07F770
03E070
07C070
FF81F0
3E01F0
ENDCHAR
STARTCHAR 5240
ENCODING 21056
SWIDTH 990 0
DWIDTH 22 0
BBX 20 18 1 -2
BITMAP
0F0070
EF7070
EF7770
EF7770
FFF770
7FF770
007770
FFE770
FFE770
00E770
00E770
7FE770
7FC770
700770
73E670
FF8070
FE01F0
7001F0
ENDCHAR
STARTCHAR 5241
ENCODING 21057
SWIDTH 990 0
DWIDTH 22 0
BBX 20 18 1 -2
BITMAP
380070
3FC070
3FC770
39C770
39C770
79F770
71F770
E1E770
0E0770
0E0770
FFE770
FFE770
0E0770
FEE770
EEE670
EEE070
CE03F0
0E03F0
ENDCHAR
STARTCHAR 5242
ENCODING 21058
SWIDTH 990 0
DWIDTH 22 0
BBX 20 19 1 -1
BITMAP
040000
0E0070
0E0070
FFEE70
FFEE70
03CE70
638E70
1F8E70
07CE70
0FEE70
3CEE70
404E70
39CE70
39CE70
39CE70
39CC70
79C070
71C3F0
C1C3F0
ENDCHAR
STARTCHAR 5243
ENCODING 21059
SWIDTH 990 0
DWIDTH 22 0
BBX 20 18 1 -1
BITMAP
71C070
71C070
FFF070
FFF770
0E7770
0E7770
FFF770
FFF770
EE0770
EE0770
FFE770
FFF770
0E7770
EE7770
EE7670
EEF070
CE21F0
0C01F0
ENDCHAR
STARTCHAR 524A
ENCODING 21066
SWIDTH 990 0
DWIDTH 22 0
BBX 20 18 1 -1
BITMAP
0E0070
EE6070
EE7E70
EEEE70
0ECE70
FFEE70
FFEE70
E0EE70
E0EE70
FFEE70
FFEE70
E0EE70
E0EE70
FFEE70
FFEC70
E0E070
E3E3F0
E3E3F0
ENDCHAR
STARTCHAR 524B
ENCODING 21067
SWIDTH 990 0
DWIDTH 22 0
BBX 20 18 1 -1
BITMAP
0E00E0
0E00E0
FFDCE0
FFDCE0
0E1CE0
FF9CE0
FFDCE0
F1DCE0
F1DCE0
F1DCE0
FFDCE0
FFDCE0
7382E0
7383E0
7383E0
73FFF0
63FFF0
C3FFE0
ENDCHAR
STARTCHAR 524C
ENCODING 21068
SWIDTH 990 0
DWIDTH 22 0
BBX 20 18 1 -2
BITMAP
0E0070
0E0070
FFF770
FFF770
0E0770
FFF770
FFF770
EE7770
EE7770
FFF770
FFF770
0E0770
4E0770
7E7770
7EF670
6E7070
CE03F0
0E03F0
ENDCHAR
STARTCHAR 524D
ENCODING 21069
SWIDTH 990 0
DWIDTH 22 0
BBX 20 19 1 -1
BITMAP
060600
0F0700
0F0F00
060E00
FFFFF0
FFFFF0
000000
7FC0E0
7FCEE0
71CEE0
7FCEE0
7FCEE0
71CEE0
71CEE0
7FCEE0
7FCEE0
71CCE0
73C1E0
73C3E0
ENDCHAR
STARTCHAR 5250
ENCODING 21072
SWIDTH 990 0
DWIDTH 22 0
BBX 20 18 1 -1
BITMAP
700070
7FF070
7FF770
707770
707770
7FF770
7FF770
070770
FFFF70
FFFF70
E73F70
EF3F70
EFFF70
EDFF70
F83C70
E03870
E0F9F0
E0F9F0
ENDCHAR
STARTCHAR 5251
ENCODING 21073
SWIDTH 990 0
DWIDTH 22 0
BBX 20 18 1 -2
BITMAP
0C0000
0F0070
0E0070
1F8770
3DF770
30F770
FFE770
3F8770
000770
06C770
0EF770
76E770
71C770
702770
0FC670
FF8070
7E03F0
7803F0
ENDCHAR
STARTCHAR 5254
ENCODING 21076
SWIDTH 990 0
DWIDTH 22 0
BBX 20 18 1 -1
BITMAP
000070
7FE070
7FE070
7FE770
7FE770
70E770
7FE770
1FC770
F10770
FFF770
FFF770
E07770
FB7770
BF7770
377770
6E7070
CCF1F0
38F1F0
ENDCHAR
STARTCHAR 5256
ENCODING 21078
SWIDTH 990 0
DWIDTH 22 0
BBX 20 19 1 -2
BITMAP
040000
0F0070
0F0070
FFE770
FFE770
388770
39C770
39C770
038770
FFF770
FFF770
000770
7FC770
7FE770
70E770
70E670
70E070
7FE3F0
7FC3F0
ENDCHAR
STARTCHAR 525C
ENCODING 21084
SWIDTH 990 0
DWIDTH 22 0
BBX 20 19 1 -1
BITMAP
020000
070070
070070
FFFB70
FFFB70
E03B70
802370
E1C370
FDF370
FDF370
DDF370
DDF370
DDF370
FDF370
7DF370
39C870
3BF070
73C1F0
C101F0
ENDCHAR
STARTCHAR 525E
ENCODING 21086
SWIDTH 990 0
DWIDTH 22 0
BBX 20 18 1 -1
BITMAP
070070
0F0070
FFE770
FFE770
1FC770
3FF770
787770
002770
FFF770
FFF770
FEE770
FEE770
EEE770
EEE770
FEE070
7EE370
09E3F0
01E1F0
ENDCHAR
STARTCHAR 5261
ENCODING 21089
SWIDTH 990 0
DWIDTH 22 0
BBX 20 18 1 -2
BITMAP
0E0070
2E4070
2E6E70
6EEE70
EECE70
5E0E70
1FEE70
39EE70
706E70
0E0E70
2E6E70
6EEE70
EECE70
EE0E70
1FC070
1DE070
38E3F0
7043F0
ENDCHAR
STARTCHAR 5265
ENCODING 21093
SWIDTH 990 0
DWIDTH 22 0
BBX 20 18 1 -1
BITMAP
000070
7FE070
7FE770
00E770
3FE770
3FE770
00E770
FFF770
FFF770
4E0770
EE6770
6EE770
1E0770
6EC770
EE7470
CE7070
1E03F0
1E03F0
ENDCHAR
STARTCHAR 5267
ENCODING 21095
SWIDTH 990 0
DWIDTH 22 0
BBX 20 19 1 -3
BITMAP
F00070
FFF070
FFF070
F07770
FFF770
FFF770
F00770
F38770
FFF770
FFF770
F38770
FFE770
FFF770
EFF770
EE7770
EE7070
CF71F0
8F61F0
00E000
ENDCHAR
STARTCHAR 5269
ENCODING 21097
SWIDTH 990 0
DWIDTH 22 0
BBX 20 18 1 0
BITMAP
01E070
0FE070
7FE770
070770
FFFF70
FFFF70
070770
F77770
F77F70
377770
777F70
F77F70
377770
070770
777470
777070
6771F0
C603F0
ENDCHAR
STARTCHAR 526A
ENCODING 21098
SWIDTH 990 0
DWIDTH 22 0
BBX 20 19 1 0
BITMAP
070E00
070E00
FFFFF0
FFFFF0
3FC1C0
3FDDC0
39DDC0
3FDDC0
3FDDC0
3FDDC0
3FD1C0
3BC7C0
33C7C0
3FFFC0
3FFFC0
0F01C0
0E01C0
1C0FC0
F00FC0
ENDCHAR
STARTCHAR 526F
ENCODING 21103
SWIDTH 990 0
DWIDTH 22 0
BBX 20 18 1 -1
BITMAP
000070
FFF070
FFF070
000770
7FE770
7FE770
70E770
7EE770
7EE770
010770
7FF770
7FF770
767770
7FF770
7FF470
767070
7FF1F0
7FF1F0
ENDCHAR
STARTCHAR 5272
ENCODING 21106
SWIDTH 990 0
DWIDTH 22 0
BBX 20 19 1 -1
BITMAP
0E0070
0F0070
FFF070
FFF770
E07770
7FF770
7FF770
0F0770
7FE770
7FE770
FFF770
FFF770
0F0770
7FE770
7FE670
70E070
7EE1F0
7FC1F0
018000
ENDCHAR
STARTCHAR 527D
ENCODING 21117
SWIDTH 990 0
DWIDTH 22 0
BBX 20 18 1 -2
BITMAP
000070
FFF070
FFF070
F9C770
FFF770
FFF770
EF7770
FFF770
FFF770
000770
FFE770
FFE770
FFF770
FFF770
070770
E76070
FF71F0
DF71F0
ENDCHAR
STARTCHAR 527F
ENCODING 21119
SWIDTH 990 0
DWIDTH 22 0
BBX 20 18 1 -1
BITMAP
332070
737070
EEC070
777770
336770
FFE770
FFF770
E77770
FFF770
FFF770
FFF770
FFE770
070770
FFF770
FFF470
776070
E771F0
E661F0
ENDCHAR
STARTCHAR 5281
ENCODING 21121
SWIDTH 1035 0
DWIDTH 23 0
BBX 21 18 1 -1
BITMAP
180038
3CF038
3FFDB8
3BFDB8
30F1B8
7BFDB8
7BFDB8
B8F1B8
3BFDB8
3BFDB8
38F1B8
3BFDB8
3BFDB8
2001B8
6001B8
766C38
77EEB8
67EEF8
ENDCHAR
STARTCHAR 5282
ENCODING 21122
SWIDTH 990 0
DWIDTH 22 0
BBX 20 18 1 -2
BITMAP
FFF870
FFF870
E00070
ED7370
EDFB70
FFFB70
FFDB70
E71370
F78370
F7F370
F7F370
FFF370
FFF370
E77370
E77070
EEFC70
CECDF0
9889F0
ENDCHAR
STARTCHAR 5288
ENCODING 21128
SWIDTH 990 0
DWIDTH 22 0
BBX 20 19 1 0
BITMAP
000380
000380
7FDFF0
7FDFF0
7FCE60
7FFFF0
703FF0
7FC380
7FDFF0
7DDFF0
DFC380
000000
3FFFE0
3FFFE0
0780E0
0F00E0
0F00E0
1E07E0
7807E0
ENDCHAR
STARTCHAR 5290
ENCODING 21136
SWIDTH 990 0
DWIDTH 22 0
BBX 20 18 1 -2
BITMAP
39C070
FFF070
FFF070
318770
7FF770
7FF770
FFF770
FFF770
7FF770
7FF770
7FF770
4FF770
7FF770
7FF770
01F670
3FF070
1FF1F0
FF71F0
ENDCHAR
STARTCHAR 5293
ENCODING 21139
SWIDTH 990 0
DWIDTH 22 0
BBX 20 18 1 -2
BITMAP
0E0070
0E0070
7FE070
7FE770
70E770
7FE770
7FE770
3FC770
FFF770
FFF770
FFF770
EE7770
FFF770
000770
FFF770
FFF070
71E1F0
61C1F0
ENDCHAR
STARTCHAR 529B
ENCODING 21147
SWIDTH 945 0
DWIDTH 21 0
BBX 17 18 2 -1
BITMAP
0E0000
0E0000
0E0000
0E0000
FFFF80
FFFF80
0E0380
0E0380
0E0380
0E0380
0E0380
1E0380
1C0380
1C0380
380380
380380
701F80
C01F80
ENDCHAR
STARTCHAR 529D
ENCODING 21149
SWIDTH 990 0
DWIDTH 22 0
BBX 20 18 1 -1
BITMAP
003800
003800
003800
FE3800
FEFFF0
8EFFF0
4E3870
2E3870
3E3870
1C3870
1C3870
1E3870
3F3870
3F7870
777070
647070
80E3F0
0181F0
ENDCHAR
STARTCHAR 529E
ENCODING 21150
SWIDTH 945 0
DWIDTH 21 0
BBX 20 18 0 -1
BITMAP
038000
038000
038000
3FFE00
3FFF00
038700
038700
038700
7B8730
738770
738770
678730
C70700
070700
0E0700
0E0700
1C3F00
303F00
ENDCHAR
STARTCHAR 529F
ENCODING 21151
SWIDTH 990 0
DWIDTH 22 0
BBX 20 18 1 -2
BITMAP
001C00
001C00
001C00
FF1C00
FF7FF0
387FF0
381C70
381C70
381C70
381C70
381C70
39BC70
3F3870
FE3870
F87070
607070
00E3F0
0181F0
ENDCHAR
STARTCHAR 52A0
ENCODING 21152
SWIDTH 945 0
DWIDTH 21 0
BBX 19 18 1 -2
BITMAP
700000
700000
701C00
FF9FE0
FF9FE0
739CE0
739CE0
739CE0
739CE0
739CE0
739CE0
739CE0
739CE0
739CE0
739CE0
E39EE0
EF9EE0
8F81C0
ENDCHAR
STARTCHAR 52A1
ENCODING 21153
SWIDTH 945 0
DWIDTH 21 0
BBX 19 18 1 -1
BITMAP
0E0000
0E0000
1FFF00
1FFF00
3E0F00
3BFE00
01FF20
07FFE0
FFFFE0
3F07C0
070000
7FFF80
7FFF80
070380
0F0380
1E1380
3C1F80
780F80
ENDCHAR
STARTCHAR 52A2
ENCODING 21154
SWIDTH 990 0
DWIDTH 22 0
BBX 20 18 1 -1
BITMAP
000E00
000E00
FFCE00
FFCE00
703FF0
703FF0
700E70
7F8E70
7FCE70
71CE70
71CE70
71CE70
71CE70
71CE70
71CE70
61DC70
E7D8F0
C7F0F0
ENDCHAR
STARTCHAR 52A3
ENCODING 21155
SWIDTH 990 0
DWIDTH 22 0
BBX 18 18 2 -2
BITMAP
00E000
00E000
1CE380
3CE1C0
38E4C0
70CEC0
007F00
FFFE00
1FF000
000000
070000
7FFF80
7FFF80
0F0380
0F0380
0E0380
1C1F80
381F80
ENDCHAR
STARTCHAR 52A8
ENCODING 21160
SWIDTH 990 0
DWIDTH 22 0
BBX 20 18 1 -2
BITMAP
001C00
001C00
FF9C00
FF9C00
003FE0
003FF0
001C70
001C70
FFDC70
FFDC70
1C1C70
3C1C70
3A1C70
399C70
71DC70
FFF870
FDF9F0
7061F0
ENDCHAR
STARTCHAR 52A9
ENCODING 21161
SWIDTH 990 0
DWIDTH 22 0
BBX 20 18 1 -2
BITMAP
000E00
000E00
7F8E00
7F8E00
73BFF0
73BFF0
7F8E70
7F8E70
738E70
738E70
7F8E70
7F8E70
738E70
73BE70
7FDC70
FF9C70
7E39F0
7861F0
ENDCHAR
STARTCHAR 52AA
ENCODING 21162
SWIDTH 990 0
DWIDTH 22 0
BBX 20 17 1 -1
BITMAP
1E1FE0
7FFFE0
7FE8E0
3DEDE0
7FCFC0
1FE780
0FE7F0
1EEFE0
FC5CE0
038000
7FFFC0
7FFFC0
0781C0
0701C0
0F01C0
1E07C0
3807C0
ENDCHAR
STARTCHAR 52AB
ENCODING 21163
SWIDTH 990 0
DWIDTH 22 0
BBX 20 18 1 -1
BITMAP
0E0E00
0E0E00
0E0E00
7FCE00
7FDFF0
0E1FF0
0E0E70
0E0E70
FFCE70
FFCE70
1C0E70
1C0E70
1D0E70
398E70
31CE70
FFEC70
FEF9F0
70D1F0
ENDCHAR
STARTCHAR 52AC
ENCODING 21164
SWIDTH 945 0
DWIDTH 21 0
BBX 20 18 0 -1
BITMAP
380700
380700
380700
3FC700
3FDFF0
71DFF0
61C770
FDC770
7DC770
6DC770
6DC770
6DC770
7DC770
7DC770
09CE70
01CE70
07CCF0
07D8F0
ENDCHAR
STARTCHAR 52AD
ENCODING 21165
SWIDTH 990 0
DWIDTH 22 0
BBX 21 19 0 -2
BITMAP
000700
7FE700
7FE700
38E700
38EFF0
38EFF8
38E738
73E738
C1C738
000738
7FC738
7FE738
70E738
70E738
70E738
70E638
7DCEF8
7DC8F8
020000
ENDCHAR
STARTCHAR 52B1
ENCODING 21169
SWIDTH 990 0
DWIDTH 22 0
BBX 20 18 1 -2
BITMAP
000700
FFE700
FFE700
E00700
FFEFE0
FFEFF0
EE0770
EE0770
EFC770
EFE770
EEE770
EEE770
EEE770
EEE770
EEEF70
DCEE70
DDECF0
B1F8F0
ENDCHAR
STARTCHAR 52B2
ENCODING 21170
SWIDTH 945 0
DWIDTH 21 0
BBX 20 18 0 -1
BITMAP
000700
000700
7FC700
7FC700
03DFF0
079FF0
0FE770
1EE770
7C6770
000770
7FE770
7FE770
070770
070F70
FFEF70
7E0E70
781CF0
0018F0
ENDCHAR
STARTCHAR 52B3
ENCODING 21171
SWIDTH 1035 0
DWIDTH 23 0
BBX 19 18 2 -1
BITMAP
0E1C00
0E1C00
FFFFE0
FFFFE0
0C1800
FFFF80
FFFFC0
E003C0
E70380
C70200
7FFF80
7FFF80
070380
0F0380
0E0380
1E0380
3C1F80
701F80
ENDCHAR
STARTCHAR 52BE
ENCODING 21182
SWIDTH 990 0
DWIDTH 22 0
BBX 20 18 1 -1
BITMAP
0E0E00
0E0E00
FFEE00
FFEE00
181FF0
3C1FF0
3B8E70
338E70
FF8E70
FF0E70
6EEE70
1FEE70
1DCE70
33CE70
678E70
0EEE70
1CEDF0
70F9F0
ENDCHAR
STARTCHAR 52BF
ENCODING 21183
SWIDTH 990 0
DWIDTH 22 0
BBX 20 18 1 -2
BITMAP
1C3800
1C3800
FF7FC0
FF7FC0
1C39C0
FFF9C0
FC3DC0
5C7DC0
3CFDE0
3DC1F0
070000
7FFFC0
7FFFC0
0F01C0
0F01C0
1E01C0
1C0FC0
780FC0
ENDCHAR
STARTCHAR 52C3
ENCODING 21187
SWIDTH 990 0
DWIDTH 22 0
BBX 20 18 1 0
BITMAP
1E0700
1E0700
FFC700
FFC700
FFDFF0
FFFFF0
E1C770
800770
7F8770
7F8770
038770
07E770
FF8F70
FF0F70
7E0E70
0E0E70
3E1CF0
3E30F0
ENDCHAR
STARTCHAR 52C7
ENCODING 21191
SWIDTH 990 0
DWIDTH 22 0
BBX 17 18 3 -1
BITMAP
7FFE00
7FFF00
003E00
07E000
FFFF80
FFFF80
FFFF80
FFFF80
E1C380
FFFF80
FFFF80
DE0300
FFFF00
FFFF80
1E0380
3C1380
781F80
F01F80
ENDCHAR
STARTCHAR 52C9
ENCODING 21193
SWIDTH 945 0
DWIDTH 21 0
BBX 20 18 1 0
BITMAP
700E00
730E00
7FCE00
7F9FC0
E71FE0
FFEEE0
FFEEE0
EEEEE0
EEEEE0
EEFEE0
FFFCE0
7FDCE0
1E1BE0
1FB3E0
1F8000
3FFFF0
77FFE0
C7FFE0
ENDCHAR
STARTCHAR 52CB
ENCODING 21195
SWIDTH 945 0
DWIDTH 21 0
BBX 19 19 1 -2
BITMAP
000E00
7FCE00
7FCE00
71CE00
79FFE0
7BBFE0
030EE0
E00EE0
FFEEE0
FFEEE0
EEEEE0
EEEEE0
EEEEE0
EEEEE0
FE0EE0
1DDCE0
3DD9E0
79D1E0
800000
ENDCHAR
STARTCHAR 52D0
ENCODING 21200
SWIDTH 990 0
DWIDTH 22 0
BBX 20 18 1 -1
BITMAP
008700
7FE700
7FE700
038700
0F1FF0
FFFFF0
FFE770
0F0770
1F0770
1E0770
FFE770
FFE770
EBE770
EBE770
EBFF70
FFEE70
FF8EF0
F818F0
ENDCHAR
STARTCHAR 52D2
ENCODING 21202
SWIDTH 990 0
DWIDTH 22 0
BBX 20 18 1 -2
BITMAP
000E00
71CE00
FFEE00
FFEE00
7FDFF0
7FDFF0
3F8E70
FFEE70
FFEE70
CE6E70
FFEE70
FFEE70
0E0E70
FFEE70
FFEE70
0E0C70
0E1DF0
0E19F0
ENDCHAR
STARTCHAR 52D6
ENCODING 21206
SWIDTH 990 0
DWIDTH 22 0
BBX 20 19 1 -2
BITMAP
E00700
FFE700
FFE700
EEE700
EEEFF0
E0EFF0
EEE770
0E0770
7FC770
7FE770
71E770
7FE770
7FE770
7FE770
7FEF70
71CE70
7FCCF0
7FD8F0
020000
ENDCHAR
STARTCHAR 52D8
ENCODING 21208
SWIDTH 990 0
DWIDTH 22 0
BBX 20 18 1 -1
BITMAP
39C700
39C700
7FE700
7FE700
39DFF0
3FDFF0
3FC770
39C770
3FC770
3FC770
39C770
FFE770
FFE770
764770
76E770
7CEE70
7FEEF0
7FE8F0
ENDCHAR
STARTCHAR 52DF
ENCODING 21215
SWIDTH 945 0
DWIDTH 21 0
BBX 19 18 1 -1
BITMAP
070E00
FFFFE0
FFFFE0
300000
3FFF80
3FFF80
3FFF80
3FFF80
3FFF80
0FFF00
FFFFE0
FFFFE0
3F83E0
FFFFE0
1FFF40
070700
0E1F00
3C1F00
ENDCHAR
STARTCHAR 52E4
ENCODING 21220
SWIDTH 990 0
DWIDTH 22 0
BBX 20 18 1 -1
BITMAP
71C700
FFF700
FFF700
7FC700
7FCFF0
0E0FF0
FFF770
FFF770
EE7770
FFF770
7FE770
FFF770
FFF770
FFF770
FFFF70
0E0E70
FFECF0
7C18F0
ENDCHAR
STARTCHAR 52F0
ENCODING 21232
SWIDTH 990 0
DWIDTH 22 0
BBX 20 18 1 -2
BITMAP
380000
383FF0
FFBFF0
FFBB70
3BBB70
7BBFF0
73BFF0
77BB70
C7BFF0
C63FF0
C60000
FFCEC0
FFCEC0
DEFE30
DEFE30
DEEFF0
BFCFD0
BDCFC0
ENDCHAR
STARTCHAR 52F9
ENCODING 21241
SWIDTH 945 0
DWIDTH 21 0
BBX 17 18 2 -1
BITMAP
380000
3C0000
3C0000
3FFF80
3FFF80
780380
700380
600380
C00380
000380
000380
000380
000380
000380
000380
000380
001F80
001F80
ENDCHAR
STARTCHAR 52FA
ENCODING 21242
SWIDTH 945 0
DWIDTH 21 0
BBX 17 18 2 -1
BITMAP
300000
3C0000
380000
3FFF80
3FFF80
700380
700380
600380
818380
038380
038380
018380
000380
000380
000380
000380
001F80
001F80
ENDCHAR
STARTCHAR 52FE
ENCODING 21246
SWIDTH 990 0
DWIDTH 22 0
BBX 18 18 2 -1
BITMAP
380000
3C0000
3C0000
3FFFC0
3FFFC0
7801C0
7381C0
63C1C0
C7C1C0
0781C0
0F31C0
0E39C0
3FFDC0
3FDDC0
3F19C0
1001C0
000FC0
000FC0
ENDCHAR
STARTCHAR 52FF
ENCODING 21247
SWIDTH 945 0
DWIDTH 21 0
BBX 19 18 1 0
BITMAP
3C0000
3C0000
3FFFC0
3FFFE0
7800E0
73DCE0
779EE0
E79EE0
07BCE0
0F3CE0
0F7CE0
0E78E0
1CF8E0
38F0E0
61E0E0
03C0E0
0783E0
0E03E0
ENDCHAR
STARTCHAR 5300
ENCODING 21248
SWIDTH 990 0
DWIDTH 22 0
BBX 18 18 2 -1
BITMAP
380000
3C0000
3C0000
3FFFC0
3FFFC0
7801C0
7181C0
C381C0
0381C0
0181C0
0009C0
0071C0
03E1C0
3FC1C0
3F81C0
3E01C0
180FC0
000FC0
ENDCHAR
STARTCHAR 5305
ENCODING 21253
SWIDTH 945 0
DWIDTH 21 0
BBX 19 18 1 -1
BITMAP
380000
3C0000
3FFF80
3FFF80
780380
700380
7FF380
BFF380
387380
387380
387380
3FF380
3FEF80
380F80
380000
3FFFE0
3FFFE0
3FFFC0
ENDCHAR
STARTCHAR 5306
ENCODING 21254
SWIDTH 945 0
DWIDTH 21 0
BBX 19 18 1 0
BITMAP
3C0000
3C0000
3FFFE0
3FFFE0
3800E0
7BD8E0
73DEE0
679EE0
C7BCE0
1FFCE0
0FFCE0
0EFEE0
1C7EE0
38FCE0
61E0E0
01C0E0
0383E0
0E03E0
ENDCHAR
STARTCHAR 5308
ENCODING 21256
SWIDTH 990 0
DWIDTH 22 0
BBX 19 18 2 0
BITMAP
3C0000
3C0000
3FFFE0
3FFFE0
7880E0
70E0E0
79E0E0
E7C0E0
F7DCE0
73DCE0
77FCE0
76FCE0
7CDCE0
701CE0
7FFCE0
7FFCE0
001DE0
0001E0
ENDCHAR
STARTCHAR 530D
ENCODING 21261
SWIDTH 945 0
DWIDTH 21 0
BBX 19 18 1 -1
BITMAP
3C0000
3C0000
3FFFE0
3FFFE0
79C8E0
79DCE0
7FFEE0
FFFEE0
3FF8E0
3FFCE0
39DCE0
3FFCE0
3FFCE0
39DCE0
3FFCE0
3FFCE0
39FDE0
39BDE0
ENDCHAR
STARTCHAR 530F
ENCODING 21263
SWIDTH 990 0
DWIDTH 22 0
BBX 20 18 1 0
BITMAP
1E1E00
1E1E00
FF9FF0
FF9FF0
3FBC70
73BC70
7FBFF0
FFFFF0
005DF0
001DF0
FF9FF0
FF9FF0
381C70
3F9C70
3F9C00
039FF0
0F9FF0
0F9FF0
ENDCHAR
STARTCHAR 5310
ENCODING 21264
SWIDTH 990 0
DWIDTH 22 0
BBX 19 18 2 0
BITMAP
780000
780000
7FFFE0
7FFFE0
7FFCE0
FFFCE0
F800E0
FFF8E0
3FF8E0
3FF8E0
0FF0E0
7FFCE0
7FFCE0
779CE0
7FFCE0
7FFCE0
7FFDE0
3FF9E0
ENDCHAR
STARTCHAR 5315
ENCODING 21269
SWIDTH 990 0
DWIDTH 22 0
BBX 16 17 3 -1
BITMAP
E000
E000
E018
E03C
E07E
E0FC
E1F8
E7F0
FF80
E000
E000
E000
E000
E000
FFFF
FFFF
FFFE
ENDCHAR
STARTCHAR 5316
ENCODING 21270
SWIDTH 990 0
DWIDTH 22 0
BBX 21 18 1 -2
BITMAP
0E0E00
0F0E00
0E0E00
1E0E60
1C0EF0
3C0FF0
380FE0
7C0FC0
DC1F00
1C3E00
1CFE00
1C0E00
1C0E00
1C0E00
1C0E00
1C0FF8
1C0FF0
1C0FF0
ENDCHAR
STARTCHAR 5317
ENCODING 21271
SWIDTH 990 0
DWIDTH 22 0
BBX 20 17 1 -1
BITMAP
071C00
071C00
071C00
071CE0
FF1DE0
FF1FE0
071F80
071C00
071C00
071C00
1F1C00
7F1C00
FF1C00
F71C00
671FF0
071FE0
071FE0
ENDCHAR
STARTCHAR 5319
ENCODING 21273
SWIDTH 990 0
DWIDTH 22 0
BBX 20 18 1 -2
BITMAP
7FCE00
7FCE00
79CE40
7FCE70
7FCEF0
79CEE0
7DCFC0
7D8F00
000E00
FFEE00
FFEE00
770FF0
77CFF0
77CFE0
7F0000
7FFFF0
EFFFF0
87FFF0
ENDCHAR
STARTCHAR 531A
ENCODING 21274
SWIDTH 990 0
DWIDTH 22 0
BBX 18 17 2 -1
BITMAP
FFFFC0
FFFFC0
E00000
E00000
E00000
E00000
E00000
E00000
E00000
E00000
E00000
E00000
E00000
E00000
E00000
FFFFC0
FFFFC0
ENDCHAR
STARTCHAR 531D
ENCODING 21277
SWIDTH 990 0
DWIDTH 22 0
BBX 18 18 2 -1
BITMAP
FFFFC0
FFFFC0
E00000
E03800
E03800
E73800
E7FFC0
E7FFC0
E739C0
E739C0
E739C0
E739C0
E73BC0
E73FC0
E03800
E00000
FFFFC0
FFFFC0
ENDCHAR
STARTCHAR 5320
ENCODING 21280
SWIDTH 990 0
DWIDTH 22 0
BBX 18 17 2 -1
BITMAP
FFFFC0
FFFFC0
E00300
E39F00
E3FF80
E3FE00
E38000
E38000
E3FF80
E3FF80
E38E00
E38E00
E70E00
E70E00
E40C00
FFFFC0
FFFFC0
ENDCHAR
STARTCHAR 5321
ENCODING 21281
SWIDTH 990 0
DWIDTH 22 0
BBX 18 18 2 -1
BITMAP
FFFFC0
FFFFC0
E00000
E00000
E7FF80
E7FF80
E03800
E03800
E3FF80
E3FF80
E03800
E03800
E03800
E7FFC0
E7FFC0
E00000
FFFFC0
FFFFC0
ENDCHAR
STARTCHAR 5323
ENCODING 21283
SWIDTH 990 0
DWIDTH 22 0
BBX 18 18 2 -1
BITMAP
FFFFC0
FFFFC0
E00000
E70000
E7FF80
E7FF80
E73B80
E7FF80
E7FF80
E73B80
E7FF80
E7FF80
E03800
E03800
E03800
E02000
FFFFC0
FFFFC0
ENDCHAR
STARTCHAR 5326
ENCODING 21286
SWIDTH 990 0
DWIDTH 22 0
BBX 20 18 1 -1
BITMAP
FFFFE0
FFFFE0
E00000
E30E00
EFEE00
EFEE00
E6CFE0
EECFE0
EFEEE0
E7EEE0
E1CEE0
EFFEE0
EFDCF0
EFDCE0
E1D8E0
E00000
FFFFF0
FFFFF0
ENDCHAR
STARTCHAR 532A
ENCODING 21290
SWIDTH 990 0
DWIDTH 22 0
BBX 20 18 1 -1
BITMAP
FFFFE0
FFFFE0
E00000
E0EE00
E0EE00
E7EFC0
E7EFC0
E0EE00
E7EFC0
E7EFC0
E0EE00
EFEFE0
EFEFE0
E0EE00
E0EE00
E00000
FFFFF0
FFFFF0
ENDCHAR
STARTCHAR 532E
ENCODING 21294
SWIDTH 990 0
DWIDTH 22 0
BBX 20 18 1 -1
BITMAP
FFFFE0
FFFFE0
E00000
E3FFC0
E3FFC0
E3B9C0
E3FFC0
E03800
EFFFE0
EFFFE0
E3FFC0
E381C0
E3B980
E37FC0
E3F3C0
E7C0C0
FFFFF0
FFFFF0
ENDCHAR
STARTCHAR 5339
ENCODING 21305
SWIDTH 945 0
DWIDTH 21 0
BBX 19 17 1 -1
BITMAP
FFFFE0
FFFFE0
E1CE00
E1CE00
E1CE00
E1CE00
E1CE00
E3CE00
E38E00
E38FE0
E70FE0
E60FC0
E80000
E00000
E00000
FFFFE0
FFFFE0
ENDCHAR
STARTCHAR 533A
ENCODING 21306
SWIDTH 990 0
DWIDTH 22 0
BBX 18 17 2 -1
BITMAP
FFFFC0
FFFFC0
E00800
E01C00
E01E00
FE3E00
E3FC00
E1F800
E0FC00
E0FE00
E1FF00
E39F00
EF0F00
F00600
E00000
FFFFC0
FFFFC0
ENDCHAR
STARTCHAR 533B
ENCODING 21307
SWIDTH 945 0
DWIDTH 21 0
BBX 19 17 1 -1
BITMAP
FFFFE0
FFFFE0
E38000
E3FF80
E3FF80
E33800
E63800
E03800
E7FFC0
E7FFC0
E07000
E0FFC0
E0E3C0
E3C180
E40080
FFFFE0
FFFFE0
ENDCHAR
STARTCHAR 533E
ENCODING 21310
SWIDTH 945 0
DWIDTH 21 0
BBX 19 17 1 -1
BITMAP
FFFFE0
FFFFE0
E03800
E7FFC0
E7FFC0
E7FFC0
E7FF80
E70000
E7FFC0
E7FFC0
E7F7C0
EFFFC0
EDFFC0
E9F7C0
E100C0
FFFFE0
FFFFE0
ENDCHAR
STARTCHAR 533F
ENCODING 21311
SWIDTH 945 0
DWIDTH 21 0
BBX 19 18 1 -1
BITMAP
FFFFE0
FFFFE0
E00000
E1C700
EFFFC0
EFFFC0
E1C600
E0F000
EFFFC0
EFFFC0
E1FF00
E7FF80
FF8380
E38380
E3FF80
E1FF00
FFFFE0
FFFFE0
ENDCHAR
STARTCHAR 5341
ENCODING 21313
SWIDTH 945 0
DWIDTH 21 0
BBX 19 18 1 -1
BITMAP
00E000
00E000
00E000
00E000
00E000
00E000
00E000
FFFFE0
FFFFE0
00E000
00E000
00E000
00E000
00E000
00E000
00E000
00E000
00C000
ENDCHAR
STARTCHAR 5343
ENCODING 21315
SWIDTH 990 0
DWIDTH 22 0
BBX 20 18 1 0
BITMAP
000780
00FF80
3FFF80
0FFE00
00E000
00E000
00E000
00E000
FFFFF0
FFFFF0
00E000
00E000
00E000
00E000
00E000
00E000
00E000
00C000
ENDCHAR
STARTCHAR 5345
ENCODING 21317
SWIDTH 990 0
DWIDTH 22 0
BBX 20 18 1 -2
BITMAP
1C0380
1CE380
1CE380
1CE380
1CE380
1CE380
1CE380
1CE380
FFFFF0
FFFFF0
1CE380
1CE380
3CE380
3CE380
38E380
38E380
70E380
600380
ENDCHAR
STARTCHAR 5347
ENCODING 21319
SWIDTH 990 0
DWIDTH 22 0
BBX 20 18 1 0
BITMAP
01C000
07C700
3FE700
7F8700
0E0700
0E0700
0E0700
0E0700
FFFFF0
FFFFF0
0E0700
0E0700
0E0700
1E0700
1C0700
1C0700
380700
600600
ENDCHAR
STARTCHAR 5348
ENCODING 21320
SWIDTH 945 0
DWIDTH 21 0
BBX 19 18 1 -2
BITMAP
380000
3C0000
3FFF80
3FFF80
387000
707000
607000
007000
007000
FFFFE0
FFFFE0
007000
007000
007000
007000
007000
007000
006000
ENDCHAR
STARTCHAR 5349
ENCODING 21321
SWIDTH 990 0
DWIDTH 22 0
BBX 20 18 1 0
BITMAP
007000
007000
007000
3FFFE0
3FFFE0
007000
1C7380
1C7380
1C0380
1C0380
FFFFF0
FFFFF0
1C0380
1C0380
1C0380
380380
300380
600300
ENDCHAR
STARTCHAR 534A
ENCODING 21322
SWIDTH 945 0
DWIDTH 21 0
BBX 19 18 1 0
BITMAP
00E000
18E300
1CE3C0
1CE380
18E700
00E000
3FFFC0
3FFFC0
00E000
00E000
00E000
FFFFE0
FFFFE0
00E000
00E000
00E000
00E000
00C000
ENDCHAR
STARTCHAR 534D
ENCODING 21325
SWIDTH 990 0
DWIDTH 22 0
BBX 20 16 1 -1
BITMAP
FFF0E0
FFF0E0
0070E0
0070E0
0070E0
0070E0
7FFFE0
7FFFE0
707000
707000
707000
707000
707000
707FF0
707FF0
707FE0
ENDCHAR
STARTCHAR 534E
ENCODING 21326
SWIDTH 990 0
DWIDTH 22 0
BBX 20 18 1 0
BITMAP
1C0000
1E1C00
1C1DC0
381FE0
701FC0
7C7F00
DCFC00
1C1C00
1C1FF0
1C1FE0
1C07C0
00E000
FFFFF0
FFFFF0
00E000
00E000
00E000
00C000
ENDCHAR
STARTCHAR 534F
ENCODING 21327
SWIDTH 990 0
DWIDTH 22 0
BBX 21 18 1 -2
BITMAP
387000
387000
387000
387000
39FFC0
39FFC0
FE71C0
FE71C0
3971C0
3BF1F0
3BF1F8
3BF1F0
3B71C0
3871C0
38F1C0
38E1C0
38CFC0
318FC0
ENDCHAR
STARTCHAR 5351
ENCODING 21329
SWIDTH 990 0
DWIDTH 22 0
BBX 20 18 1 -1
BITMAP
00C000
00E000
39C000
3FFFC0
3FFFC0
3871C0
3FFFC0
3FFFC0
38F1C0
3FFFC0
1FFFC0
03C000
079C00
1E1C00
FFFFF0
FFFFF0
001C00
001C00
ENDCHAR
STARTCHAR 5352
ENCODING 21330
SWIDTH 990 0
DWIDTH 22 0
BBX 20 17 1 0
BITMAP
00E000
00E000
7FFFE0
7FFFE0
1C1C00
1C1E00
1F9FC0
3BBDC0
7BB1C0
E00000
00E000
FFFFF0
FFFFF0
00E000
00E000
00E000
00E000
ENDCHAR
STARTCHAR 5353
ENCODING 21331
SWIDTH 990 0
DWIDTH 22 0
BBX 20 18 1 -1
BITMAP
00E000
00FFC0
00FFC0
38E000
3FFFC0
3FFFC0
3801C0
3FFFC0
3FFFC0
3801C0
3FFFC0
0FFF80
00E000
FFFFF0
FFFFF0
00E000
00E000
00C000
ENDCHAR
STARTCHAR 5355
ENCODING 21333
SWIDTH 990 0
DWIDTH 22 0
BBX 20 18 1 0
BITMAP
030600
078700
030E00
380C00
3FFFC0
3FFFC0
3871C0
3FFFC0
3FFFC0
3871C0
3FFFC0
1FFF80
007000
FFFFF0
FFFFF0
007000
007000
007000
ENDCHAR
STARTCHAR 5356
ENCODING 21334
SWIDTH 945 0
DWIDTH 21 0
BBX 19 19 1 -3
BITMAP
00E000
00E000
3FFFC0
3FFFC0
00E0C0
7FFFE0
7FFFE0
0001C0
0F7180
067300
3E7000
1CF000
FFFFE0
FFFFE0
01E000
03FFC0
07CFC0
1F03C0
7C00C0
ENDCHAR
STARTCHAR 5357
ENCODING 21335
SWIDTH 990 0
DWIDTH 22 0
BBX 20 18 1 -1
BITMAP
00E000
00E000
FFFFF0
FFFFF0
00E000
7FFFE0
7FFFE0
7000E0
7398E0
7398E0
77FCE0
77FCE0
70E0E0
77FEE0
77FEE0
70E0E0
70E3E0
60C3E0
ENDCHAR
STARTCHAR 535A
ENCODING 21338
SWIDTH 990 0
DWIDTH 22 0
BBX 20 18 1 -1
BITMAP
380F40
380FE0
39FFF0
39FFF0
38FFE0
38FFF0
FEFFF0
FEFFF0
38FFF0
38FFF0
38EE60
3801C0
39FFF0
39FFF0
3801C0
3831C0
3877C0
3877C0
ENDCHAR
STARTCHAR 535C
ENCODING 21340
SWIDTH 990 0
DWIDTH 22 0
BBX 11 18 5 -1
BITMAP
E000
E000
E000
E000
E000
E000
E600
E3C0
E1E0
E1E0
E0E0
E040
E000
E000
E000
E000
E000
8000
ENDCHAR
STARTCHAR 535E
ENCODING 21342
SWIDTH 945 0
DWIDTH 21 0
BBX 19 19 1 -1
BITMAP
00E000
00E000
00E000
000000
FFFFE0
FFFFE0
00E000
00E000
00E000
00EE00
00E780
00E3C0
00E380
00E100
00E000
00E000
00E000
00E000
008000
ENDCHAR
STARTCHAR 535F
ENCODING 21343
SWIDTH 990 0
DWIDTH 22 0
BBX 20 18 1 -2
BITMAP
001C00
001C00
E31C00
FF9C00
FB9C00
E39C00
E39C00
E39F80
E39DE0
E39CF0
E39CF0
E39C60
E39C00
EB9C00
FF1C00
F71C00
0C1C00
001C00
ENDCHAR
STARTCHAR 5360
ENCODING 21344
SWIDTH 945 0
DWIDTH 21 0
BBX 17 18 2 -2
BITMAP
01C000
01C000
01C000
01FF80
01FF80
01C000
01C000
E1C000
FFFF80
FFFF80
E00380
E00380
E00380
E00380
E00380
FFF780
FFF700
000E00
ENDCHAR
STARTCHAR 5361
ENCODING 21345
SWIDTH 945 0
DWIDTH 21 0
BBX 19 18 1 -1
BITMAP
00E000
00E000
00E000
00FFC0
00FFC0
00E000
00E000
FFFFE0
FFFFE0
000000
00E000
00EF80
00E3C0
00E1C0
00E0C0
00E080
00E000
008000
ENDCHAR
STARTCHAR 5362
ENCODING 21346
SWIDTH 945 0
DWIDTH 21 0
BBX 19 18 1 0
BITMAP
007000
007000
007FE0
007FE0
007000
3FFFC0
3FFFC0
3801C0
3801C0
3801C0
3FFFC0
3FFFC0
380000
380000
780000
700000
600000
C00000
ENDCHAR
STARTCHAR 5363
ENCODING 21347
SWIDTH 990 0
DWIDTH 22 0
BBX 18 19 2 -2
BITMAP
01C000
01C000
01FFC0
01FFC0
01C000
FFFFC0
FFFFC0
E001C0
E001C0
FFF9C0
FFF9C0
E039C0
FFF9C0
FFF9C0
E001C0
E001C0
FFF9C0
FFFB80
000600
ENDCHAR
STARTCHAR 5364
ENCODING 21348
SWIDTH 990 0
DWIDTH 22 0
BBX 18 19 2 -2
BITMAP
01C000
01C000
01FFC0
01FFC0
01C000
FFFFC0
FFFFC0
E021C0
E079C0
E771C0
E3F1C0
E0F1C0
E1F9C0
E3B9C0
EE19C0
E001C0
FFF9C0
FFFB80
000300
ENDCHAR
STARTCHAR 5366
ENCODING 21350
SWIDTH 945 0
DWIDTH 21 0
BBX 20 18 1 -1
BITMAP
0E0E00
0E0E00
FFCE00
FFCE00
0E0E00
0E0E00
FFEF80
FFEEE0
000EF0
0E0EF0
FFEE60
FFEE00
0E0E00
0E0E00
0FEE00
FF8E00
FE0E00
F00C00
ENDCHAR
STARTCHAR 5367
ENCODING 21351
SWIDTH 990 0
DWIDTH 22 0
BBX 20 18 1 -2
BITMAP
000700
FFE700
FFE700
E38700
E38700
E38700
FFE780
FFE7E0
E0E770
E0E770
E0E770
FFE720
FFE700
E38700
E38700
E38700
FFE700
FFE600
ENDCHAR
STARTCHAR 5369
ENCODING 21353
SWIDTH 990 0
DWIDTH 22 0
BBX 8 18 13 -2
BITMAP
E0
FF
FF
E7
E7
E7
E7
E7
E7
E7
E7
E7
E7
EF
EF
E0
E0
C0
ENDCHAR
STARTCHAR 536B
ENCODING 21355
SWIDTH 990 0
DWIDTH 22 0
BBX 20 17 1 -1
BITMAP
7FFFC0
7FFFC0
01C1C0
01C1C0
01C1C0
01C1C0
01C1C0
01C1C0
01C1C0
01C7C0
01C7C0
01C000
01C000
01C000
01C000
FFFFF0
FFFFF0
ENDCHAR
STARTCHAR 536E
ENCODING 21358
SWIDTH 990 0
DWIDTH 22 0
BBX 19 18 2 -2
BITMAP
000180
703F80
7FFFC0
73FF00
700000
7FFFE0
7FFFE0
700000
73FF00
73FF80
738380
738380
739F80
739F80
638000
E3FFE0
C3FFE0
83FFC0
ENDCHAR
STARTCHAR 536F
ENCODING 21359
SWIDTH 990 0
DWIDTH 22 0
BBX 19 19 2 -1
BITMAP
030000
0FB800
FE3FE0
E03FE0
E3B8E0
E3B8E0
E3B8E0
E3B8E0
E3B8E0
E3B8E0
E3B8E0
E3B8E0
FFB8E0
FF3BE0
EF39C0
1E3800
1C3800
783800
800000
ENDCHAR
STARTCHAR 5370
ENCODING 21360
SWIDTH 945 0
DWIDTH 21 0
BBX 19 18 1 -1
BITMAP
038000
0F9C00
7F9FE0
761FE0
701CE0
701CE0
701CE0
7F9CE0
7F9CE0
701CE0
701CE0
709CE0
7F9CE0
FE1FE0
FC1DE0
781C00
201C00
001C00
ENDCHAR
STARTCHAR 5371
ENCODING 21361
SWIDTH 990 0
DWIDTH 22 0
BBX 20 19 1 -2
BITMAP
0C0000
0F0200
0F0700
1FFF80
3FFF00
381E00
FFFFE0
3FFFE0
380000
39FF80
39FFC0
39C1C0
39C1C0
39CFC0
39CFC0
39C000
31FFF0
61FFF0
41FFE0
ENDCHAR
STARTCHAR 5373
ENCODING 21363
SWIDTH 990 0
DWIDTH 22 0
BBX 20 18 1 -2
BITMAP
7FEE00
7FEFF0
70EFF0
70EE70
7FEE70
7FEE70
70EE70
70EE70
7FEE70
7FEE70
700E70
718E70
70CEF0
7FEEF0
FEEE70
7CEE00
704E00
000C00
ENDCHAR
STARTCHAR 5374
ENCODING 21364
SWIDTH 990 0
DWIDTH 22 0
BBX 20 18 1 -2
BITMAP
0E0E00
0E0FF0
0E0FF0
FFCE70
FFCE70
0E0E70
0E0E70
0E0E70
FFEE70
FFEE70
1C0E70
3C0E70
390E70
71CEF0
FFEEF0
FEEE00
F8CE00
000C00
ENDCHAR
STARTCHAR 5375
ENCODING 21365
SWIDTH 945 0
DWIDTH 21 0
BBX 20 19 0 -1
BITMAP
018000
038000
0F9C00
7F1FF0
701FF0
71DC70
71DC70
77DDF0
7FDDF0
77DCF0
71DC70
71DC70
7FDC70
FFDCF0
7B9CF0
679CF0
0F1C00
1E1C00
3C1C00
ENDCHAR
STARTCHAR 5377
ENCODING 21367
SWIDTH 945 0
DWIDTH 21 0
BBX 20 18 1 -1
BITMAP
00F000
1CF300
1CE700
3FFFC0
3FFFC0
03E000
FFFFE0
FFFFE0
0F0F80
1F07F0
3FFFE0
FFFFE0
0E0700
0E3F00
0E1E00
0FFFE0
0FFFC0
0FFFC0
ENDCHAR
STARTCHAR 5378
ENCODING 21368
SWIDTH 990 0
DWIDTH 22 0
BBX 20 19 1 -2
BITMAP
600000
700E00
7FEFF0
7FEFF0
EE0E70
8E0E70
FFEE70
FFEE70
0E0E70
0E0E70
6FEE70
6FEE70
6E0E70
6E0EF0
6FEEF0
FF8EF0
FE0E00
700E00
000800
ENDCHAR
STARTCHAR 537A
ENCODING 21370
SWIDTH 990 0
DWIDTH 22 0
BBX 20 19 1 -1
BITMAP
000100
1FFF80
1FFF80
001F40
7F78E0
7F7FE0
0F77F0
1EF1F0
79F0E0
FFFFF0
FFFFF0
000000
1FFF00
1FFF80
1C1F80
1C1F80
1FFFF0
1FFFF0
1FFFE0
ENDCHAR
STARTCHAR 537F
ENCODING 21375
SWIDTH 990 0
DWIDTH 22 0
BBX 20 19 1 -1
BITMAP
080000
1DC380
3DFFF0
FDFFF0
DDDFB0
DDDFB0
DDFFB0
DDFFB0
DDDFB0
DDDFB0
DDFFB0
DDFFB0
FDC3B0
FDD3B0
FDDBF0
39FF80
3BFF80
73CF80
C18380
ENDCHAR
STARTCHAR 5382
ENCODING 21378
SWIDTH 990 0
DWIDTH 22 0
BBX 18 17 2 -2
BITMAP
7FFFC0
7FFFC0
700000
700000
700000
700000
700000
700000
700000
700000
700000
700000
700000
700000
E00000
C00000
800000
ENDCHAR
STARTCHAR 5384
ENCODING 21380
SWIDTH 945 0
DWIDTH 21 0
BBX 19 17 1 -2
BITMAP
7FFFC0
7FFFC0
700000
738000
73FF80
73FF80
738380
738380
738380
738380
739F80
739F80
738000
738000
63FFE0
E3FFE0
C3FFE0
ENDCHAR
STARTCHAR 5385
ENCODING 21381
SWIDTH 945 0
DWIDTH 21 0
BBX 19 17 1 -2
BITMAP
7FFFE0
7FFFE0
700000
700000
77FFE0
77FFE0
701C00
701C00
701C00
701C00
701C00
701C00
701C00
701C00
601C00
E07C00
C07C00
ENDCHAR
STARTCHAR 5386
ENCODING 21382
SWIDTH 945 0
DWIDTH 21 0
BBX 19 17 1 -2
BITMAP
7FFFE0
7FFFE0
700000
707000
707000
707000
73FFC0
73FFC0
7071C0
7071C0
70F1C0
70E1C0
70E1C0
71E1C0
61C1C0
E387C0
8607C0
ENDCHAR
STARTCHAR 5389
ENCODING 21385
SWIDTH 945 0
DWIDTH 21 0
BBX 19 17 1 -2
BITMAP
7FFFE0
7FFFE0
700000
77FFE0
77FFE0
70E000
70E000
70E000
70FFC0
70FFC0
71E1C0
71E1C0
71C1C0
71C1C0
6381C0
6307C0
C607C0
ENDCHAR
STARTCHAR 538B
ENCODING 21387
SWIDTH 945 0
DWIDTH 21 0
BBX 19 18 1 -2
BITMAP
7FFFE0
7FFFE0
700000
701C00
701C00
701C00
701C00
701C00
73FFC0
73FFC0
701C00
701DC0
701DC0
701DC0
701C00
6FFFE0
CFFFE0
800000
ENDCHAR
STARTCHAR 538C
ENCODING 21388
SWIDTH 945 0
DWIDTH 21 0
BBX 19 17 1 -2
BITMAP
7FFFE0
7FFFE0
703800
7039C0
7039C0
7039C0
703800
77FFE0
77FFE0
703C00
703E00
707E00
707700
70F780
61E3E0
E3C3E0
8701C0
ENDCHAR
STARTCHAR 538D
ENCODING 21389
SWIDTH 990 0
DWIDTH 22 0
BBX 20 17 1 -2
BITMAP
7FFFF0
7FFFF0
70F000
70F000
77FFE0
77FFE0
71C000
73CE00
73CE00
77FFE0
71FFE0
700E00
77FFF0
77FFF0
600E00
E00E00
C00C00
ENDCHAR
STARTCHAR 5395
ENCODING 21397
SWIDTH 990 0
DWIDTH 22 0
BBX 20 18 1 -2
BITMAP
7FFFF0
7FFFF0
77F870
77FB70
761B70
76FB70
76FB70
76FB70
76FB70
76FB70
76FB70
76FB70
75E370
71C370
71F870
63B870
C639F0
080000
ENDCHAR
STARTCHAR 5398
ENCODING 21400
SWIDTH 990 0
DWIDTH 22 0
BBX 20 17 1 -2
BITMAP
7FFFF0
7FFFF0
738000
73FFC0
73FFC0
739DC0
73FFC0
73FFC0
739DC0
73FFC0
73FFC0
701C00
73FFC0
73FFC0
601C00
E7FFF0
C7FFF0
ENDCHAR
STARTCHAR 539A
ENCODING 21402
SWIDTH 945 0
DWIDTH 21 0
BBX 19 18 1 -2
BITMAP
7FFFE0
7FFFE0
738000
73FFC0
73FFC0
73FFC0
73FFC0
73FDC0
73FF80
7000C0
73FFC0
73FFC0
701F00
7FFFE0
7FFFE0
601C00
E0FC00
807C00
ENDCHAR
STARTCHAR 539D
ENCODING 21405
SWIDTH 990 0
DWIDTH 22 0
BBX 20 19 1 -2
BITMAP
7FFFE0
7FFFE0
700000
70E380
73FFE0
73FFE0
70E380
70E380
77FFF0
77FFF0
700000
71FFC0
71FFC0
71FFC0
71FFC0
61C1C0
E1FDC0
C1FD80
000300
ENDCHAR
STARTCHAR 539F
ENCODING 21407
SWIDTH 945 0
DWIDTH 21 0
BBX 19 18 1 -2
BITMAP
7FFFE0
7FFFE0
701C00
703800
73FFC0
73FFC0
7381C0
73FFC0
73FFC0
7381C0
73FFC0
73FFC0
701C00
731CC0
739CE0
639CE0
E77CC0
807C00
ENDCHAR
STARTCHAR 53A2
ENCODING 21410
SWIDTH 990 0
DWIDTH 22 0
BBX 20 17 1 -2
BITMAP
7FFFF0
7FFFF0
700000
71CFE0
71CFF0
77FE70
77FE70
71CE70
71CFF0
77FFF0
77FE70
77EFF0
77CFF0
7DCE70
61CE70
61CF60
C1CFE0
ENDCHAR
STARTCHAR 53A3
ENCODING 21411
SWIDTH 990 0
DWIDTH 22 0
BBX 20 17 1 -2
BITMAP
7FFFF0
7FFFF0
701CE0
77FFF0
77FFF0
70FBC0
71F1F0
7FFFF0
73FFE0
739CE0
73FFE0
73FFE0
739CE0
73FFE0
60FFC0
601C00
C01C00
ENDCHAR
STARTCHAR 53A5
ENCODING 21413
SWIDTH 945 0
DWIDTH 21 0
BBX 20 17 1 -1
BITMAP
FFFFE0
FFFFE0
E66380
E77340
E763E0
EFFBE0
EFFE40
E1C480
EDDB80
EDDB80
EDDB80
EFFB80
EFFB80
E3C7C0
C387E0
C70EF0
8C1840
ENDCHAR
STARTCHAR 53A6
ENCODING 21414
SWIDTH 990 0
DWIDTH 22 0
BBX 20 18 1 -1
BITMAP
7FFFF0
7FFFF0
77FFE0
77FFE0
701C00
71FFE0
71FFE0
71FFE0
71FFE0
71C0E0
71FFE0
70C1C0
71FFC0
71FFC0
73E3C0
663FF0
60FFF0
87FFE0
ENDCHAR
STARTCHAR 53A8
ENCODING 21416
SWIDTH 990 0
DWIDTH 22 0
BBX 20 17 1 -2
BITMAP
7FFFF0
7FFFF0
77F8E0
77F8E0
7000E0
77FFF0
77FFF0
7738E0
7738E0
77F2E0
77E7E0
7727E0
7770E0
7018E0
6FF0E0
67C3E0
C703E0
ENDCHAR
STARTCHAR 53A9
ENCODING 21417
SWIDTH 945 0
DWIDTH 21 0
BBX 20 17 0 -2
BITMAP
7FFFF0
7FFFF0
77EFF0
77FFF0
7771C0
777DC0
77FDC0
77FDC0
777FF0
77FFF0
77F3C0
7703E0
7763E0
7777E0
6FF7F0
6F2EF0
C418F0
ENDCHAR
STARTCHAR 53AE
ENCODING 21422
SWIDTH 990 0
DWIDTH 22 0
BBX 20 17 1 -2
BITMAP
FFFFF0
FFFFF0
EE7030
FFF7F0
FFF7E0
EE7700
EFF700
EFF700
EE77F0
EFF770
EFF770
EE7770
FFF770
FFF670
C67E70
CE7E70
8C7860
ENDCHAR
STARTCHAR 53B6
ENCODING 21430
SWIDTH 990 0
DWIDTH 22 0
BBX 19 17 1 -1
BITMAP
008000
01F000
01F000
01F000
01E000
03E000
03C000
07C000
078400
070700
0F0380
1C03C0
19FFE0
FFFDE0
7FF1E0
7F80C0
380000
ENDCHAR
STARTCHAR 53BB
ENCODING 21435
SWIDTH 990 0
DWIDTH 22 0
BBX 20 18 1 0
BITMAP
00E000
00E000
00E000
3FFFC0
3FFFC0
00E000
00E000
00E000
FFFFF0
FFFFF0
038000
07C000
078600
0F0380
3FFFC0
3FFFC0
3FE1C0
1F0100
ENDCHAR
STARTCHAR 53BF
ENCODING 21439
SWIDTH 990 0
DWIDTH 22 0
BBX 20 18 1 -1
BITMAP
1C0000
1FFF00
1FFF00
1C0700
1FFF00
1FFF00
1C0700
1FFF00
1FFF00
1C0700
1C0700
FFFFF0
FFFFF0
070400
0E0300
3FFFC0
3FF1C0
1E0100
ENDCHAR
STARTCHAR 53C1
ENCODING 21441
SWIDTH 945 0
DWIDTH 21 0
BBX 19 19 1 -1
BITMAP
010000
01C000
03C000
078600
3FFF00
3FFB80
1F8300
03C000
FFFFE0
FFFFE0
0F0F00
1F07E0
3FFFE0
F3FCC0
3FFF80
3FFF80
000000
FFFFE0
FFFFE0
ENDCHAR
STARTCHAR 53C2
ENCODING 21442
SWIDTH 945 0
DWIDTH 21 0
BBX 19 19 1 -1
BITMAP
010000
038000
038000
078600
3FFF80
3FF380
1F8300
FFFFE0
FFFFE0
0F2E00
1EF780
7DF3E0
0F99E0
007C00
03F300
0C0F80
007F00
03FE00
3FE000
ENDCHAR
STARTCHAR 53C8
ENCODING 21448
SWIDTH 990 0
DWIDTH 22 0
BBX 18 17 2 -2
BITMAP
7FFF00
7FFF00
100F00
101F00
101F00
181E00
0C3E00
0C3E00
0E7C00
077800
07F800
03F000
03FC00
07FFC0
1F3FC0
780F80
800000
ENDCHAR
STARTCHAR 53C9
ENCODING 21449
SWIDTH 945 0
DWIDTH 21 0
BBX 18 17 2 -2
BITMAP
7FFF00
7FFF00
200F00
10CF00
11CF00
19DF00
0CDE00
0C3E00
0E3C00
077C00
07F800
03F000
03FE00
07FFC0
1F7F80
7C0F80
800000
ENDCHAR
STARTCHAR 53CA
ENCODING 21450
SWIDTH 990 0
DWIDTH 22 0
BBX 20 18 1 -2
BITMAP
7FFF80
7FFF80
0E0700
0E0F00
0E0E00
0E1E00
0F1FC0
0F1FC0
0F83C0
0FC3C0
1FE780
1CF780
1C7F00
387F00
383FF0
70FFE0
C3C3C0
040000
ENDCHAR
STARTCHAR 53CB
ENCODING 21451
SWIDTH 990 0
DWIDTH 22 0
BBX 20 18 1 -2
BITMAP
070000
070000
070000
FFFFF0
FFFFF0
070000
070000
0FFF80
0FFF80
0F0780
0F8780
1ECF00
1CFF00
387E00
307F00
C1FFF0
0FE7F0
3E01E0
ENDCHAR
STARTCHAR 53CC
ENCODING 21452
SWIDTH 990 0
DWIDTH 22 0
BBX 20 17 1 -2
BITMAP
FF3FE0
FF3FE0
0710E0
0710E0
4719E0
6719E0
3F19E0
3F1DC0
1F1DC0
0E0FC0
0F0FC0
1F8F80
1FC780
3FCFC0
3B9FF0
727DE0
C0E0C0
ENDCHAR
STARTCHAR 53CD
ENCODING 21453
SWIDTH 945 0
DWIDTH 21 0
BBX 18 18 1 -2
BITMAP
000300
383F80
3FFF80
380000
380000
380000
3FFF80
3FFF80
390780
398700
398F00
38CF00
38FE00
307C00
707F00
60FFC0
63EFC0
8F0780
ENDCHAR
STARTCHAR 53D1
ENCODING 21457
SWIDTH 990 0
DWIDTH 22 0
BBX 19 18 2 -2
BITMAP
070000
770300
770700
F70700
FFFFC0
7FFFC0
070000
0F0000
0FFF00
0FFF00
1F0700
1F8F00
39CE00
71FE00
C0FE00
01FFE0
0FEFC0
3F0380
ENDCHAR
STARTCHAR 53D4
ENCODING 21460
SWIDTH 990 0
DWIDTH 22 0
BBX 20 18 1 -2
BITMAP
0E0000
0E0000
0E3FE0
0FFFE0
0FD8E0
0E18E0
0E19E0
FFD9E0
FFDDC0
000DC0
0E0DC0
0E0FC0
FEEF80
EEE780
EEE7C0
CE0FF0
1E1DE0
1E30C0
ENDCHAR
STARTCHAR 53D6
ENCODING 21462
SWIDTH 990 0
DWIDTH 22 0
BBX 20 17 1 -2
BITMAP
FFC000
FFDFE0
739FE0
7398E0
7F98E0
7F98E0
7398E0
738DE0
7F8DC0
7F8FC0
73AFC0
73C780
7F8780
FF87E0
FB8FF0
439DE0
0330E0
ENDCHAR
STARTCHAR 53D7
ENCODING 21463
SWIDTH 990 0
DWIDTH 22 0
BBX 18 19 2 -1
BITMAP
000200
000F00
00FF00
7FFF00
0FF200
38E380
F8E700
FFFFC0
FFFFC0
E001C0
3FFF00
3FFF00
1C0F00
0E1E00
073E00
07FC00
01FFC0
1FFF80
FF1F80
ENDCHAR
STARTCHAR 53D8
ENCODING 21464
SWIDTH 945 0
DWIDTH 21 0
BBX 19 18 1 0
BITMAP
00E000
00E000
FFFFE0
FFFFE0
039C00
739DC0
7B9DC0
739DC0
021000
3FFF00
3FFF00
0C0F00
061E00
07BE00
03FC00
01FFC0
0FFFC0
7F1F80
ENDCHAR
STARTCHAR 53D9
ENCODING 21465
SWIDTH 945 0
DWIDTH 21 0
BBX 19 18 1 -2
BITMAP
0C0000
0E0000
1E1FE0
1F1FE0
3FF8E0
70F8E0
FFD9E0
3F99E0
0E1DC0
0E0DC0
FFCFC0
FFCF80
0E0F80
EEE780
EEEFC0
CEDFE0
9E1FE0
1E30C0
ENDCHAR
STARTCHAR 53DB
ENCODING 21467
SWIDTH 990 0
DWIDTH 22 0
BBX 20 18 1 -2
BITMAP
1C0060
1C73E0
5FFFE0
FF7F80
FF7000
1C7000
FFFFE0
FFFFE0
1C74E0
1C74E0
FFF6E0
FFF7E0
3C77C0
3C73C0
3863C0
38E7F0
70CFF0
C0BCE0
ENDCHAR
STARTCHAR 53DF
ENCODING 21471
SWIDTH 945 0
DWIDTH 21 0
BBX 19 18 1 0
BITMAP
04E000
0EEFC0
7CEFC0
70E1C0
7EEFC0
7EEFC0
70E1C0
7FFFC0
7FFFC0
00E000
7FFF80
7FFF80
0C0F80
0F1F00
07FE00
03FFE0
3FFFE0
FF9FC0
ENDCHAR
STARTCHAR 53E0
ENCODING 21472
SWIDTH 990 0
DWIDTH 22 0
BBX 20 19 1 -1
BITMAP
0FFF00
0FFF00
001F00
07FF00
3FFF80
0FC700
7FBFC0
0781C0
3FBFC0
79FFC0
7FFFE0
7FFFE0
7FFFE0
7FFF80
0FFF00
0E0700
0FFF00
FFFFF0
FFFFF0
ENDCHAR
STARTCHAR 53E3
ENCODING 21475
SWIDTH 945 0
DWIDTH 21 0
BBX 17 16 2 -1
BITMAP
E00000
FFFF80
FFFF80
E00380
E00380
E00380
E00380
E00380
E00380
E00380
E00380
E00380
E00380
FFF700
FFF700
000C00
ENDCHAR
STARTCHAR 53E4
ENCODING 21476
SWIDTH 990 0
DWIDTH 22 0
BBX 20 19 1 -3
BITMAP
00E000
00E000
00E000
00E000
FFFFF0
FFFFF0
00E000
00E000
38E000
3FFF80
3FFF80
380380
380380
380380
380380
380380
3FFB80
3FFB00
000600
ENDCHAR
STARTCHAR 53E5
ENCODING 21477
SWIDTH 990 0
DWIDTH 22 0
BBX 18 18 2 0
BITMAP
3C0000
3C0000
3FFFC0
3FFFC0
7801C0
7801C0
7C01C0
FFF9C0
DFF9C0
1C39C0
1C39C0
1C39C0
1C39C0
1FF9C0
1FF1C0
0061C0
000FC0
000FC0
ENDCHAR
STARTCHAR 53E6
ENCODING 21478
SWIDTH 945 0
DWIDTH 21 0
BBX 17 18 2 -1
BITMAP
700000
7FFF00
7FFF00
700700
700700
700700
7FF700
3FFE00
000E00
0E0000
0E0000
FFFF80
FFFF80
0E0380
1E0380
1C0380
380F80
F00F80
ENDCHAR
STARTCHAR 53E8
ENCODING 21480
SWIDTH 990 0
DWIDTH 22 0
BBX 20 16 1 -1
BITMAP
E07FF0
FF7FF0
FF1C70
E71C70
E71C70
E71C70
E71C70
E71C70
E71C70
E71C70
E73C70
F73870
FE3870
0C7170
0071F0
00C1F0
ENDCHAR
STARTCHAR 53E9
ENCODING 21481
SWIDTH 990 0
DWIDTH 22 0
BBX 20 18 1 -2
BITMAP
003800
E03FF0
FFBFF0
FFB870
E3B870
E3B870
E3B870
E3B870
E3B870
E3B870
E3B870
E3B870
E3B870
F339F0
F739F0
063800
003800
003000
ENDCHAR
STARTCHAR 53EA
ENCODING 21482
SWIDTH 990 0
DWIDTH 22 0
BBX 17 17 3 0
BITMAP
E00000
FFFF00
FFFF00
E00700
E00700
E00700
E00700
FFE700
FFEE00
000C00
000000
1C3800
3C1E00
3C0F00
780F80
700780
E00700
ENDCHAR
STARTCHAR 53EB
ENCODING 21483
SWIDTH 990 0
DWIDTH 22 0
BBX 20 18 1 -2
BITMAP
000070
E13870
FF3870
FF3870
E73870
E73870
E73870
E73870
E73870
E73870
E73870
E73FF0
E77F70
F73E70
F63070
0C0070
000070
000040
ENDCHAR
STARTCHAR 53EC
ENCODING 21484
SWIDTH 990 0
DWIDTH 22 0
BBX 17 18 3 -3
BITMAP
FFFF80
FFFF80
0E0380
1E0380
1E0380
3C0380
781F80
F01F80
000000
7FFF00
7FFF00
700700
700700
700700
700700
7FE700
7FEE00
000C00
ENDCHAR
STARTCHAR 53ED
ENCODING 21485
SWIDTH 990 0
DWIDTH 22 0
BBX 20 18 1 0
BITMAP
000400
000400
E00200
FF3A00
FF3A00
E73A00
E73B00
E77B00
E77B00
E77380
E77380
E773C0
E7E3C0
F6E3E0
FEC1E0
0DC1F0
0181E0
020000
ENDCHAR
STARTCHAR 53EE
ENCODING 21486
SWIDTH 990 0
DWIDTH 22 0
BBX 20 17 1 -1
BITMAP
007FF0
FF7FF0
FF0700
E70700
E70700
E70700
E70700
E70700
E70700
E70700
E70700
E70700
E70700
FE0700
FC0700
001F00
000F00
ENDCHAR
STARTCHAR 53EF
ENCODING 21487
SWIDTH 945 0
DWIDTH 21 0
BBX 19 17 1 -1
BITMAP
FFFFE0
FFFFE0
000700
000700
3FE700
3FE700
38E700
38E700
38E700
38E700
3EE700
3EE700
01C700
000700
000700
001F00
001F00
ENDCHAR
STARTCHAR 53F0
ENCODING 21488
SWIDTH 990 0
DWIDTH 22 0
BBX 18 19 2 -2
BITMAP
038000
03C000
07C000
078C00
0F0600
1E0780
FFFFC0
FFFBC0
7F8180
000000
3FFF00
3FFF00
380700
380700
380700
380700
3FF700
3FFE00
000C00
ENDCHAR
STARTCHAR 53F1
ENCODING 21489
SWIDTH 990 0
DWIDTH 22 0
BBX 20 17 1 -1
BITMAP
000E00
FF0E00
FF0E60
E70EF0
E70FF0
E70FE0
E70FC0
E70F00
E73E00
E7FE00
E70E00
E70E00
F70E00
F60E00
FC0E00
000FF0
000FF0
ENDCHAR
STARTCHAR 53F2
ENCODING 21490
SWIDTH 945 0
DWIDTH 21 0
BBX 18 18 2 -1
BITMAP
01C000
01C000
E1C000
FFFF80
FFFF80
E1C380
E1C380
E1C380
FFFF80
FFFF80
01C000
63C000
3F8000
0FC000
0FFFC0
1FFFC0
3C7F80
F00F80
ENDCHAR
STARTCHAR 53F3
ENCODING 21491
SWIDTH 990 0
DWIDTH 22 0
BBX 19 18 2 -1
BITMAP
070000
070000
070000
FFFFE0
FFFFE0
0F0000
0F0000
0E0000
1FFF80
3FFF80
7C0380
FC0380
1C0380
1C0380
1C0380
1FF380
1FF700
000600
ENDCHAR
STARTCHAR 53F5
ENCODING 21493
SWIDTH 990 0
DWIDTH 22 0
BBX 18 17 2 -1
BITMAP
FFFFC0
FFFFC0
E00000
E00000
E3FF00
E3FF00
E38700
E38700
E38700
E38700
E38700
E3F700
E3F600
E00C00
E00000
FFFFC0
FFFFC0
ENDCHAR
STARTCHAR 53F6
ENCODING 21494
SWIDTH 1035 0
DWIDTH 23 0
BBX 21 17 1 -1
BITMAP
000700
E00700
FF0700
E70700
E70700
E70700
E77FF8
E77FF8
E70700
E70700
E70700
E70700
F70700
FE0700
0C0700
000700
000400
ENDCHAR
STARTCHAR 53F7
ENCODING 21495
SWIDTH 990 0
DWIDTH 22 0
BBX 20 18 1 -1
BITMAP
1C0000
1FFF80
1FFF80
1C0380
1C0380
1FFB80
1FFF00
000E00
FFFFF0
FFFFF0
1C0000
1C0000
1FFF80
0FFF80
000380
000380
000F80
000F80
ENDCHAR
STARTCHAR 53F8
ENCODING 21496
SWIDTH 990 0
DWIDTH 22 0
BBX 18 17 2 -1
BITMAP
7FFFC0
7FFFC0
0001C0
FFF9C0
FFF9C0
0001C0
0001C0
3FE1C0
3FF1C0
3871C0
3871C0
3871C0
3871C0
3F71C0
3FE1C0
00CFC0
000FC0
ENDCHAR
STARTCHAR 53F9
ENCODING 21497
SWIDTH 990 0
DWIDTH 22 0
BBX 20 17 1 -2
BITMAP
007FE0
FF7FE0
FF30E0
E730E0
E730E0
E730E0
E739E0
E719E0
E719C0
E71FC0
E71FC0
E70F80
E70F80
F60FC0
F41FF0
0079F0
01C0E0
ENDCHAR
STARTCHAR 53FB
ENCODING 21499
SWIDTH 990 0
DWIDTH 22 0
BBX 20 18 1 -2
BITMAP
001C00
001C00
FF1C00
FF1C00
F77FF0
E77FF0
E71C70
E71C70
E71C70
E71C70
E71C70
E73C70
E73C70
F73870
F63870
6E7870
0C73F0
00C3F0
ENDCHAR
STARTCHAR 53FC
ENCODING 21500
SWIDTH 990 0
DWIDTH 22 0
BBX 20 17 1 -1
BITMAP
007FF0
FF7FF0
FF0070
E70070
E70070
E70070
E70170
E70370
E70E70
E71E70
E77C70
E77870
E73070
F60070
6E0070
0C03F0
0003F0
ENDCHAR
STARTCHAR 53FD
ENCODING 21501
SWIDTH 990 0
DWIDTH 22 0
BBX 20 17 1 -1
BITMAP
007000
FE7FC0
FE7FC0
EE71C0
EE71C0
EE71C0
EE71C0
EE71C0
EE71C0
EE71C0
EE71C0
EEF1C0
FEF1C0
FCE1C0
08E1F0
01C1F0
0100F0
ENDCHAR
STARTCHAR 5401
ENCODING 21505
SWIDTH 1035 0
DWIDTH 23 0
BBX 21 17 1 -1
BITMAP
007FF0
FF7FF0
FF0700
E70700
E70700
E70700
E70700
E77FF8
E77FF8
E70700
E70700
E70700
F70700
FE0700
0C1700
001F00
001F00
ENDCHAR
STARTCHAR 5403
ENCODING 21507
SWIDTH 990 0
DWIDTH 22 0
BBX 21 18 1 -1
BITMAP
003000
003800
E03800
FF3FF0
FF3FF0
E76000
E76000
E7BFE0
E73FF0
E701E0
E703C0
E70780
E70F00
F71F00
FE1E00
0E3FF8
0C3FF0
003FF0
ENDCHAR
STARTCHAR 5404
ENCODING 21508
SWIDTH 990 0
DWIDTH 22 0
BBX 19 19 2 -2
BITMAP
0C0000
1E0000
1FFF00
1FFF00
3E0F00
3F9E00
63FC00
01FFE0
0FFFC0
FF9F80
1C0000
1FFF00
1FFF00
1C0700
1C0700
1C0700
1FF700
1FF600
000C00
ENDCHAR
STARTCHAR 5406
ENCODING 21510
SWIDTH 990 0
DWIDTH 22 0
BBX 20 17 1 -1
BITMAP
000C00
000F00
FE1E00
FE1C00
EE1DC0
EE39E0
EE33E0
EEFFC0
EEFF80
EE7700
EE0F00
EE0E80
EE1CC0
FE30E0
FCFFF0
08FE70
007060
ENDCHAR
STARTCHAR 5408
ENCODING 21512
SWIDTH 990 0
DWIDTH 22 0
BBX 18 19 2 -2
BITMAP
01C000
03E000
07F000
0FFE00
3F1FC0
FC07C0
1FFE00
1FFE00
000000
000000
380000
3FFF00
3FFF00
380700
380700
380700
3FF700
3FF600
000C00
ENDCHAR
STARTCHAR 5409
ENCODING 21513
SWIDTH 990 0
DWIDTH 22 0
BBX 19 19 1 -2
BITMAP
00E000
00E000
00E000
FFFFE0
FFFFE0
00E000
00E000
7FFF80
7FFF80
000000
380000
3FFF80
3FFF80
380380
380380
380380
3FF780
3FF700
000C00
ENDCHAR
STARTCHAR 540A
ENCODING 21514
SWIDTH 990 0
DWIDTH 22 0
BBX 18 18 2 -2
BITMAP
700000
7FFF80
7FFF80
700380
700380
7FFF80
7FFF80
00E000
00E000
FFFFC0
FFFFC0
E0E1C0
E0E1C0
E0E1C0
E0E7C0
E0E7C0
00E000
00C000
ENDCHAR
STARTCHAR 540B
ENCODING 21515
SWIDTH 990 0
DWIDTH 22 0
BBX 20 18 1 -1
BITMAP
0001C0
0001C0
FF01C0
FF01C0
F77FF0
E77FF0
E701C0
E701C0
E701C0
E739C0
E739C0
E739C0
E701C0
FF01C0
F601C0
0C0FC0
000FC0
0003C0
ENDCHAR
STARTCHAR 540C
ENCODING 21516
SWIDTH 990 0
DWIDTH 22 0
BBX 18 18 2 -1
BITMAP
E00000
FFFFC0
FFFFC0
E001C0
EFFDC0
EFFDC0
E001C0
E001C0
E7FDC0
E7FDC0
E71DC0
E71DC0
E71DC0
E7F9C0
E7F1C0
E001C0
E003C0
C003C0
ENDCHAR
STARTCHAR 540D
ENCODING 21517
SWIDTH 990 0
DWIDTH 22 0
BBX 18 19 3 -2
BITMAP
0E0000
0F0000
0FFF80
1FFF80
1C0780
3D0F00
73BE00
03FE00
03F800
1FF000
FF8000
1FFFC0
1FFFC0
1C01C0
1C01C0
1C01C0
1FF9C0
1FFB80
000700
ENDCHAR
STARTCHAR 540E
ENCODING 21518
SWIDTH 990 0
DWIDTH 22 0
BBX 18 19 2 -3
BITMAP
000300
707F80
7FFF80
73FE00
700000
700000
7FFFC0
7FFFC0
700000
700000
73FF80
73FF80
738380
738380
738380
E38380
C3FB80
83FB00
000600
ENDCHAR
STARTCHAR 540F
ENCODING 21519
SWIDTH 990 0
DWIDTH 22 0
BBX 19 18 1 -2
BITMAP
00E000
00E000
FFFFE0
FFFFE0
00E000
7FFFC0
7FFFC0
70E1C0
70E1C0
70E1C0
7FFFC0
7FFF80
21C000
1FC000
07FFE0
0FFFE0
1E7FE0
7807C0
ENDCHAR
STARTCHAR 5410
ENCODING 21520
SWIDTH 990 0
DWIDTH 22 0
BBX 20 16 1 0
BITMAP
000700
E60700
FF0700
E70700
E70700
E77FF0
E77FF0
E70700
E70700
E70700
E70700
E70700
F60700
FE0700
08FFF0
00FFF0
ENDCHAR
STARTCHAR 5411
ENCODING 21521
SWIDTH 990 0
DWIDTH 22 0
BBX 18 19 2 -2
BITMAP
030000
03C000
038000
E78000
FFFF80
FFFFC0
E001C0
E7F9C0
E7F9C0
E739C0
E739C0
E739C0
E739C0
E7B1C0
E7E1C0
E001C0
E007C0
E007C0
C003C0
ENDCHAR
ENDFONT
